{
.appVersion = "1342";
copyright = "Copyright 2020 The Palette Mosaic Project Authors (https://github.com/shibuyafont/Palette-mosaic-font-mono), all rights reserved.";
customParameters = (
{
name = vendorID;
value = SBYA;
},
{
name = panose;
value = (
2,
11,
5,
0,
0,
0,
0,
0,
0,
0
);
},
{
name = license;
value = "This Font Software is licensed under the SIL Open Font License, Version 1.1. This license is available with a FAQ at: https://scripts.sil.org/OFL";
},
{
name = licenseURL;
value = "https://scripts.sil.org/OFL";
},
{
name = fsType;
value = (
);
}
);
date = "2020-01-16 22:08:14 +0000";
designer = Shibuyafont;
designerURL = "http://www.shibuyafont.jp/index.html";
disablesAutomaticAlignment = 1;
familyName = "Palette Mosaic";
featurePrefixes = (
{
automatic = 1;
code = "languagesystem DFLT dflt;\012";
name = Languagesystems;
}
);
features = (
{
automatic = 1;
code = "feature vert;\012feature vkna;\012feature vrt2;\012";
name = aalt;
},
{
automatic = 1;

glyphs = (
{
glyphname = A;
lastChange = "2020-11-05 19:14:57 +0000";
layers = (
{
layerId = "E107BE24-86B5-4C0E-8944-467415BB13ED";
paths = (
{
closed = 1;
nodes = (
"300 421 LINE",
"302 491 OFFCURVE",
"305 562 OFFCURVE",
"307 633 CURVE",
"322 634 OFFCURVE",
"337 634 OFFCURVE",
"353 636 CURVE",
"359 600 OFFCURVE",
"353 565 OFFCURVE",
"356 530 CURVE SMOOTH",
"359 494 OFFCURVE",
"351 459 OFFCURVE",
"354 421 CURVE"
);
},
{
closed = 1;
nodes = (
"393 -66 OFFCURVE",
"408 -67 OFFCURVE",
"425 -67 CURVE SMOOTH",
"535 -67 LINE",
"535 -44 LINE",
"535 590 LINE",
"535 607 LINE",
"528 634 OFFCURVE",
"511 660 OFFCURVE",
"516 688 CURVE",
"498 732 OFFCURVE",
"476 773 OFFCURVE",
"437 803 CURVE SMOOTH",
"422 815 OFFCURVE",
"402 828 OFFCURVE",
"383 830 CURVE SMOOTH",
"346 835 OFFCURVE",
"307 832 OFFCURVE",
"270 832 CURVE SMOOTH",
"265 832 OFFCURVE",
"261 828 OFFCURVE",
"258 828 CURVE",
"236 823 OFFCURVE",
"219 810 OFFCURVE",
"201 798 CURVE SMOOTH",
"157 768 OFFCURVE",
"133 727 OFFCURVE",
"121 675 CURVE SMOOTH",
"118 656 OFFCURVE",
"121 639 OFFCURVE",
"123 622 CURVE",
"123 575 OFFCURVE",
"123 528 OFFCURVE",
"121 482 CURVE SMOOTH",
"121 421 OFFCURVE",
"120 361 OFFCURVE",
"116 300 CURVE SMOOTH",
"116 266 OFFCURVE",
"115 231 OFFCURVE",
"113 195 CURVE SMOOTH",
"113 167 OFFCURVE",
"115 140 OFFCURVE",
"115 111 CURVE SMOOTH",
"115 107 OFFCURVE",
"115 104 OFFCURVE",
"113 101 CURVE",
"99 62 OFFCURVE",
"108 21 OFFCURVE",
"106 -20 CURVE SMOOTH",
"106 -57 LINE",
"137 -59 OFFCURVE",
"164 -64 OFFCURVE",
"189 -54 CURVE",
"197 -55 OFFCURVE",
"204 -57 OFFCURVE",
"211 -57 CURVE",
"214 -59 OFFCURVE",
"219 -54 OFFCURVE",
"221 -55 CURVE",
"234 -67 OFFCURVE",
"250 -61 OFFCURVE",
"265 -59 CURVE",
"283 -59 OFFCURVE",
"285 -55 OFFCURVE",
"285 -39 CURVE SMOOTH",
"287 3 OFFCURVE",
"288 45 OFFCURVE",
"290 85 CURVE SMOOTH",
"292 118 OFFCURVE",
"292 151 OFFCURVE",
"294 183 CURVE SMOOTH",
"294 199 OFFCURVE",
"294 215 OFFCURVE",
"295 232 CURVE",
"354 232 LINE",
"354 112 LINE SMOOTH",
"356 60 OFFCURVE",
"359 4 OFFCURVE",
"359 -49 CURVE",
"361 -61 OFFCURVE",
"364 -66 OFFCURVE",
"376 -66 CURVE SMOOTH"
);
}
);
vertWidth = 1000;
width = 647;
}
);
note = cid00034;
unicode = 0041;
},
{
glyphname = B;
lastChange = "2020-11-05 19:14:57 +0000";
layers = (
{
layerId = "E107BE24-86B5-4C0E-8944-467415BB13ED";
paths = (
{
closed = 1;
nodes = (
"152 -47 OFFCURVE",
"181 -47 OFFCURVE",
"208 -49 CURVE SMOOTH",
"232 -51 OFFCURVE",
"257 -52 OFFCURVE",
"281 -54 CURVE SMOOTH",
"304 -56 OFFCURVE",
"304 -54 OFFCURVE",
"306 -31 CURVE SMOOTH",
"309 1 OFFCURVE",
"313 35 OFFCURVE",
"315 68 CURVE SMOOTH",
"316 111 OFFCURVE",
"316 156 OFFCURVE",
"316 200 CURVE SMOOTH",
"316 286 OFFCURVE",
"316 373 OFFCURVE",
"315 459 CURVE SMOOTH",
"313 547 OFFCURVE",
"321 633 OFFCURVE",
"309 721 CURVE SMOOTH",
"308 729 OFFCURVE",
"309 739 OFFCURVE",
"309 748 CURVE SMOOTH",
"311 765 OFFCURVE",
"315 781 OFFCURVE",
"315 798 CURVE SMOOTH",
"315 824 OFFCURVE",
"309 827 OFFCURVE",
"284 827 CURVE SMOOTH",
"257 825 OFFCURVE",
"232 824 OFFCURVE",
"205 824 CURVE SMOOTH",
"173 824 OFFCURVE",
"139 827 OFFCURVE",
"107 827 CURVE",
"91 793 OFFCURVE",
"97 765 OFFCURVE",
"97 736 CURVE SMOOTH",
"97 379 LINE",
"97 153 LINE SMOOTH",
"98 97 OFFCURVE",
"97 40 OFFCURVE",
"97 -15 CURVE SMOOTH",
"97 -42 OFFCURVE",
"98 -46 OFFCURVE",
"125 -46 CURVE SMOOTH"
);
},
{
closed = 1;
nodes = (
"331 809 OFFCURVE",
"328 795 OFFCURVE",
"330 781 CURVE",
"331 707 OFFCURVE",
"335 634 OFFCURVE",
"336 560 CURVE SMOOTH",
"336 440 LINE SMOOTH",
"336 398 OFFCURVE",
"336 354 OFFCURVE",
"338 310 CURVE SMOOTH",
"342 259 OFFCURVE",
"347 207 OFFCURVE",
"348 156 CURVE SMOOTH",
"350 94 OFFCURVE",
"348 29 OFFCURVE",
"348 -32 CURVE SMOOTH",
"348 -41 OFFCURVE",
"350 -51 OFFCURVE",
"350 -59 CURVE",
"424 -59 LINE SMOOTH",
"428 -59 OFFCURVE",
"433 -59 OFFCURVE",
"434 -58 CURVE",
"489 -32 OFFCURVE",
"533 4 OFFCURVE",
"558 58 CURVE SMOOTH",
"568 78 OFFCURVE",
"573 97 OFFCURVE",
"571 117 CURVE SMOOTH",
"570 138 OFFCURVE",
"571 156 OFFCURVE",
"571 176 CURVE SMOOTH",
"571 197 OFFCURVE",
"568 214 OFFCURVE",
"561 232 CURVE SMOOTH",
"538 290 OFFCURVE",
"500 334 OFFCURVE",
"441 357 CURVE SMOOTH",
"433 361 OFFCURVE",
"426 366 OFFCURVE",
"418 371 CURVE",
"450 384 OFFCURVE",
"478 398 OFFCURVE",
"499 423 CURVE SMOOTH",
"529 459 OFFCURVE",
"553 498 OFFCURVE",
"565 545 CURVE SMOOTH",
"576 592 OFFCURVE",
"575 640 OFFCURVE",
"554 683 CURVE SMOOTH",
"519 763 OFFCURVE",
"453 809 OFFCURVE",
"367 825 CURVE SMOOTH",
"357 827 OFFCURVE",
"345 825 OFFCURVE",
"331 825 CURVE"
);
}
);
vertWidth = 1000;
width = 719;
}
);
note = cid00035;
unicode = 0042;
},
{
glyphname = C;
lastChange = "2020-11-05 19:14:57 +0000";
layers = (
{
layerId = "E107BE24-86B5-4C0E-8944-467415BB13ED";
paths = (
{
closed = 1;
nodes = (
"518 764 OFFCURVE",
"518 763 OFFCURVE",
"518 763 CURVE",
"515 685 OFFCURVE",
"511 608 OFFCURVE",
"508 530 CURVE SMOOTH",
"508 518 OFFCURVE",
"515 509 OFFCURVE",
"527 508 CURVE",
"545 503 OFFCURVE",
"565 502 OFFCURVE",
"585 501 CURVE SMOOTH",
"599 499 OFFCURVE",
"604 508 OFFCURVE",
"606 522 CURVE SMOOTH",
"607 535 OFFCURVE",
"607 547 OFFCURVE",
"609 560 CURVE",
"610 593 OFFCURVE",
"609 627 OFFCURVE",
"616 659 CURVE SMOOTH",
"623 695 OFFCURVE",
"617 730 OFFCURVE",
"621 767 CURVE",
"521 767 LINE"
);
},
{
closed = 1;
nodes = (
"503 632 OFFCURVE",
"504 676 OFFCURVE",
"505 720 CURVE",
"507 734 OFFCURVE",
"505 750 OFFCURVE",
"505 770 CURVE",
"480 770 OFFCURVE",
"453 770 OFFCURVE",
"426 768 CURVE SMOOTH",
"415 768 OFFCURVE",
"403 760 OFFCURVE",
"392 757 CURVE SMOOTH",
"296 726 OFFCURVE",
"218 671 OFFCURVE",
"161 588 CURVE SMOOTH",
"127 537 OFFCURVE",
"102 484 OFFCURVE",
"106 419 CURVE SMOOTH",
"110 377 OFFCURVE",
"107 336 OFFCURVE",
"107 295 CURVE SMOOTH",
"107 288 OFFCURVE",
"107 280 OFFCURVE",
"109 273 CURVE SMOOTH",
"137 190 OFFCURVE",
"177 118 OFFCURVE",
"250 70 CURVE SMOOTH",
"296 42 OFFCURVE",
"341 15 OFFCURVE",
"392 0 CURVE SMOOTH",
"422 -8 OFFCURVE",
"450 -15 OFFCURVE",
"481 -14 CURVE SMOOTH",
"494 -13 OFFCURVE",
"504 -7 OFFCURVE",
"501 5 CURVE SMOOTH",
"495 28 OFFCURVE",
"504 49 OFFCURVE",
"503 72 CURVE",
"501 80 OFFCURVE",
"497 89 OFFCURVE",
"495 98 CURVE SMOOTH",
"493 106 OFFCURVE",
"488 113 OFFCURVE",
"490 120 CURVE SMOOTH",
"498 157 OFFCURVE",
"497 195 OFFCURVE",
"495 233 CURVE SMOOTH",
"494 273 OFFCURVE",
"491 312 OFFCURVE",
"490 352 CURVE SMOOTH",
"490 390 OFFCURVE",
"490 427 OFFCURVE",
"491 464 CURVE SMOOTH",
"494 506 OFFCURVE",
"498 547 OFFCURVE",
"500 590 CURVE SMOOTH"
);
},
{
closed = 1;
nodes = (
"609 189 OFFCURVE",
"607 205 OFFCURVE",
"607 223 CURVE",
"579 223 OFFCURVE",
"558 224 OFFCURVE",
"537 223 CURVE SMOOTH",
"515 223 OFFCURVE",
"511 219 OFFCURVE",
"511 196 CURVE SMOOTH",
"510 149 OFFCURVE",
"508 104 OFFCURVE",
"508 57 CURVE SMOOTH",
"507 42 OFFCURVE",
"508 25 OFFCURVE",
"508 9 CURVE SMOOTH",
"510 -8 OFFCURVE",
"520 -15 OFFCURVE",
"538 -13 CURVE SMOOTH",
"555 -10 OFFCURVE",
"572 -7 OFFCURVE",
"589 -4 CURVE SMOOTH",
"606 -1 OFFCURVE",
"612 2 OFFCURVE",
"609 19 CURVE SMOOTH",
"604 46 OFFCURVE",
"607 72 OFFCURVE",
"607 97 CURVE SMOOTH",
"607 123 OFFCURVE",
"609 148 OFFCURVE",
"609 175 CURVE SMOOTH"
);
}
);
vertWidth = 1000;
width = 749;
}
);
note = cid00036;
unicode = 0043;
},
{
glyphname = D;
lastChange = "2020-11-05 19:14:57 +0000";
layers = (
{
layerId = "E107BE24-86B5-4C0E-8944-467415BB13ED";
paths = (
{
closed = 1;
nodes = (
"191 -32 OFFCURVE",
"225 -32 OFFCURVE",
"260 -30 CURVE SMOOTH",
"272 -30 OFFCURVE",
"291 -26 OFFCURVE",
"294 -18 CURVE SMOOTH",
"306 6 OFFCURVE",
"330 5 OFFCURVE",
"350 15 CURVE SMOOTH",
"368 26 OFFCURVE",
"387 35 OFFCURVE",
"402 47 CURVE SMOOTH",
"425 65 OFFCURVE",
"444 86 OFFCURVE",
"465 104 CURVE SMOOTH",
"476 115 OFFCURVE",
"488 124 OFFCURVE",
"495 136 CURVE SMOOTH",
"536 203 OFFCURVE",
"565 274 OFFCURVE",
"559 353 CURVE SMOOTH",
"557 371 OFFCURVE",
"559 389 OFFCURVE",
"559 407 CURVE SMOOTH",
"559 437 OFFCURVE",
"559 469 OFFCURVE",
"550 499 CURVE SMOOTH",
"529 561 OFFCURVE",
"507 621 OFFCURVE",
"456 666 CURVE SMOOTH",
"405 711 OFFCURVE",
"353 750 OFFCURVE",
"284 765 CURVE SMOOTH",
"264 769 OFFCURVE",
"243 769 OFFCURVE",
"224 777 CURVE",
"194 786 OFFCURVE",
"164 781 OFFCURVE",
"133 781 CURVE",
"133 771 OFFCURVE",
"132 763 OFFCURVE",
"132 757 CURVE SMOOTH",
"132 130 LINE SMOOTH",
"132 113 OFFCURVE",
"133 101 OFFCURVE",
"149 93 CURVE",
"143 86 OFFCURVE",
"137 78 OFFCURVE",
"132 72 CURVE",
"156 41 OFFCURVE",
"153 12 OFFCURVE",
"129 -21 CURVE",
"141 -26 OFFCURVE",
"149 -30 OFFCURVE",
"156 -30 CURVE SMOOTH"
);
}
);
vertWidth = 1000;
width = 678;
}
);
note = cid00037;
unicode = 0044;
},
{
glyphname = E;
lastChange = "2020-11-05 19:14:57 +0000";
layers = (
{
layerId = "E107BE24-86B5-4C0E-8944-467415BB13ED";
paths = (
{
closed = 1;
nodes = (
"428 463 OFFCURVE",
"419 463 OFFCURVE",
"411 462 CURVE",
"386 462 OFFCURVE",
"380 456 OFFCURVE",
"379 430 CURVE SMOOTH",
"379 315 LINE SMOOTH",
"379 279 OFFCURVE",
"373 275 OFFCURVE",
"418 278 CURVE SMOOTH",
"424 278 OFFCURVE",
"429 276 OFFCURVE",
"437 278 CURVE",
"461 279 OFFCURVE",
"465 285 OFFCURVE",
"464 309 CURVE SMOOTH",
"462 325 OFFCURVE",
"461 340 OFFCURVE",
"461 355 CURVE SMOOTH",
"462 380 OFFCURVE",
"464 404 OFFCURVE",
"465 429 CURVE SMOOTH",
"467 455 OFFCURVE",
"460 462 OFFCURVE",
"435 463 CURVE SMOOTH"
);
},
{
closed = 1;
nodes = (
"496 656 OFFCURVE",
"498 679 OFFCURVE",
"500 704 CURVE SMOOTH",
"501 736 OFFCURVE",
"503 769 OFFCURVE",
"504 805 CURVE",
"465 806 OFFCURVE",
"431 809 OFFCURVE",
"395 810 CURVE SMOOTH",
"388 810 OFFCURVE",
"382 805 OFFCURVE",
"382 795 CURVE SMOOTH",
"380 761 OFFCURVE",
"376 730 OFFCURVE",
"373 697 CURVE SMOOTH",
"372 677 OFFCURVE",
"372 658 OFFCURVE",
"370 638 CURVE SMOOTH",
"369 599 OFFCURVE",
"367 561 OFFCURVE",
"366 522 CURVE",
"408 514 OFFCURVE",
"447 520 OFFCURVE",
"486 518 CURVE",
"486 520 OFFCURVE",
"487 521 OFFCURVE",
"487 522 CURVE SMOOTH",
"490 558 OFFCURVE",
"491 596 OFFCURVE",
"494 633 CURVE SMOOTH"
);
},
{
closed = 1;
nodes = (
"406 -71 OFFCURVE",
"438 -70 OFFCURVE",
"470 -71 CURVE SMOOTH",
"481 -71 OFFCURVE",
"487 -66 OFFCURVE",
"487 -54 CURVE SMOOTH",
"487 -34 OFFCURVE",
"487 -14 OFFCURVE",
"486 4 CURVE SMOOTH",
"484 33 OFFCURVE",
"478 60 OFFCURVE",
"478 88 CURVE SMOOTH",
"478 126 OFFCURVE",
"481 165 OFFCURVE",
"481 204 CURVE SMOOTH",
"481 213 OFFCURVE",
"480 221 OFFCURVE",
"480 233 CURVE",
"448 233 LINE",
"378 233 LINE SMOOTH",
"352 233 OFFCURVE",
"352 232 OFFCURVE",
"349 207 CURVE SMOOTH",
"347 175 OFFCURVE",
"357 144 OFFCURVE",
"346 111 CURVE",
"346 109 OFFCURVE",
"347 106 OFFCURVE",
"347 103 CURVE",
"349 93 OFFCURVE",
"350 83 OFFCURVE",
"350 75 CURVE SMOOTH",
"350 -44 LINE SMOOTH",
"350 -61 OFFCURVE",
"357 -70 OFFCURVE",
"375 -70 CURVE SMOOTH"
);
},
{
closed = 1;
nodes = (
"356 448 OFFCURVE",
"360 465 OFFCURVE",
"343 476 CURVE",
"352 495 OFFCURVE",
"359 514 OFFCURVE",
"350 534 CURVE",
"349 538 OFFCURVE",
"352 543 OFFCURVE",
"353 547 CURVE SMOOTH",
"354 557 OFFCURVE",
"357 566 OFFCURVE",
"357 576 CURVE SMOOTH",
"357 596 OFFCURVE",
"354 615 OFFCURVE",
"354 635 CURVE SMOOTH",
"356 659 OFFCURVE",
"357 684 OFFCURVE",
"360 708 CURVE SMOOTH",
"363 737 OFFCURVE",
"357 764 OFFCURVE",
"363 793 CURVE SMOOTH",
"365 808 OFFCURVE",
"357 813 OFFCURVE",
"344 813 CURVE SMOOTH",
"336 812 OFFCURVE",
"327 810 OFFCURVE",
"320 810 CURVE SMOOTH",
"161 810 LINE SMOOTH",
"153 810 OFFCURVE",
"143 809 OFFCURVE",
"134 809 CURVE",
"133 800 OFFCURVE",
"131 795 OFFCURVE",
"131 787 CURVE SMOOTH",
"130 749 OFFCURVE",
"130 710 OFFCURVE",
"128 671 CURVE SMOOTH",
"126 586 OFFCURVE",
"123 499 OFFCURVE",
"121 414 CURVE SMOOTH",
"120 367 OFFCURVE",
"118 319 OFFCURVE",
"117 270 CURVE SMOOTH",
"115 239 OFFCURVE",
"115 206 OFFCURVE",
"111 174 CURVE SMOOTH",
"110 160 OFFCURVE",
"108 145 OFFCURVE",
"120 138 CURVE",
"117 122 OFFCURVE",
"114 109 OFFCURVE",
"111 96 CURVE SMOOTH",
"104 66 OFFCURVE",
"100 36 OFFCURVE",
"113 5 CURVE SMOOTH",
"114 3 OFFCURVE",
"113 -1 OFFCURVE",
"113 -4 CURVE SMOOTH",
"110 -25 OFFCURVE",
"104 -47 OFFCURVE",
"107 -67 CURVE",
"123 -74 OFFCURVE",
"137 -79 OFFCURVE",
"154 -71 CURVE",
"166 -67 OFFCURVE",
"180 -67 OFFCURVE",
"189 -80 CURVE SMOOTH",
"190 -82 OFFCURVE",
"195 -80 OFFCURVE",
"196 -80 CURVE",
"200 -74 OFFCURVE",
"205 -70 OFFCURVE",
"210 -61 CURVE",
"216 -71 OFFCURVE",
"221 -79 OFFCURVE",
"226 -87 CURVE",
"236 -77 OFFCURVE",
"242 -71 OFFCURVE",
"248 -67 CURVE",
"268 -77 OFFCURVE",
"268 -77 OFFCURVE",
"308 -76 CURVE SMOOTH",
"330 -76 OFFCURVE",
"340 -69 OFFCURVE",
"339 -47 CURVE SMOOTH",
"337 31 OFFCURVE",
"344 109 OFFCURVE",
"342 190 CURVE SMOOTH",
"342 207 OFFCURVE",
"344 226 OFFCURVE",
"346 243 CURVE SMOOTH",
"349 305 OFFCURVE",
"352 368 OFFCURVE",
"354 430 CURVE"
);
}
);
vertWidth = 1000;
width = 620;
}
);
note = cid00038;
unicode = 0045;
},
{
glyphname = F;
lastChange = "2020-11-05 19:14:57 +0000";
layers = (
{
layerId = "E107BE24-86B5-4C0E-8944-467415BB13ED";
paths = (
{
closed = 1;
nodes = (
"458 788 LINE",
"413 793 OFFCURVE",
"136 792 OFFCURVE",
"117 787 CURVE",
"117 -57 LINE",
"344 -57 LINE",
"336 36 OFFCURVE",
"342 130 OFFCURVE",
"339 227 CURVE",
"395 227 LINE SMOOTH",
"416 227 OFFCURVE",
"417 228 OFFCURVE",
"418 250 CURVE SMOOTH",
"420 272 OFFCURVE",
"417 295 OFFCURVE",
"421 317 CURVE SMOOTH",
"431 355 OFFCURVE",
"420 391 OFFCURVE",
"421 432 CURVE",
"392 428 OFFCURVE",
"365 442 OFFCURVE",
"342 420 CURVE",
"342 505 LINE",
"380 496 OFFCURVE",
"417 500 OFFCURVE",
"458 500 CURVE"
);
}
);
vertWidth = 1000;
width = 538;
}
);
note = cid00039;
unicode = 0046;
},
{
glyphname = G;
lastChange = "2020-11-05 19:14:57 +0000";
layers = (
{
layerId = "E107BE24-86B5-4C0E-8944-467415BB13ED";
paths = (
{
closed = 1;
nodes = (
"531 -30 OFFCURVE",
"531 -29 OFFCURVE",
"531 -29 CURVE",
"531 -29 OFFCURVE",
"531 -30 OFFCURVE",
"531 -30 CURVE"
);
},
{
closed = 1;
nodes = (
"514 389 OFFCURVE",
"511 440 OFFCURVE",
"510 492 CURVE SMOOTH",
"510 523 OFFCURVE",
"510 554 OFFCURVE",
"508 584 CURVE SMOOTH",
"508 605 OFFCURVE",
"506 625 OFFCURVE",
"506 645 CURVE SMOOTH",
"506 745 LINE",
"511 745 LINE",
"514 680 OFFCURVE",
"516 615 OFFCURVE",
"520 547 CURVE",
"551 547 OFFCURVE",
"578 544 OFFCURVE",
"605 546 CURVE SMOOTH",
"622 547 OFFCURVE",
"628 555 OFFCURVE",
"626 572 CURVE SMOOTH",
"625 607 OFFCURVE",
"622 643 OFFCURVE",
"621 678 CURVE SMOOTH",
"620 709 OFFCURVE",
"621 740 OFFCURVE",
"621 772 CURVE SMOOTH",
"621 779 OFFCURVE",
"620 787 OFFCURVE",
"618 796 CURVE",
"589 796 LINE",
"432 796 LINE SMOOTH",
"415 796 OFFCURVE",
"396 802 OFFCURVE",
"384 782 CURVE",
"384 780 OFFCURVE",
"380 782 OFFCURVE",
"377 780 CURVE",
"360 774 OFFCURVE",
"341 769 OFFCURVE",
"325 761 CURVE SMOOTH",
"293 744 OFFCURVE",
"262 725 OFFCURVE",
"231 706 CURVE SMOOTH",
"220 700 OFFCURVE",
"209 692 OFFCURVE",
"200 681 CURVE SMOOTH",
"173 649 OFFCURVE",
"145 617 OFFCURVE",
"128 576 CURVE SMOOTH",
"106 528 OFFCURVE",
"83 481 OFFCURVE",
"89 425 CURVE SMOOTH",
"90 399 OFFCURVE",
"90 374 OFFCURVE",
"89 347 CURVE SMOOTH",
"87 315 OFFCURVE",
"97 284 OFFCURVE",
"108 253 CURVE SMOOTH",
"116 227 OFFCURVE",
"129 202 OFFCURVE",
"138 177 CURVE SMOOTH",
"156 129 OFFCURVE",
"191 92 OFFCURVE",
"227 60 CURVE SMOOTH",
"259 29 OFFCURVE",
"299 7 OFFCURVE",
"339 -14 CURVE",
"343 -17 OFFCURVE",
"350 -19 OFFCURVE",
"353 -18 CURVE",
"364 -11 OFFCURVE",
"372 -18 OFFCURVE",
"381 -21 CURVE SMOOTH",
"386 -23 OFFCURVE",
"393 -27 OFFCURVE",
"400 -27 CURVE SMOOTH",
"410 -27 OFFCURVE",
"419 -27 OFFCURVE",
"427 -35 CURVE",
"429 -38 OFFCURVE",
"436 -37 OFFCURVE",
"440 -37 CURVE SMOOTH",
"465 -38 OFFCURVE",
"490 -38 OFFCURVE",
"515 -37 CURVE SMOOTH",
"520 -37 OFFCURVE",
"524 -31 OFFCURVE",
"530 -29 CURVE",
"530 -29 OFFCURVE",
"531 -29 OFFCURVE",
"531 -29 CURVE",
"527 -7 OFFCURVE",
"522 14 OFFCURVE",
"522 36 CURVE SMOOTH",
"526 135 OFFCURVE",
"512 236 OFFCURVE",
"514 336 CURVE SMOOTH"
);
},
{
closed = 1;
nodes = (
"528 186 OFFCURVE",
"530 142 OFFCURVE",
"530 99 CURVE SMOOTH",
"530 57 OFFCURVE",
"531 14 OFFCURVE",
"531 -29 CURVE",
"567 -40 OFFCURVE",
"604 -25 OFFCURVE",
"641 -33 CURVE",
"642 -22 OFFCURVE",
"645 -15 OFFCURVE",
"646 -7 CURVE SMOOTH",
"648 19 OFFCURVE",
"648 46 OFFCURVE",
"649 72 CURVE SMOOTH",
"649 94 OFFCURVE",
"649 117 OFFCURVE",
"648 139 CURVE SMOOTH",
"648 176 OFFCURVE",
"648 212 OFFCURVE",
"646 251 CURVE",
"707 251 LINE SMOOTH",
"726 251 OFFCURVE",
"746 249 OFFCURVE",
"764 249 CURVE SMOOTH",
"777 249 OFFCURVE",
"781 255 OFFCURVE",
"781 265 CURVE SMOOTH",
"779 291 OFFCURVE",
"779 315 OFFCURVE",
"779 340 CURVE",
"778 346 OFFCURVE",
"775 351 OFFCURVE",
"774 357 CURVE",
"528 357 LINE",
"526 314 OFFCURVE",
"534 272 OFFCURVE",
"531 229 CURVE SMOOTH"
);
}
);
vertWidth = 1000;
width = 872;
}
);
note = cid00040;
unicode = 0047;
},
{
glyphname = H;
lastChange = "2020-11-05 19:14:57 +0000";
layers = (
{
layerId = "E107BE24-86B5-4C0E-8944-467415BB13ED";
paths = (
{
closed = 1;
nodes = (
"393 759 LINE SMOOTH",
"383 759 OFFCURVE",
"377 753 OFFCURVE",
"377 744 CURVE",
"376 739 OFFCURVE",
"376 732 OFFCURVE",
"376 726 CURVE SMOOTH",
"376 501 LINE",
"376 471 LINE",
"306 471 LINE",
"308 484 OFFCURVE",
"319 500 OFFCURVE",
"310 517 CURVE SMOOTH",
"308 520 OFFCURVE",
"311 524 OFFCURVE",
"312 526 CURVE",
"314 545 OFFCURVE",
"315 564 OFFCURVE",
"316 584 CURVE SMOOTH",
"316 590 OFFCURVE",
"314 597 OFFCURVE",
"314 603 CURVE SMOOTH",
"315 637 OFFCURVE",
"318 670 OFFCURVE",
"319 703 CURVE SMOOTH",
"319 760 LINE",
"144 760 LINE SMOOTH",
"120 759 OFFCURVE",
"120 759 OFFCURVE",
"119 735 CURVE SMOOTH",
"117 679 OFFCURVE",
"116 623 OFFCURVE",
"113 568 CURVE SMOOTH",
"112 499 OFFCURVE",
"111 430 OFFCURVE",
"108 361 CURVE SMOOTH",
"107 310 OFFCURVE",
"107 258 OFFCURVE",
"101 208 CURVE SMOOTH",
"100 191 OFFCURVE",
"99 178 OFFCURVE",
"109 168 CURVE",
"103 148 OFFCURVE",
"99 131 OFFCURVE",
"97 112 CURVE SMOOTH",
"96 78 OFFCURVE",
"101 42 OFFCURVE",
"99 6 CURVE",
"96 -13 OFFCURVE",
"115 -19 OFFCURVE",
"132 -17 CURVE",
"141 -14 OFFCURVE",
"153 -10 OFFCURVE",
"160 -14 CURVE SMOOTH",
"173 -21 OFFCURVE",
"180 -14 OFFCURVE",
"188 -7 CURVE",
"194 -11 OFFCURVE",
"202 -18 OFFCURVE",
"203 -17 CURVE SMOOTH",
"218 -5 OFFCURVE",
"230 -18 OFFCURVE",
"242 -18 CURVE SMOOTH",
"254 -18 OFFCURVE",
"264 -19 OFFCURVE",
"275 -18 CURVE SMOOTH",
"290 -17 OFFCURVE",
"296 -11 OFFCURVE",
"296 2 CURVE SMOOTH",
"299 38 OFFCURVE",
"300 74 OFFCURVE",
"302 110 CURVE SMOOTH",
"302 143 OFFCURVE",
"303 178 OFFCURVE",
"303 212 CURVE SMOOTH",
"304 229 OFFCURVE",
"306 247 OFFCURVE",
"307 264 CURVE",
"384 264 LINE",
"384 212 LINE SMOOTH",
"383 148 OFFCURVE",
"383 86 OFFCURVE",
"381 22 CURVE SMOOTH",
"381 10 OFFCURVE",
"384 0 OFFCURVE",
"385 -11 CURVE",
"576 -11 LINE",
"576 759 LINE"
);
}
);
vertWidth = 1000;
width = 669;
}
);
note = cid00041;
unicode = 0048;
},
{
glyphname = I;
lastChange = "2020-11-05 19:14:57 +0000";
layers = (
{
layerId = "E107BE24-86B5-4C0E-8944-467415BB13ED";
paths = (
{
closed = 1;
nodes = (
"362 655 OFFCURVE",
"365 722 OFFCURVE",
"362 790 CURVE",
"162 790 LINE",
"160 731 OFFCURVE",
"156 672 OFFCURVE",
"156 614 CURVE SMOOTH",
"153 537 OFFCURVE",
"154 461 OFFCURVE",
"153 384 CURVE SMOOTH",
"153 376 OFFCURVE",
"152 368 OFFCURVE",
"150 360 CURVE SMOOTH",
"149 351 OFFCURVE",
"144 341 OFFCURVE",
"144 332 CURVE SMOOTH",
"144 2 LINE SMOOTH",
"144 -4 OFFCURVE",
"145 -12 OFFCURVE",
"146 -18 CURVE",
"356 -18 LINE",
"366 49 OFFCURVE",
"362 116 OFFCURVE",
"362 183 CURVE SMOOTH",
"364 250 OFFCURVE",
"364 319 OFFCURVE",
"364 386 CURVE SMOOTH",
"364 588 LINE SMOOTH"
);
}
);
vertWidth = 1000;
width = 515;
}
);
note = cid00042;
unicode = 0049;
},
{
glyphname = J;
lastChange = "2020-11-05 19:14:57 +0000";
layers = (
{
layerId = "E107BE24-86B5-4C0E-8944-467415BB13ED";
paths = (
{
closed = 1;
nodes = (
"422 -38 OFFCURVE",
"451 -3 OFFCURVE",
"478 35 CURVE SMOOTH",
"493 57 OFFCURVE",
"499 79 OFFCURVE",
"496 106 CURVE SMOOTH",
"495 124 OFFCURVE",
"496 143 OFFCURVE",
"496 163 CURVE SMOOTH",
"496 791 LINE SMOOTH",
"496 798 OFFCURVE",
"495 803 OFFCURVE",
"494 810 CURVE",
"315 810 LINE",
"315 778 LINE SMOOTH",
"315 709 OFFCURVE",
"314 641 OFFCURVE",
"315 571 CURVE SMOOTH",
"316 516 OFFCURVE",
"320 461 OFFCURVE",
"321 405 CURVE SMOOTH",
"322 326 OFFCURVE",
"321 247 OFFCURVE",
"321 169 CURVE SMOOTH",
"321 158 OFFCURVE",
"324 147 OFFCURVE",
"325 138 CURVE",
"250 136 OFFCURVE",
"175 133 OFFCURVE",
"96 131 CURVE",
"96 115 OFFCURVE",
"93 101 OFFCURVE",
"97 91 CURVE SMOOTH",
"109 58 OFFCURVE",
"121 24 OFFCURVE",
"145 -3 CURVE SMOOTH",
"176 -38 OFFCURVE",
"211 -65 OFFCURVE",
"263 -63 CURVE SMOOTH",
"293 -61 OFFCURVE",
"324 -59 OFFCURVE",
"354 -61 CURVE",
"363 -63 OFFCURVE",
"372 -60 OFFCURVE",
"378 -57 CURVE SMOOTH"
);
}
);
vertWidth = 1000;
width = 594;
}
);
note = cid00043;
unicode = 004A;
},
{
glyphname = K;
lastChange = "2020-11-05 19:14:57 +0000";
layers = (
{
layerId = "E107BE24-86B5-4C0E-8944-467415BB13ED";
paths = (
{
closed = 1;
nodes = (
"90 -30 OFFCURVE",
"93 -40 OFFCURVE",
"93 -48 CURVE",
"127 -50 OFFCURVE",
"162 -51 OFFCURVE",
"199 -41 CURVE",
"206 -53 OFFCURVE",
"218 -54 OFFCURVE",
"227 -41 CURVE",
"238 -44 OFFCURVE",
"247 -48 OFFCURVE",
"255 -50 CURVE",
"268 -51 OFFCURVE",
"280 -50 OFFCURVE",
"293 -50 CURVE SMOOTH",
"309 -48 OFFCURVE",
"315 -44 OFFCURVE",
"316 -26 CURVE SMOOTH",
"318 45 OFFCURVE",
"320 116 OFFCURVE",
"322 190 CURVE",
"329 185 OFFCURVE",
"330 180 OFFCURVE",
"331 176 CURVE",
"343 147 OFFCURVE",
"355 119 OFFCURVE",
"377 95 CURVE SMOOTH",
"391 81 OFFCURVE",
"408 66 OFFCURVE",
"425 52 CURVE SMOOTH",
"451 33 OFFCURVE",
"475 8 OFFCURVE",
"511 2 CURVE SMOOTH",
"519 1 OFFCURVE",
"527 -1 OFFCURVE",
"530 -12 CURVE SMOOTH",
"534 -28 OFFCURVE",
"551 -30 OFFCURVE",
"561 -32 CURVE",
"594 -35 OFFCURVE",
"626 -33 OFFCURVE",
"661 -33 CURVE",
"665 -7 OFFCURVE",
"669 640 OFFCURVE",
"659 662 CURVE",
"593 655 OFFCURVE",
"526 651 OFFCURVE",
"466 613 CURVE SMOOTH",
"408 576 OFFCURVE",
"358 534 OFFCURVE",
"331 468 CURVE",
"327 476 OFFCURVE",
"326 484 OFFCURVE",
"327 491 CURVE SMOOTH",
"327 499 OFFCURVE",
"333 508 OFFCURVE",
"331 515 CURVE SMOOTH",
"327 536 OFFCURVE",
"331 556 OFFCURVE",
"333 577 CURVE SMOOTH",
"334 618 OFFCURVE",
"337 658 OFFCURVE",
"340 697 CURVE SMOOTH",
"340 716 OFFCURVE",
"341 734 OFFCURVE",
"340 752 CURVE",
"338 762 OFFCURVE",
"337 770 OFFCURVE",
"340 781 CURVE SMOOTH",
"344 797 OFFCURVE",
"337 804 OFFCURVE",
"319 804 CURVE SMOOTH",
"283 802 OFFCURVE",
"247 802 OFFCURVE",
"209 802 CURVE SMOOTH",
"120 802 LINE",
"119 791 OFFCURVE",
"118 783 OFFCURVE",
"118 775 CURVE SMOOTH",
"119 756 OFFCURVE",
"120 737 OFFCURVE",
"120 718 CURVE SMOOTH",
"118 662 OFFCURVE",
"113 608 OFFCURVE",
"112 552 CURVE SMOOTH",
"111 459 OFFCURVE",
"109 366 OFFCURVE",
"108 272 CURVE SMOOTH",
"106 244 OFFCURVE",
"104 215 OFFCURVE",
"102 185 CURVE SMOOTH",
"101 174 OFFCURVE",
"99 162 OFFCURVE",
"108 158 CURVE",
"105 137 OFFCURVE",
"99 117 OFFCURVE",
"98 99 CURVE SMOOTH",
"97 77 OFFCURVE",
"87 54 OFFCURVE",
"102 30 CURVE",
"104 29 OFFCURVE",
"105 23 OFFCURVE",
"104 20 CURVE SMOOTH",
"98 5 OFFCURVE",
"106 -12 OFFCURVE",
"93 -28 CURVE"
);
}
);
vertWidth = 1000;
width = 769;
}
);
note = cid00044;
unicode = 004B;
},
{
glyphname = L;
lastChange = "2020-11-05 19:14:57 +0000";
layers = (
{
layerId = "E107BE24-86B5-4C0E-8944-467415BB13ED";
paths = (
{
closed = 1;
nodes = (
"130 -67 OFFCURVE",
"134 -66 OFFCURVE",
"137 -69 CURVE SMOOTH",
"148 -80 OFFCURVE",
"159 -80 OFFCURVE",
"173 -71 CURVE",
"184 -66 OFFCURVE",
"198 -64 OFFCURVE",
"208 -76 CURVE SMOOTH",
"209 -77 OFFCURVE",
"212 -77 OFFCURVE",
"213 -77 CURVE",
"219 -73 OFFCURVE",
"224 -67 OFFCURVE",
"230 -63 CURVE",
"241 -67 OFFCURVE",
"252 -77 OFFCURVE",
"264 -66 CURVE",
"266 -66 OFFCURVE",
"270 -66 OFFCURVE",
"273 -69 CURVE SMOOTH",
"289 -82 OFFCURVE",
"310 -78 OFFCURVE",
"329 -78 CURVE SMOOTH",
"346 -78 OFFCURVE",
"353 -70 OFFCURVE",
"354 -53 CURVE SMOOTH",
"356 -1 OFFCURVE",
"358 51 OFFCURVE",
"360 101 CURVE SMOOTH",
"361 123 OFFCURVE",
"361 144 OFFCURVE",
"362 166 CURVE SMOOTH",
"362 218 LINE",
"364 243 OFFCURVE",
"368 268 OFFCURVE",
"368 293 CURVE SMOOTH",
"365 340 OFFCURVE",
"367 387 OFFCURVE",
"374 434 CURVE SMOOTH",
"376 451 OFFCURVE",
"378 469 OFFCURVE",
"362 480 CURVE",
"368 501 OFFCURVE",
"382 517 OFFCURVE",
"368 538 CURVE SMOOTH",
"367 539 OFFCURVE",
"367 543 OFFCURVE",
"368 545 CURVE",
"380 559 OFFCURVE",
"375 574 OFFCURVE",
"376 589 CURVE SMOOTH",
"376 606 OFFCURVE",
"374 621 OFFCURVE",
"374 638 CURVE SMOOTH",
"376 692 OFFCURVE",
"379 747 OFFCURVE",
"382 801 CURVE SMOOTH",
"382 812 OFFCURVE",
"376 819 OFFCURVE",
"369 823 CURVE",
"297 805 OFFCURVE",
"225 827 OFFCURVE",
"155 813 CURVE",
"154 811 OFFCURVE",
"152 806 OFFCURVE",
"152 802 CURVE SMOOTH",
"151 770 OFFCURVE",
"151 740 OFFCURVE",
"149 710 CURVE SMOOTH",
"148 658 OFFCURVE",
"148 606 OFFCURVE",
"147 553 CURVE SMOOTH",
"144 499 OFFCURVE",
"140 444 OFFCURVE",
"138 390 CURVE SMOOTH",
"137 326 OFFCURVE",
"137 263 OFFCURVE",
"136 199 CURVE SMOOTH",
"136 180 OFFCURVE",
"124 159 OFFCURVE",
"141 139 CURVE",
"141 139 OFFCURVE",
"141 137 OFFCURVE",
"140 135 CURVE SMOOTH",
"136 121 OFFCURVE",
"130 108 OFFCURVE",
"127 92 CURVE SMOOTH",
"124 72 OFFCURVE",
"119 51 OFFCURVE",
"134 33 CURVE",
"131 27 OFFCURVE",
"126 19 OFFCURVE",
"127 18 CURVE SMOOTH",
"138 8 OFFCURVE",
"133 -2 OFFCURVE",
"131 -13 CURVE SMOOTH",
"130 -22 OFFCURVE",
"133 -28 OFFCURVE",
"131 -37 CURVE SMOOTH",
"130 -46 OFFCURVE",
"126 -55 OFFCURVE",
"123 -64 CURVE"
);
},
{
closed = 1;
nodes = (
"371 -74 OFFCURVE",
"375 -78 OFFCURVE",
"394 -78 CURVE SMOOTH",
"465 -78 LINE SMOOTH",
"490 -78 OFFCURVE",
"494 -74 OFFCURVE",
"495 -48 CURVE SMOOTH",
"498 7 OFFCURVE",
"502 62 OFFCURVE",
"505 117 CURVE SMOOTH",
"506 149 OFFCURVE",
"505 181 OFFCURVE",
"505 213 CURVE",
"464 220 OFFCURVE",
"423 217 OFFCURVE",
"382 216 CURVE",
"380 200 OFFCURVE",
"380 189 OFFCURVE",
"379 177 CURVE SMOOTH",
"379 156 OFFCURVE",
"382 135 OFFCURVE",
"379 116 CURVE SMOOTH",
"368 58 OFFCURVE",
"371 2 OFFCURVE",
"371 -55 CURVE SMOOTH"
);
}
);
vertWidth = 1000;
width = 606;
}
);
note = cid00045;
unicode = 004C;
},
{
glyphname = M;
lastChange = "2020-11-05 19:14:57 +0000";
layers = (
{
layerId = "E107BE24-86B5-4C0E-8944-467415BB13ED";
paths = (
{
closed = 1;
nodes = (
"680 770 OFFCURVE",
"638 821 OFFCURVE",
"574 815 CURVE SMOOTH",
"561 813 OFFCURVE",
"548 815 OFFCURVE",
"537 815 CURVE SMOOTH",
"489 816 OFFCURVE",
"454 792 OFFCURVE",
"427 757 CURVE SMOOTH",
"419 746 OFFCURVE",
"412 733 OFFCURVE",
"403 719 CURVE",
"391 751 OFFCURVE",
"374 773 OFFCURVE",
"353 792 CURVE SMOOTH",
"337 807 OFFCURVE",
"318 815 OFFCURVE",
"295 815 CURVE SMOOTH",
"223 815 LINE SMOOTH",
"199 815 OFFCURVE",
"180 805 OFFCURVE",
"164 789 CURVE SMOOTH",
"147 772 OFFCURVE",
"134 751 OFFCURVE",
"116 730 CURVE",
"115 730 OFFCURVE",
"108 732 OFFCURVE",
"105 732 CURVE",
"103 714 OFFCURVE",
"102 700 OFFCURVE",
"102 685 CURVE SMOOTH",
"103 677 OFFCURVE",
"107 669 OFFCURVE",
"108 661 CURVE SMOOTH",
"108 658 OFFCURVE",
"111 653 OFFCURVE",
"111 650 CURVE SMOOTH",
"110 583 OFFCURVE",
"108 517 OFFCURVE",
"107 450 CURVE SMOOTH",
"107 415 OFFCURVE",
"105 378 OFFCURVE",
"103 343 CURVE SMOOTH",
"103 315 OFFCURVE",
"100 290 OFFCURVE",
"103 264 CURVE SMOOTH",
"108 215 OFFCURVE",
"84 165 OFFCURVE",
"103 117 CURVE",
"103 114 OFFCURVE",
"103 112 OFFCURVE",
"102 109 CURVE",
"92 90 OFFCURVE",
"91 67 OFFCURVE",
"92 43 CURVE SMOOTH",
"92 -36 LINE SMOOTH",
"92 -53 OFFCURVE",
"108 -65 OFFCURVE",
"124 -57 CURVE SMOOTH",
"137 -50 OFFCURVE",
"150 -49 OFFCURVE",
"159 -60 CURVE",
"166 -55 OFFCURVE",
"171 -52 OFFCURVE",
"177 -47 CURVE",
"180 -52 OFFCURVE",
"182 -57 OFFCURVE",
"183 -60 CURVE",
"191 -57 OFFCURVE",
"198 -52 OFFCURVE",
"206 -49 CURVE",
"214 -65 OFFCURVE",
"230 -61 OFFCURVE",
"243 -61 CURVE SMOOTH",
"270 -61 OFFCURVE",
"276 -55 OFFCURVE",
"278 -29 CURVE SMOOTH",
"279 11 OFFCURVE",
"279 51 OFFCURVE",
"281 91 CURVE",
"283 104 OFFCURVE",
"286 118 OFFCURVE",
"286 133 CURVE SMOOTH",
"286 163 OFFCURVE",
"284 194 OFFCURVE",
"284 224 CURVE SMOOTH",
"283 279 OFFCURVE",
"302 335 OFFCURVE",
"284 391 CURVE",
"292 407 OFFCURVE",
"291 424 OFFCURVE",
"289 442 CURVE",
"289 463 OFFCURVE",
"292 482 OFFCURVE",
"294 503 CURVE SMOOTH",
"295 538 OFFCURVE",
"297 571 OFFCURVE",
"299 610 CURVE",
"326 563 OFFCURVE",
"358 530 OFFCURVE",
"415 533 CURVE SMOOTH",
"468 535 OFFCURVE",
"499 567 OFFCURVE",
"521 616 CURVE",
"521 -47 LINE",
"531 -49 OFFCURVE",
"537 -50 OFFCURVE",
"542 -50 CURVE SMOOTH",
"566 -52 OFFCURVE",
"588 -53 OFFCURVE",
"611 -57 CURVE",
"632 -58 OFFCURVE",
"651 -60 OFFCURVE",
"672 -61 CURVE SMOOTH",
"694 -61 OFFCURVE",
"696 -58 OFFCURVE",
"696 -36 CURVE SMOOTH",
"699 5 OFFCURVE",
"700 46 OFFCURVE",
"702 86 CURVE SMOOTH",
"702 152 OFFCURVE",
"704 219 OFFCURVE",
"704 287 CURVE SMOOTH",
"704 338 OFFCURVE",
"702 389 OFFCURVE",
"702 440 CURVE SMOOTH",
"702 479 OFFCURVE",
"708 517 OFFCURVE",
"702 552 CURVE SMOOTH",
"696 586 OFFCURVE",
"705 618 OFFCURVE",
"699 651 CURVE SMOOTH",
"699 653 OFFCURVE",
"700 658 OFFCURVE",
"704 659 CURVE",
"715 667 OFFCURVE",
"713 679 OFFCURVE",
"710 690 CURVE SMOOTH",
"705 703 OFFCURVE",
"702 716 OFFCURVE",
"697 728 CURVE SMOOTH"
);
}
);
vertWidth = 1000;
width = 783;
}
);
note = cid00046;
unicode = 004D;
},
{
glyphname = N;
lastChange = "2020-11-05 19:14:57 +0000";
layers = (
{
layerId = "E107BE24-86B5-4C0E-8944-467415BB13ED";
paths = (
{
closed = 1;
nodes = (
"110 285 LINE",
"110 -1 LINE SMOOTH",
"110 -26 OFFCURVE",
"111 -28 OFFCURVE",
"135 -28 CURVE SMOOTH",
"277 -28 LINE SMOOTH",
"283 -28 OFFCURVE",
"290 -26 OFFCURVE",
"300 -26 CURVE",
"302 52 OFFCURVE",
"306 129 OFFCURVE",
"309 206 CURVE",
"344 132 OFFCURVE",
"376 59 OFFCURVE",
"407 -15 CURVE SMOOTH",
"411 -25 OFFCURVE",
"417 -28 OFFCURVE",
"426 -28 CURVE",
"458 -32 OFFCURVE",
"492 -24 OFFCURVE",
"526 -26 CURVE SMOOTH",
"550 -29 OFFCURVE",
"577 -24 OFFCURVE",
"601 -22 CURVE SMOOTH",
"609 -22 OFFCURVE",
"616 -21 OFFCURVE",
"622 -21 CURVE",
"622 768 LINE",
"593 768 LINE SMOOTH",
"543 766 OFFCURVE",
"493 765 OFFCURVE",
"442 765 CURVE SMOOTH",
"414 765 OFFCURVE",
"413 765 OFFCURVE",
"413 737 CURVE SMOOTH",
"413 531 LINE",
"413 504 LINE",
"409 504 LINE",
"372 592 OFFCURVE",
"336 679 OFFCURVE",
"300 765 CURVE",
"110 765 LINE",
"110 734 LINE"
);
}
);
vertWidth = 1000;
width = 722;
}
);
note = cid00047;
unicode = 004E;
},
{
glyphname = O;
lastChange = "2020-11-05 19:14:57 +0000";
layers = (
{
layerId = "E107BE24-86B5-4C0E-8944-467415BB13ED";
paths = (
{
closed = 1;
nodes = (
"345 -14 OFFCURVE",
"384 -18 OFFCURVE",
"421 -23 CURVE SMOOTH",
"434 -26 OFFCURVE",
"448 -22 OFFCURVE",
"449 -5 CURVE SMOOTH",
"451 20 OFFCURVE",
"458 51 OFFCURVE",
"448 72 CURVE SMOOTH",
"431 108 OFFCURVE",
"444 141 OFFCURVE",
"445 176 CURVE SMOOTH",
"445 181 OFFCURVE",
"448 186 OFFCURVE",
"448 191 CURVE SMOOTH",
"444 268 OFFCURVE",
"439 345 OFFCURVE",
"436 420 CURVE SMOOTH",
"435 445 OFFCURVE",
"442 470 OFFCURVE",
"443 495 CURVE SMOOTH",
"445 537 OFFCURVE",
"447 578 OFFCURVE",
"448 620 CURVE SMOOTH",
"451 667 OFFCURVE",
"453 713 OFFCURVE",
"455 765 CURVE",
"427 765 OFFCURVE",
"401 770 OFFCURVE",
"379 765 CURVE SMOOTH",
"232 729 OFFCURVE",
"121 650 OFFCURVE",
"58 508 CURVE SMOOTH",
"52 493 OFFCURVE",
"48 473 OFFCURVE",
"48 456 CURVE SMOOTH",
"47 398 OFFCURVE",
"47 339 OFFCURVE",
"47 280 CURVE",
"48 269 OFFCURVE",
"45 256 OFFCURVE",
"51 247 CURVE",
"73 203 OFFCURVE",
"88 155 OFFCURVE",
"123 117 CURVE SMOOTH",
"177 61 OFFCURVE",
"239 21 OFFCURVE",
"310 -3 CURVE SMOOTH"
);
},
{
closed = 1;
nodes = (
"888 396 OFFCURVE",
"892 419 OFFCURVE",
"887 438 CURVE SMOOTH",
"860 537 OFFCURVE",
"817 625 OFFCURVE",
"727 685 CURVE SMOOTH",
"660 729 OFFCURVE",
"587 750 OFFCURVE",
"508 752 CURVE",
"497 754 OFFCURVE",
"487 748 OFFCURVE",
"474 744 CURVE",
"482 483 OFFCURVE",
"490 225 OFFCURVE",
"496 -35 CURVE",
"536 -35 OFFCURVE",
"567 -42 OFFCURVE",
"596 -34 CURVE SMOOTH",
"684 -12 OFFCURVE",
"761 32 OFFCURVE",
"817 106 CURVE SMOOTH",
"864 171 OFFCURVE",
"900 238 OFFCURVE",
"890 321 CURVE SMOOTH",
"887 339 OFFCURVE",
"888 358 OFFCURVE",
"888 376 CURVE SMOOTH"
);
}
);
vertWidth = 1000;
width = 940;
}
);
note = cid00048;
unicode = 004F;
},
{
glyphname = P;
lastChange = "2020-11-05 19:14:57 +0000";
layers = (
{
layerId = "E107BE24-86B5-4C0E-8944-467415BB13ED";
paths = (
{
closed = 1;
nodes = (
"338 334 OFFCURVE",
"343 327 OFFCURVE",
"360 330 CURVE SMOOTH",
"380 334 OFFCURVE",
"402 338 OFFCURVE",
"421 345 CURVE SMOOTH",
"453 357 OFFCURVE",
"482 375 OFFCURVE",
"506 400 CURVE SMOOTH",
"538 431 OFFCURVE",
"565 466 OFFCURVE",
"561 515 CURVE SMOOTH",
"559 549 OFFCURVE",
"563 583 OFFCURVE",
"560 616 CURVE SMOOTH",
"559 632 OFFCURVE",
"555 651 OFFCURVE",
"547 666 CURVE SMOOTH",
"538 685 OFFCURVE",
"525 702 OFFCURVE",
"512 718 CURVE SMOOTH",
"502 732 OFFCURVE",
"491 744 OFFCURVE",
"479 752 CURVE SMOOTH",
"461 765 OFFCURVE",
"442 776 OFFCURVE",
"423 783 CURVE SMOOTH",
"396 794 OFFCURVE",
"369 803 OFFCURVE",
"338 794 CURVE",
"337 775 OFFCURVE",
"335 755 OFFCURVE",
"334 735 CURVE",
"331 751 OFFCURVE",
"331 768 OFFCURVE",
"331 783 CURVE SMOOTH",
"330 800 OFFCURVE",
"324 805 OFFCURVE",
"309 802 CURVE SMOOTH",
"277 794 OFFCURVE",
"245 799 OFFCURVE",
"213 800 CURVE SMOOTH",
"181 801 OFFCURVE",
"149 800 OFFCURVE",
"117 800 CURVE",
"116 793 OFFCURVE",
"114 790 OFFCURVE",
"114 787 CURVE SMOOTH",
"113 736 OFFCURVE",
"112 684 OFFCURVE",
"111 633 CURVE SMOOTH",
"109 600 OFFCURVE",
"109 567 OFFCURVE",
"108 534 CURVE SMOOTH",
"106 448 OFFCURVE",
"103 363 OFFCURVE",
"100 278 CURVE SMOOTH",
"98 251 OFFCURVE",
"100 223 OFFCURVE",
"94 197 CURVE",
"92 180 OFFCURVE",
"93 167 OFFCURVE",
"101 160 CURVE",
"97 146 OFFCURVE",
"93 136 OFFCURVE",
"93 127 CURVE SMOOTH",
"92 73 OFFCURVE",
"93 20 OFFCURVE",
"93 -33 CURVE SMOOTH",
"93 -35 OFFCURVE",
"94 -38 OFFCURVE",
"95 -42 CURVE",
"127 -43 OFFCURVE",
"159 -47 OFFCURVE",
"186 -38 CURVE",
"199 -39 OFFCURVE",
"210 -44 OFFCURVE",
"216 -40 CURVE",
"225 -37 OFFCURVE",
"230 -42 OFFCURVE",
"235 -42 CURVE SMOOTH",
"257 -43 OFFCURVE",
"279 -43 OFFCURVE",
"305 -43 CURVE",
"305 -28 OFFCURVE",
"306 -16 OFFCURVE",
"307 -4 CURVE SMOOTH",
"309 27 OFFCURVE",
"313 59 OFFCURVE",
"313 91 CURVE SMOOTH",
"317 170 OFFCURVE",
"317 250 OFFCURVE",
"319 328 CURVE SMOOTH",
"320 365 OFFCURVE",
"323 402 OFFCURVE",
"323 438 CURVE SMOOTH",
"324 451 OFFCURVE",
"329 466 OFFCURVE",
"317 477 CURVE SMOOTH",
"316 478 OFFCURVE",
"317 483 OFFCURVE",
"318 486 CURVE SMOOTH",
"322 502 OFFCURVE",
"328 519 OFFCURVE",
"320 535 CURVE",
"319 539 OFFCURVE",
"321 544 OFFCURVE",
"323 549 CURVE SMOOTH",
"330 571 OFFCURVE",
"330 594 OFFCURVE",
"324 616 CURVE SMOOTH",
"323 621 OFFCURVE",
"324 626 OFFCURVE",
"324 631 CURVE",
"326 643 OFFCURVE",
"329 655 OFFCURVE",
"330 668 CURVE SMOOTH",
"331 683 OFFCURVE",
"331 698 OFFCURVE",
"331 713 CURVE",
"335 705 OFFCURVE",
"337 697 OFFCURVE",
"337 689 CURVE SMOOTH",
"335 584 OFFCURVE",
"334 479 OFFCURVE",
"333 373 CURVE SMOOTH",
"333 365 OFFCURVE",
"333 358 OFFCURVE",
"334 350 CURVE SMOOTH"
);
}
);
vertWidth = 1000;
width = 669;
}
);
note = cid00049;
unicode = 0050;
},
{
glyphname = Q;
lastChange = "2020-11-05 19:14:57 +0000";
layers = (
{
layerId = "E107BE24-86B5-4C0E-8944-467415BB13ED";
paths = (
{
closed = 1;
nodes = (
"897 217 OFFCURVE",
"913 269 OFFCURVE",
"916 323 CURVE SMOOTH",
"923 432 OFFCURVE",
"892 530 OFFCURVE",
"813 611 CURVE SMOOTH",
"747 677 OFFCURVE",
"671 717 OFFCURVE",
"583 737 CURVE SMOOTH",
"558 743 OFFCURVE",
"530 745 OFFCURVE",
"502 731 CURVE",
"506 620 OFFCURVE",
"506 510 OFFCURVE",
"515 400 CURVE SMOOTH",
"523 307 OFFCURVE",
"513 220 OFFCURVE",
"474 132 CURVE",
"472 139 OFFCURVE",
"471 143 OFFCURVE",
"472 146 CURVE",
"475 215 OFFCURVE",
"479 285 OFFCURVE",
"480 355 CURVE SMOOTH",
"483 474 OFFCURVE",
"484 592 OFFCURVE",
"487 710 CURVE SMOOTH",
"487 741 OFFCURVE",
"483 749 OFFCURVE",
"451 748 CURVE SMOOTH",
"416 747 OFFCURVE",
"378 744 OFFCURVE",
"344 735 CURVE SMOOTH",
"273 716 OFFCURVE",
"213 680 OFFCURVE",
"166 623 CURVE SMOOTH",
"101 544 OFFCURVE",
"53 458 OFFCURVE",
"61 350 CURVE SMOOTH",
"62 338 OFFCURVE",
"61 326 OFFCURVE",
"61 314 CURVE SMOOTH",
"61 307 OFFCURVE",
"61 300 OFFCURVE",
"63 293 CURVE",
"82 252 OFFCURVE",
"101 209 OFFCURVE",
"124 168 CURVE SMOOTH",
"179 77 OFFCURVE",
"250 7 OFFCURVE",
"358 -19 CURVE SMOOTH",
"389 -27 OFFCURVE",
"421 -32 OFFCURVE",
"456 -41 CURVE",
"462 4 OFFCURVE",
"467 43 OFFCURVE",
"472 84 CURVE",
"490 78 OFFCURVE",
"503 74 OFFCURVE",
"521 70 CURVE",
"521 -35 LINE",
"599 -46 OFFCURVE",
"667 -35 OFFCURVE",
"730 4 CURVE SMOOTH",
"740 10 OFFCURVE",
"753 8 OFFCURVE",
"764 7 CURVE SMOOTH",
"804 0 OFFCURVE",
"843 -6 OFFCURVE",
"882 -15 CURVE SMOOTH",
"901 -19 OFFCURVE",
"915 -14 OFFCURVE",
"920 3 CURVE SMOOTH",
"934 49 OFFCURVE",
"951 93 OFFCURVE",
"938 144 CURVE",
"916 152 OFFCURVE",
"893 160 OFFCURVE",
"869 168 CURVE"
);
}
);
vertWidth = 1000;
width = 1000;
}
);
note = cid00050;
unicode = 0051;
},
{
glyphname = R;
lastChange = "2020-11-05 19:14:57 +0000";
layers = (
{
layerId = "E107BE24-86B5-4C0E-8944-467415BB13ED";
paths = (
{
closed = 1;
nodes = (
"542 722 OFFCURVE",
"506 752 OFFCURVE",
"457 769 CURVE",
"443 781 OFFCURVE",
"440 781 OFFCURVE",
"440 781 CURVE",
"436 782 OFFCURVE",
"428 783 OFFCURVE",
"423 787 CURVE SMOOTH",
"408 796 OFFCURVE",
"394 793 OFFCURVE",
"378 790 CURVE SMOOTH",
"363 786 OFFCURVE",
"359 778 OFFCURVE",
"361 764 CURVE SMOOTH",
"363 753 OFFCURVE",
"364 744 OFFCURVE",
"364 734 CURVE SMOOTH",
"364 717 OFFCURVE",
"361 700 OFFCURVE",
"361 684 CURVE SMOOTH",
"363 606 OFFCURVE",
"364 530 OFFCURVE",
"365 454 CURVE SMOOTH",
"366 424 OFFCURVE",
"370 396 OFFCURVE",
"372 366 CURVE SMOOTH",
"373 353 OFFCURVE",
"375 335 OFFCURVE",
"369 326 CURVE",
"354 309 OFFCURVE",
"365 300 OFFCURVE",
"375 288 CURVE",
"365 282 OFFCURVE",
"360 275 OFFCURVE",
"361 262 CURVE SMOOTH",
"364 239 OFFCURVE",
"364 216 OFFCURVE",
"365 191 CURVE SMOOTH",
"368 145 OFFCURVE",
"369 98 OFFCURVE",
"373 53 CURVE SMOOTH",
"375 20 OFFCURVE",
"372 -14 OFFCURVE",
"382 -48 CURVE SMOOTH",
"388 -67 OFFCURVE",
"392 -71 OFFCURVE",
"412 -71 CURVE SMOOTH",
"440 -71 OFFCURVE",
"467 -72 OFFCURVE",
"496 -71 CURVE SMOOTH",
"507 -71 OFFCURVE",
"519 -66 OFFCURVE",
"532 -63 CURVE",
"532 -22 LINE SMOOTH",
"529 91 OFFCURVE",
"536 204 OFFCURVE",
"527 318 CURVE SMOOTH",
"524 348 OFFCURVE",
"523 352 OFFCURVE",
"493 352 CURVE SMOOTH",
"436 352 LINE",
"466 361 OFFCURVE",
"494 371 OFFCURVE",
"518 392 CURVE SMOOTH",
"538 410 OFFCURVE",
"559 430 OFFCURVE",
"573 454 CURVE",
"590 477 OFFCURVE",
"596 507 OFFCURVE",
"592 536 CURVE SMOOTH",
"590 557 OFFCURVE",
"591 579 OFFCURVE",
"592 600 CURVE SMOOTH",
"595 631 OFFCURVE",
"581 656 OFFCURVE",
"567 681 CURVE SMOOTH"
);
},
{
closed = 1;
nodes = (
"347 324 OFFCURVE",
"346 335 OFFCURVE",
"346 345 CURVE SMOOTH",
"347 384 OFFCURVE",
"351 424 OFFCURVE",
"351 464 CURVE SMOOTH",
"351 507 OFFCURVE",
"343 549 OFFCURVE",
"347 592 CURVE SMOOTH",
"351 635 OFFCURVE",
"352 677 OFFCURVE",
"350 720 CURVE SMOOTH",
"350 744 OFFCURVE",
"346 768 OFFCURVE",
"343 792 CURVE",
"115 792 LINE",
"115 -70 LINE",
"338 -70 LINE",
"339 -63 OFFCURVE",
"343 -58 OFFCURVE",
"343 -52 CURVE SMOOTH",
"346 -1 OFFCURVE",
"346 48 OFFCURVE",
"350 96 CURVE SMOOTH",
"354 131 OFFCURVE",
"344 164 OFFCURVE",
"350 199 CURVE SMOOTH",
"355 237 OFFCURVE",
"348 275 OFFCURVE",
"348 314 CURVE"
);
}
);
vertWidth = 1000;
width = 726;
}
);
note = cid00051;
unicode = 0052;
},
{
glyphname = S;
lastChange = "2020-11-05 19:14:57 +0000";
layers = (
{
layerId = "E107BE24-86B5-4C0E-8944-467415BB13ED";
paths = (
{
closed = 1;
nodes = (
"313 72 LINE",
"315 56 OFFCURVE",
"318 40 OFFCURVE",
"319 23 CURVE",
"313 23 LINE"
);
},
{
closed = 1;
nodes = (
"149 419 OFFCURVE",
"203 386 OFFCURVE",
"264 367 CURVE SMOOTH",
"277 363 OFFCURVE",
"291 360 OFFCURVE",
"306 356 CURVE",
"307 311 OFFCURVE",
"310 269 OFFCURVE",
"310 227 CURVE SMOOTH",
"312 182 OFFCURVE",
"312 135 OFFCURVE",
"312 90 CURVE",
"310 98 OFFCURVE",
"309 106 OFFCURVE",
"307 115 CURVE",
"306 140 OFFCURVE",
"310 165 OFFCURVE",
"303 193 CURVE",
"288 191 OFFCURVE",
"274 189 OFFCURVE",
"260 185 CURVE SMOOTH",
"233 178 OFFCURVE",
"218 157 OFFCURVE",
"201 137 CURVE SMOOTH",
"176 107 OFFCURVE",
"168 41 OFFCURVE",
"187 6 CURVE SMOOTH",
"207 -28 OFFCURVE",
"238 -50 OFFCURVE",
"277 -60 CURVE",
"284 -63 OFFCURVE",
"294 -62 OFFCURVE",
"299 -67 CURVE SMOOTH",
"307 -74 OFFCURVE",
"316 -76 OFFCURVE",
"327 -71 CURVE SMOOTH",
"334 -69 OFFCURVE",
"342 -70 OFFCURVE",
"351 -70 CURVE SMOOTH",
"405 -67 OFFCURVE",
"454 -46 OFFCURVE",
"489 -7 CURVE SMOOTH",
"524 30 OFFCURVE",
"558 70 OFFCURVE",
"549 129 CURVE",
"548 144 OFFCURVE",
"549 161 OFFCURVE",
"549 178 CURVE",
"552 203 OFFCURVE",
"545 226 OFFCURVE",
"535 248 CURVE SMOOTH",
"500 330 OFFCURVE",
"439 378 OFFCURVE",
"349 388 CURVE SMOOTH",
"344 388 OFFCURVE",
"338 389 OFFCURVE",
"333 391 CURVE",
"326 462 OFFCURVE",
"327 533 OFFCURVE",
"326 603 CURVE SMOOTH",
"324 676 OFFCURVE",
"331 747 OFFCURVE",
"334 823 CURVE",
"316 823 OFFCURVE",
"296 828 OFFCURVE",
"280 823 CURVE SMOOTH",
"233 804 OFFCURVE",
"186 785 OFFCURVE",
"151 747 CURVE SMOOTH",
"116 708 OFFCURVE",
"87 665 OFFCURVE",
"92 607 CURVE",
"94 596 OFFCURVE",
"94 585 OFFCURVE",
"92 572 CURVE SMOOTH",
"88 537 OFFCURVE",
"99 507 OFFCURVE",
"117 476 CURVE SMOOTH"
);
},
{
closed = 1;
nodes = (
"333 730 OFFCURVE",
"334 639 OFFCURVE",
"334 550 CURVE",
"361 535 OFFCURVE",
"383 546 OFFCURVE",
"404 554 CURVE SMOOTH",
"454 577 OFFCURVE",
"482 617 OFFCURVE",
"485 672 CURVE SMOOTH",
"489 730 OFFCURVE",
"454 771 OFFCURVE",
"408 802 CURVE SMOOTH",
"391 814 OFFCURVE",
"368 821 OFFCURVE",
"344 823 CURVE"
);
}
);
vertWidth = 1000;
width = 666;
}
);
note = cid00052;
unicode = 0053;
},
{
glyphname = T;
lastChange = "2020-11-05 19:14:57 +0000";
layers = (
{
layerId = "E107BE24-86B5-4C0E-8944-467415BB13ED";
paths = (
{
closed = 1;
nodes = (
"107 621 LINE",
"312 621 LINE",
"312 618 LINE",
"208 618 LINE",
"206 577 OFFCURVE",
"205 541 OFFCURVE",
"204 504 CURVE SMOOTH",
"203 468 OFFCURVE",
"201 430 OFFCURVE",
"200 394 CURVE SMOOTH",
"200 358 OFFCURVE",
"200 320 OFFCURVE",
"199 284 CURVE SMOOTH",
"197 248 OFFCURVE",
"196 211 OFFCURVE",
"195 174 CURVE SMOOTH",
"194 140 OFFCURVE",
"195 103 OFFCURVE",
"191 69 CURVE SMOOTH",
"187 34 OFFCURVE",
"191 -2 OFFCURVE",
"192 -39 CURVE",
"360 -39 LINE",
"360 -33 OFFCURVE",
"361 -27 OFFCURVE",
"361 -22 CURVE SMOOTH",
"363 35 OFFCURVE",
"364 90 OFFCURVE",
"365 149 CURVE SMOOTH",
"367 178 OFFCURVE",
"372 209 OFFCURVE",
"370 239 CURVE SMOOTH",
"369 283 OFFCURVE",
"376 326 OFFCURVE",
"368 369 CURVE SMOOTH",
"365 388 OFFCURVE",
"373 408 OFFCURVE",
"374 428 CURVE",
"376 439 OFFCURVE",
"378 452 OFFCURVE",
"377 465 CURVE SMOOTH",
"376 477 OFFCURVE",
"376 487 OFFCURVE",
"377 499 CURVE SMOOTH",
"378 539 OFFCURVE",
"377 580 OFFCURVE",
"377 621 CURVE",
"414 625 OFFCURVE",
"454 629 OFFCURVE",
"493 633 CURVE",
"493 773 LINE",
"449 774 OFFCURVE",
"407 776 OFFCURVE",
"365 776 CURVE SMOOTH",
"289 776 OFFCURVE",
"213 775 OFFCURVE",
"137 774 CURVE SMOOTH",
"128 774 OFFCURVE",
"117 774 OFFCURVE",
"107 773 CURVE",
"107 698 LINE"
);
}
);
vertWidth = 1000;
width = 584;
}
);
note = cid00053;
unicode = 0054;
},
{
glyphname = U;
lastChange = "2020-11-05 19:14:57 +0000";
layers = (
{
layerId = "E107BE24-86B5-4C0E-8944-467415BB13ED";
paths = (
{
closed = 1;
nodes = (
"121 31 OFFCURVE",
"135 11 OFFCURVE",
"149 -6 CURVE SMOOTH",
"175 -38 OFFCURVE",
"209 -63 OFFCURVE",
"247 -69 CURVE SMOOTH",
"298 -74 OFFCURVE",
"351 -77 OFFCURVE",
"399 -49 CURVE SMOOTH",
"456 -15 OFFCURVE",
"491 31 OFFCURVE",
"500 96 CURVE SMOOTH",
"502 115 OFFCURVE",
"498 133 OFFCURVE",
"500 150 CURVE",
"501 212 OFFCURVE",
"502 273 OFFCURVE",
"505 334 CURVE SMOOTH",
"507 375 OFFCURVE",
"509 417 OFFCURVE",
"511 458 CURVE SMOOTH",
"512 477 OFFCURVE",
"512 499 OFFCURVE",
"511 520 CURVE SMOOTH",
"511 540 OFFCURVE",
"509 560 OFFCURVE",
"511 579 CURVE SMOOTH",
"514 616 OFFCURVE",
"514 655 OFFCURVE",
"515 691 CURVE SMOOTH",
"515 720 OFFCURVE",
"514 748 OFFCURVE",
"517 777 CURVE SMOOTH",
"518 791 OFFCURVE",
"522 802 OFFCURVE",
"509 811 CURVE",
"454 799 OFFCURVE",
"400 809 OFFCURVE",
"346 803 CURVE",
"345 796 OFFCURVE",
"342 791 OFFCURVE",
"342 785 CURVE SMOOTH",
"341 734 OFFCURVE",
"339 683 OFFCURVE",
"338 632 CURVE SMOOTH",
"338 588 OFFCURVE",
"337 544 OFFCURVE",
"335 500 CURVE SMOOTH",
"334 451 OFFCURVE",
"331 402 OFFCURVE",
"328 353 CURVE SMOOTH",
"328 340 OFFCURVE",
"331 326 OFFCURVE",
"327 314 CURVE SMOOTH",
"322 300 OFFCURVE",
"339 292 OFFCURVE",
"331 278 CURVE SMOOTH",
"324 266 OFFCURVE",
"325 251 OFFCURVE",
"324 238 CURVE",
"322 231 OFFCURVE",
"324 224 OFFCURVE",
"325 217 CURVE SMOOTH",
"331 188 OFFCURVE",
"329 160 OFFCURVE",
"318 133 CURVE",
"283 133 LINE",
"283 241 LINE SMOOTH",
"283 404 OFFCURVE",
"284 565 OFFCURVE",
"284 728 CURVE SMOOTH",
"284 745 OFFCURVE",
"285 761 OFFCURVE",
"284 777 CURVE SMOOTH",
"284 792 OFFCURVE",
"278 796 OFFCURVE",
"264 796 CURVE SMOOTH",
"219 795 OFFCURVE",
"172 794 OFFCURVE",
"125 791 CURVE SMOOTH",
"121 791 OFFCURVE",
"117 789 OFFCURVE",
"111 788 CURVE",
"111 765 LINE",
"111 157 LINE",
"111 110 LINE",
"113 91 OFFCURVE",
"108 69 OFFCURVE",
"114 52 CURVE SMOOTH"
);
}
);
vertWidth = 1000;
width = 621;
}
);
note = cid00054;
unicode = 0055;
},
{
glyphname = V;
lastChange = "2020-11-05 19:14:57 +0000";
layers = (
{
layerId = "E107BE24-86B5-4C0E-8944-467415BB13ED";
paths = (
{
closed = 1;
nodes = (
"611 787 OFFCURVE",
"552 800 OFFCURVE",
"492 814 CURVE SMOOTH",
"486 816 OFFCURVE",
"480 816 OFFCURVE",
"473 816 CURVE SMOOTH",
"464 816 OFFCURVE",
"459 813 OFFCURVE",
"457 803 CURVE SMOOTH",
"447 758 OFFCURVE",
"435 711 OFFCURVE",
"425 666 CURVE SMOOTH",
"415 628 OFFCURVE",
"405 592 OFFCURVE",
"396 554 CURVE SMOOTH",
"386 517 OFFCURVE",
"377 479 OFFCURVE",
"366 434 CURVE",
"347 505 OFFCURVE",
"331 570 OFFCURVE",
"314 634 CURVE SMOOTH",
"295 700 OFFCURVE",
"273 762 OFFCURVE",
"257 830 CURVE",
"245 826 OFFCURVE",
"237 824 OFFCURVE",
"228 821 CURVE SMOOTH",
"202 814 OFFCURVE",
"176 804 OFFCURVE",
"150 797 CURVE SMOOTH",
"134 794 OFFCURVE",
"116 797 OFFCURVE",
"102 790 CURVE SMOOTH",
"89 784 OFFCURVE",
"76 779 OFFCURVE",
"61 774 CURVE",
"61 771 OFFCURVE",
"60 766 OFFCURVE",
"60 762 CURVE SMOOTH",
"58 721 OFFCURVE",
"73 684 OFFCURVE",
"83 644 CURVE SMOOTH",
"105 556 OFFCURVE",
"129 467 OFFCURVE",
"152 379 CURVE SMOOTH",
"174 299 OFFCURVE",
"196 221 OFFCURVE",
"218 141 CURVE SMOOTH",
"228 103 OFFCURVE",
"238 67 OFFCURVE",
"250 31 CURVE SMOOTH",
"258 0 OFFCURVE",
"267 -31 OFFCURVE",
"276 -61 CURVE",
"300 -64 OFFCURVE",
"322 -63 OFFCURVE",
"344 -54 CURVE SMOOTH",
"364 -45 OFFCURVE",
"388 -45 OFFCURVE",
"409 -54 CURVE SMOOTH",
"431 -64 OFFCURVE",
"453 -63 OFFCURVE",
"479 -61 CURVE",
"482 -45 OFFCURVE",
"483 -29 OFFCURVE",
"486 -13 CURVE SMOOTH",
"499 38 OFFCURVE",
"512 90 OFFCURVE",
"525 144 CURVE SMOOTH",
"538 199 OFFCURVE",
"552 256 OFFCURVE",
"565 311 CURVE SMOOTH",
"578 360 OFFCURVE",
"592 409 OFFCURVE",
"607 459 CURVE SMOOTH",
"627 534 OFFCURVE",
"647 610 OFFCURVE",
"668 687 CURVE SMOOTH",
"675 713 OFFCURVE",
"688 740 OFFCURVE",
"678 769 CURVE",
"675 771 OFFCURVE",
"673 772 OFFCURVE",
"670 772 CURVE"
);
}
);
vertWidth = 1000;
width = 741;
}
);
note = cid00055;
unicode = 0056;
},
{
glyphname = W;
lastChange = "2020-11-05 19:14:57 +0000";
layers = (
{
layerId = "E107BE24-86B5-4C0E-8944-467415BB13ED";
paths = (
{
closed = 1;
nodes = (
"182 108 LINE",
"181 110 OFFCURVE",
"181 111 OFFCURVE",
"181 112 CURVE",
"306 112 LINE",
"306 108 LINE"
);
},
{
closed = 1;
nodes = (
"323 108 LINE",
"383 110 OFFCURVE",
"441 107 OFFCURVE",
"501 110 CURVE",
"501 143 LINE",
"517 142 OFFCURVE",
"531 139 OFFCURVE",
"544 142 CURVE SMOOTH",
"560 145 OFFCURVE",
"579 128 OFFCURVE",
"589 150 CURVE",
"605 137 OFFCURVE",
"630 140 OFFCURVE",
"640 119 CURVE",
"656 138 OFFCURVE",
"655 163 OFFCURVE",
"655 185 CURVE SMOOTH",
"653 250 OFFCURVE",
"650 316 OFFCURVE",
"649 382 CURVE SMOOTH",
"649 486 OFFCURVE",
"649 591 OFFCURVE",
"648 695 CURVE SMOOTH",
"648 722 OFFCURVE",
"643 750 OFFCURVE",
"642 778 CURVE SMOOTH",
"641 789 OFFCURVE",
"635 794 OFFCURVE",
"623 791 CURVE SMOOTH",
"613 789 OFFCURVE",
"603 789 OFFCURVE",
"593 789 CURVE SMOOTH",
"556 789 OFFCURVE",
"518 791 OFFCURVE",
"476 793 CURVE",
"476 768 OFFCURVE",
"475 745 OFFCURVE",
"475 725 CURVE SMOOTH",
"475 656 LINE",
"475 366 LINE",
"475 189 LINE",
"419 225 OFFCURVE",
"373 225 OFFCURVE",
"327 174 CURVE",
"327 228 LINE SMOOTH",
"327 324 OFFCURVE",
"327 421 OFFCURVE",
"328 517 CURVE SMOOTH",
"328 600 OFFCURVE",
"331 683 OFFCURVE",
"333 765 CURVE SMOOTH",
"333 796 OFFCURVE",
"331 796 OFFCURVE",
"302 797 CURVE SMOOTH",
"261 797 OFFCURVE",
"222 797 OFFCURVE",
"182 796 CURVE SMOOTH",
"175 796 OFFCURVE",
"167 796 OFFCURVE",
"158 794 CURVE",
"153 741 OFFCURVE",
"146 691 OFFCURVE",
"146 639 CURVE SMOOTH",
"144 474 OFFCURVE",
"144 308 OFFCURVE",
"144 142 CURVE",
"146 117 OFFCURVE",
"144 92 OFFCURVE",
"144 66 CURVE",
"146 61 OFFCURVE",
"144 53 OFFCURVE",
"147 48 CURVE SMOOTH",
"161 27 OFFCURVE",
"174 4 OFFCURVE",
"193 -12 CURVE SMOOTH",
"229 -47 OFFCURVE",
"273 -55 OFFCURVE",
"321 -40 CURVE SMOOTH",
"360 -27 OFFCURVE",
"387 -4 OFFCURVE",
"412 27 CURVE",
"420 -1 OFFCURVE",
"440 -19 OFFCURVE",
"459 -36 CURVE SMOOTH",
"479 -53 OFFCURVE",
"498 -66 OFFCURVE",
"526 -62 CURVE SMOOTH",
"537 -60 OFFCURVE",
"549 -61 OFFCURVE",
"560 -61 CURVE SMOOTH",
"571 -62 OFFCURVE",
"579 -58 OFFCURVE",
"589 -53 CURVE",
"630 -23 OFFCURVE",
"653 15 OFFCURVE",
"663 62 CURVE SMOOTH",
"666 75 OFFCURVE",
"673 92 OFFCURVE",
"660 105 CURVE",
"547 104 OFFCURVE",
"436 103 OFFCURVE",
"323 101 CURVE"
);
},
{
closed = 1;
nodes = (
"640 117 OFFCURVE",
"640 118 OFFCURVE",
"640 119 CURVE",
"640 118 OFFCURVE",
"639 118 OFFCURVE",
"639 118 CURVE",
"641 117 LINE"
);
}
);
vertWidth = 1000;
width = 787;
}
);
note = cid00056;
unicode = 0057;
},
{
glyphname = X;
lastChange = "2020-11-05 19:14:57 +0000";
layers = (
{
layerId = "E107BE24-86B5-4C0E-8944-467415BB13ED";
paths = (
{
closed = 1;
nodes = (
"404 782 OFFCURVE",
"394 781 OFFCURVE",
"388 781 CURVE",
"371 740 OFFCURVE",
"356 702 OFFCURVE",
"340 662 CURVE",
"303 700 OFFCURVE",
"307 757 OFFCURVE",
"277 797 CURVE",
"243 781 OFFCURVE",
"213 761 OFFCURVE",
"179 753 CURVE SMOOTH",
"149 747 OFFCURVE",
"126 732 OFFCURVE",
"94 722 CURVE",
"98 704 OFFCURVE",
"100 688 OFFCURVE",
"107 674 CURVE",
"141 579 OFFCURVE",
"177 485 OFFCURVE",
"213 389 CURVE SMOOTH",
"218 376 OFFCURVE",
"218 365 OFFCURVE",
"213 352 CURVE SMOOTH",
"194 309 OFFCURVE",
"177 263 OFFCURVE",
"159 220 CURVE SMOOTH",
"136 163 OFFCURVE",
"114 106 OFFCURVE",
"90 52 CURVE SMOOTH",
"83 37 OFFCURVE",
"73 25 OFFCURVE",
"79 11 CURVE",
"134 -10 OFFCURVE",
"185 -31 OFFCURVE",
"237 -53 CURVE",
"250 -60 OFFCURVE",
"262 -64 OFFCURVE",
"278 -60 CURVE",
"295 -12 OFFCURVE",
"311 36 OFFCURVE",
"335 85 CURVE",
"356 33 OFFCURVE",
"375 -14 OFFCURVE",
"393 -63 CURVE",
"406 -61 OFFCURVE",
"418 -60 OFFCURVE",
"430 -57 CURVE SMOOTH",
"439 -55 OFFCURVE",
"449 -49 OFFCURVE",
"458 -45 CURVE",
"498 -32 OFFCURVE",
"537 -19 OFFCURVE",
"580 -4 CURVE",
"580 3 OFFCURVE",
"580 12 OFFCURVE",
"577 19 CURVE SMOOTH",
"565 58 OFFCURVE",
"551 95 OFFCURVE",
"537 134 CURVE SMOOTH",
"511 205 OFFCURVE",
"484 277 OFFCURVE",
"458 348 CURVE SMOOTH",
"453 360 OFFCURVE",
"454 371 OFFCURVE",
"459 383 CURVE SMOOTH",
"480 430 OFFCURVE",
"500 478 OFFCURVE",
"520 526 CURVE SMOOTH",
"540 572 OFFCURVE",
"559 618 OFFCURVE",
"581 665 CURVE SMOOTH",
"589 679 OFFCURVE",
"592 691 OFFCURVE",
"589 707 CURVE",
"529 731 OFFCURVE",
"470 756 OFFCURVE",
"412 780 CURVE"
);
}
);
vertWidth = 1000;
width = 669;
}
);
note = cid00057;
unicode = 0058;
},
{
glyphname = Y;
lastChange = "2020-11-05 19:14:57 +0000";
layers = (
{
layerId = "E107BE24-86B5-4C0E-8944-467415BB13ED";
paths = (
{
closed = 1;
nodes = (
"607 766 LINE SMOOTH",
"571 765 OFFCURVE",
"536 761 OFFCURVE",
"499 761 CURVE SMOOTH",
"399 760 OFFCURVE",
"299 759 OFFCURVE",
"199 757 CURVE SMOOTH",
"176 757 OFFCURVE",
"151 755 OFFCURVE",
"123 752 CURVE",
"125 721 OFFCURVE",
"120 689 OFFCURVE",
"133 659 CURVE SMOOTH",
"151 617 OFFCURVE",
"173 579 OFFCURVE",
"214 555 CURVE SMOOTH",
"236 541 OFFCURVE",
"258 527 OFFCURVE",
"281 512 CURVE",
"280 457 OFFCURVE",
"278 401 OFFCURVE",
"276 344 CURVE SMOOTH",
"276 320 OFFCURVE",
"276 298 OFFCURVE",
"275 275 CURVE SMOOTH",
"274 189 OFFCURVE",
"271 101 OFFCURVE",
"270 14 CURVE SMOOTH",
"269 -14 OFFCURVE",
"277 -22 OFFCURVE",
"308 -19 CURVE SMOOTH",
"332 -18 OFFCURVE",
"355 -13 OFFCURVE",
"380 -14 CURVE SMOOTH",
"403 -16 OFFCURVE",
"426 -13 OFFCURVE",
"449 -14 CURVE SMOOTH",
"466 -16 OFFCURVE",
"471 -10 OFFCURVE",
"471 5 CURVE SMOOTH",
"473 62 OFFCURVE",
"474 118 OFFCURVE",
"475 174 CURVE SMOOTH",
"475 202 OFFCURVE",
"471 229 OFFCURVE",
"471 257 CURVE SMOOTH",
"471 283 OFFCURVE",
"474 308 OFFCURVE",
"475 335 CURVE SMOOTH",
"476 394 OFFCURVE",
"477 451 OFFCURVE",
"479 503 CURVE",
"507 527 OFFCURVE",
"532 544 OFFCURVE",
"554 565 CURVE SMOOTH",
"604 616 OFFCURVE",
"635 676 OFFCURVE",
"638 749 CURVE SMOOTH",
"638 760 OFFCURVE",
"634 765 OFFCURVE",
"623 766 CURVE SMOOTH"
);
}
);
vertWidth = 1000;
width = 774;
}
);
note = cid00058;
unicode = 0059;
},
{
glyphname = Z;
lastChange = "2020-11-05 19:14:57 +0000";
layers = (
{
layerId = "E107BE24-86B5-4C0E-8944-467415BB13ED";
paths = (
{
closed = 1;
nodes = (
"437 164 OFFCURVE",
"431 175 OFFCURVE",
"435 186 CURVE SMOOTH",
"442 202 OFFCURVE",
"447 218 OFFCURVE",
"445 236 CURVE",
"443 240 OFFCURVE",
"447 243 OFFCURVE",
"450 247 CURVE SMOOTH",
"453 251 OFFCURVE",
"457 255 OFFCURVE",
"458 260 CURVE SMOOTH",
"466 292 OFFCURVE",
"474 324 OFFCURVE",
"481 356 CURVE SMOOTH",
"489 387 OFFCURVE",
"495 418 OFFCURVE",
"501 448 CURVE SMOOTH",
"507 488 OFFCURVE",
"522 526 OFFCURVE",
"527 566 CURVE SMOOTH",
"531 599 OFFCURVE",
"543 630 OFFCURVE",
"551 662 CURVE SMOOTH",
"558 689 OFFCURVE",
"565 714 OFFCURVE",
"571 741 CURVE SMOOTH",
"573 750 OFFCURVE",
"573 758 OFFCURVE",
"562 762 CURVE SMOOTH",
"542 770 OFFCURVE",
"523 778 OFFCURVE",
"502 777 CURVE SMOOTH",
"497 777 OFFCURVE",
"490 778 OFFCURVE",
"485 781 CURVE SMOOTH",
"474 789 OFFCURVE",
"466 787 OFFCURVE",
"458 777 CURVE",
"453 785 OFFCURVE",
"449 791 OFFCURVE",
"447 794 CURVE",
"431 797 OFFCURVE",
"419 797 OFFCURVE",
"409 802 CURVE SMOOTH",
"391 811 OFFCURVE",
"371 810 OFFCURVE",
"353 810 CURVE SMOOTH",
"289 810 OFFCURVE",
"226 810 OFFCURVE",
"162 811 CURVE SMOOTH",
"108 811 LINE",
"108 713 LINE",
"123 710 OFFCURVE",
"136 707 OFFCURVE",
"150 706 CURVE SMOOTH",
"202 705 OFFCURVE",
"254 705 OFFCURVE",
"306 703 CURVE SMOOTH",
"315 703 OFFCURVE",
"325 702 OFFCURVE",
"334 702 CURVE",
"331 687 OFFCURVE",
"330 677 OFFCURVE",
"327 667 CURVE SMOOTH",
"321 642 OFFCURVE",
"326 612 OFFCURVE",
"309 590 CURVE SMOOTH",
"307 587 OFFCURVE",
"307 584 OFFCURVE",
"306 582 CURVE",
"294 528 OFFCURVE",
"283 474 OFFCURVE",
"270 420 CURVE SMOOTH",
"262 384 OFFCURVE",
"253 350 OFFCURVE",
"245 315 CURVE SMOOTH",
"223 224 OFFCURVE",
"202 132 OFFCURVE",
"179 42 CURVE SMOOTH",
"176 28 OFFCURVE",
"172 16 OFFCURVE",
"170 3 CURVE SMOOTH",
"167 -7 OFFCURVE",
"167 -18 OFFCURVE",
"179 -20 CURVE",
"210 -30 OFFCURVE",
"240 -35 OFFCURVE",
"270 -44 CURVE SMOOTH",
"299 -51 OFFCURVE",
"327 -60 OFFCURVE",
"355 -70 CURVE SMOOTH",
"370 -74 OFFCURVE",
"385 -76 OFFCURVE",
"399 -67 CURVE",
"402 -66 OFFCURVE",
"406 -63 OFFCURVE",
"407 -63 CURVE SMOOTH",
"442 -72 OFFCURVE",
"477 -66 OFFCURVE",
"511 -64 CURVE SMOOTH",
"530 -64 OFFCURVE",
"549 -63 OFFCURVE",
"567 -62 CURVE SMOOTH",
"587 -60 OFFCURVE",
"607 -58 OFFCURVE",
"626 -56 CURVE",
"626 43 LINE",
"405 43 LINE",
"414 80 OFFCURVE",
"422 116 OFFCURVE",
"433 152 CURVE SMOOTH"
);
}
);
vertWidth = 1000;
width = 678;
}
);
note = cid00059;
unicode = 005A;
},
{
glyphname = A.rotat;
lastChange = "2020-11-05 19:14:57 +0000";
layers = (
{
layerId = "E107BE24-86B5-4C0E-8944-467415BB13ED";
paths = (
{
closed = 1;
nodes = (
"541 580 LINE",
"611 578 OFFCURVE",
"682 575 OFFCURVE",
"753 573 CURVE",
"754 558 OFFCURVE",
"754 543 OFFCURVE",
"756 527 CURVE",
"720 521 OFFCURVE",
"685 527 OFFCURVE",
"650 524 CURVE SMOOTH",
"614 521 OFFCURVE",
"579 529 OFFCURVE",
"541 526 CURVE"
);
},
{
closed = 1;
nodes = (
"54 487 OFFCURVE",
"53 472 OFFCURVE",
"53 455 CURVE SMOOTH",
"53 345 LINE",
"76 345 LINE",
"710 345 LINE",
"727 345 LINE",
"754 352 OFFCURVE",
"780 369 OFFCURVE",
"808 364 CURVE",
"852 382 OFFCURVE",
"893 404 OFFCURVE",
"923 443 CURVE SMOOTH",
"935 458 OFFCURVE",
"948 478 OFFCURVE",
"950 497 CURVE SMOOTH",
"955 534 OFFCURVE",
"952 573 OFFCURVE",
"952 610 CURVE SMOOTH",
"952 615 OFFCURVE",
"948 619 OFFCURVE",
"948 622 CURVE",
"943 644 OFFCURVE",
"930 661 OFFCURVE",
"918 679 CURVE SMOOTH",
"888 723 OFFCURVE",
"847 747 OFFCURVE",
"795 759 CURVE SMOOTH",
"776 762 OFFCURVE",
"759 759 OFFCURVE",
"742 757 CURVE",
"695 757 OFFCURVE",
"648 757 OFFCURVE",
"602 759 CURVE SMOOTH",
"541 759 OFFCURVE",
"481 760 OFFCURVE",
"420 764 CURVE SMOOTH",
"386 764 OFFCURVE",
"351 765 OFFCURVE",
"315 767 CURVE SMOOTH",
"287 767 OFFCURVE",
"260 765 OFFCURVE",
"231 765 CURVE SMOOTH",
"227 765 OFFCURVE",
"224 765 OFFCURVE",
"221 767 CURVE",
"182 781 OFFCURVE",
"141 772 OFFCURVE",
"100 774 CURVE SMOOTH",
"63 774 LINE",
"61 743 OFFCURVE",
"56 716 OFFCURVE",
"66 691 CURVE",
"65 683 OFFCURVE",
"63 676 OFFCURVE",
"63 669 CURVE",
"61 666 OFFCURVE",
"66 661 OFFCURVE",
"65 659 CURVE",
"53 646 OFFCURVE",
"59 630 OFFCURVE",
"61 615 CURVE",
"61 597 OFFCURVE",
"65 595 OFFCURVE",
"81 595 CURVE SMOOTH",
"123 593 OFFCURVE",
"165 592 OFFCURVE",
"205 590 CURVE SMOOTH",
"238 588 OFFCURVE",
"271 588 OFFCURVE",
"303 586 CURVE SMOOTH",
"319 586 OFFCURVE",
"335 586 OFFCURVE",
"352 585 CURVE",
"352 526 LINE",
"232 526 LINE SMOOTH",
"180 524 OFFCURVE",
"124 521 OFFCURVE",
"71 521 CURVE",
"59 519 OFFCURVE",
"54 516 OFFCURVE",
"54 504 CURVE SMOOTH"
);
}
);
vertWidth = 647;
width = 1000;
}
);
note = cid08753;
},
{
glyphname = B.rotat;
lastChange = "2020-11-05 19:14:57 +0000";
layers = (
{
layerId = "E107BE24-86B5-4C0E-8944-467415BB13ED";
paths = (
{
closed = 1;
nodes = (
"72 728 OFFCURVE",
"72 699 OFFCURVE",
"70 672 CURVE SMOOTH",
"68 648 OFFCURVE",
"67 623 OFFCURVE",
"65 599 CURVE SMOOTH",
"63 576 OFFCURVE",
"65 576 OFFCURVE",
"88 574 CURVE SMOOTH",
"120 571 OFFCURVE",
"154 567 OFFCURVE",
"187 565 CURVE SMOOTH",
"230 564 OFFCURVE",
"275 564 OFFCURVE",
"319 564 CURVE SMOOTH",
"405 564 OFFCURVE",
"492 564 OFFCURVE",
"578 565 CURVE SMOOTH",
"666 567 OFFCURVE",
"752 559 OFFCURVE",
"840 571 CURVE SMOOTH",
"848 572 OFFCURVE",
"858 571 OFFCURVE",
"867 571 CURVE SMOOTH",
"884 569 OFFCURVE",
"900 565 OFFCURVE",
"917 565 CURVE SMOOTH",
"943 565 OFFCURVE",
"946 571 OFFCURVE",
"946 596 CURVE SMOOTH",
"944 623 OFFCURVE",
"943 648 OFFCURVE",
"943 675 CURVE SMOOTH",
"943 707 OFFCURVE",
"946 741 OFFCURVE",
"946 773 CURVE",
"912 789 OFFCURVE",
"884 783 OFFCURVE",
"855 783 CURVE SMOOTH",
"498 783 LINE",
"272 783 LINE SMOOTH",
"216 782 OFFCURVE",
"159 783 OFFCURVE",
"104 783 CURVE SMOOTH",
"77 783 OFFCURVE",
"73 782 OFFCURVE",
"73 755 CURVE SMOOTH"
);
},
{
closed = 1;
nodes = (
"928 549 OFFCURVE",
"914 552 OFFCURVE",
"900 550 CURVE",
"826 549 OFFCURVE",
"753 545 OFFCURVE",
"679 544 CURVE SMOOTH",
"559 544 LINE SMOOTH",
"517 544 OFFCURVE",
"473 544 OFFCURVE",
"429 542 CURVE SMOOTH",
"378 538 OFFCURVE",
"326 533 OFFCURVE",
"275 532 CURVE SMOOTH",
"213 530 OFFCURVE",
"148 532 OFFCURVE",
"87 532 CURVE SMOOTH",
"78 532 OFFCURVE",
"68 530 OFFCURVE",
"60 530 CURVE",
"60 456 LINE SMOOTH",
"60 452 OFFCURVE",
"60 447 OFFCURVE",
"61 446 CURVE",
"87 391 OFFCURVE",
"123 347 OFFCURVE",
"177 322 CURVE SMOOTH",
"197 312 OFFCURVE",
"216 307 OFFCURVE",
"236 309 CURVE SMOOTH",
"257 310 OFFCURVE",
"275 309 OFFCURVE",
"295 309 CURVE SMOOTH",
"316 309 OFFCURVE",
"333 312 OFFCURVE",
"351 319 CURVE SMOOTH",
"409 342 OFFCURVE",
"453 380 OFFCURVE",
"476 439 CURVE SMOOTH",
"480 447 OFFCURVE",
"485 454 OFFCURVE",
"490 462 CURVE",
"503 430 OFFCURVE",
"517 402 OFFCURVE",
"542 381 CURVE SMOOTH",
"578 351 OFFCURVE",
"617 327 OFFCURVE",
"664 315 CURVE SMOOTH",
"711 304 OFFCURVE",
"759 305 OFFCURVE",
"802 326 CURVE SMOOTH",
"882 361 OFFCURVE",
"928 427 OFFCURVE",
"944 513 CURVE SMOOTH",
"946 523 OFFCURVE",
"944 535 OFFCURVE",
"944 549 CURVE"
);
}
);
vertWidth = 719;
width = 1000;
}
);
note = cid08754;
},
{
glyphname = C.rotat;
lastChange = "2020-11-05 19:14:57 +0000";
layers = (
{
layerId = "E107BE24-86B5-4C0E-8944-467415BB13ED";
paths = (
{
closed = 1;
nodes = (
"883 361 OFFCURVE",
"882 361 OFFCURVE",
"882 361 CURVE",
"804 364 OFFCURVE",
"727 368 OFFCURVE",
"649 371 CURVE SMOOTH",
"637 371 OFFCURVE",
"628 364 OFFCURVE",
"627 352 CURVE",
"622 334 OFFCURVE",
"621 314 OFFCURVE",
"620 294 CURVE SMOOTH",
"618 280 OFFCURVE",
"627 275 OFFCURVE",
"641 273 CURVE SMOOTH",
"654 272 OFFCURVE",
"666 272 OFFCURVE",
"679 270 CURVE",
"712 269 OFFCURVE",
"746 270 OFFCURVE",
"778 263 CURVE SMOOTH",
"814 256 OFFCURVE",
"849 262 OFFCURVE",
"886 258 CURVE",
"886 358 LINE"
);
},
{
closed = 1;
nodes = (
"751 376 OFFCURVE",
"795 375 OFFCURVE",
"839 374 CURVE",
"853 372 OFFCURVE",
"869 374 OFFCURVE",
"889 374 CURVE",
"889 399 OFFCURVE",
"889 426 OFFCURVE",
"887 453 CURVE SMOOTH",
"887 464 OFFCURVE",
"879 476 OFFCURVE",
"876 487 CURVE SMOOTH",
"845 583 OFFCURVE",
"790 661 OFFCURVE",
"707 718 CURVE SMOOTH",
"656 752 OFFCURVE",
"603 777 OFFCURVE",
"538 773 CURVE SMOOTH",
"496 769 OFFCURVE",
"455 772 OFFCURVE",
"414 772 CURVE SMOOTH",
"407 772 OFFCURVE",
"399 772 OFFCURVE",
"392 770 CURVE SMOOTH",
"309 742 OFFCURVE",
"237 702 OFFCURVE",
"189 629 CURVE SMOOTH",
"161 583 OFFCURVE",
"134 538 OFFCURVE",
"119 487 CURVE SMOOTH",
"111 457 OFFCURVE",
"104 429 OFFCURVE",
"105 398 CURVE SMOOTH",
"106 385 OFFCURVE",
"112 375 OFFCURVE",
"124 378 CURVE SMOOTH",
"147 384 OFFCURVE",
"168 375 OFFCURVE",
"191 376 CURVE",
"199 378 OFFCURVE",
"208 382 OFFCURVE",
"217 384 CURVE SMOOTH",
"225 386 OFFCURVE",
"232 391 OFFCURVE",
"239 389 CURVE SMOOTH",
"276 381 OFFCURVE",
"314 382 OFFCURVE",
"352 384 CURVE SMOOTH",
"392 385 OFFCURVE",
"431 388 OFFCURVE",
"471 389 CURVE SMOOTH",
"509 389 OFFCURVE",
"546 389 OFFCURVE",
"583 388 CURVE SMOOTH",
"625 385 OFFCURVE",
"666 381 OFFCURVE",
"709 379 CURVE SMOOTH"
);
},
{
closed = 1;
nodes = (
"308 270 OFFCURVE",
"324 272 OFFCURVE",
"342 272 CURVE",
"342 300 OFFCURVE",
"343 321 OFFCURVE",
"342 342 CURVE SMOOTH",
"342 364 OFFCURVE",
"338 368 OFFCURVE",
"315 368 CURVE SMOOTH",
"268 369 OFFCURVE",
"223 371 OFFCURVE",
"176 371 CURVE SMOOTH",
"161 372 OFFCURVE",
"144 371 OFFCURVE",
"128 371 CURVE SMOOTH",
"111 369 OFFCURVE",
"104 359 OFFCURVE",
"106 341 CURVE SMOOTH",
"109 324 OFFCURVE",
"112 307 OFFCURVE",
"115 290 CURVE SMOOTH",
"118 273 OFFCURVE",
"121 267 OFFCURVE",
"138 270 CURVE SMOOTH",
"165 275 OFFCURVE",
"191 272 OFFCURVE",
"216 272 CURVE SMOOTH",
"242 272 OFFCURVE",
"267 270 OFFCURVE",
"294 270 CURVE SMOOTH"
);
}
);
vertWidth = 749;
width = 1000;
}
);
note = cid08755;
},
{
glyphname = D.rotat;
lastChange = "2020-11-05 19:14:57 +0000";
layers = (
{
layerId = "E107BE24-86B5-4C0E-8944-467415BB13ED";
paths = (
{
closed = 1;
nodes = (
"87 689 OFFCURVE",
"87 655 OFFCURVE",
"89 620 CURVE SMOOTH",
"89 608 OFFCURVE",
"93 589 OFFCURVE",
"101 586 CURVE SMOOTH",
"125 574 OFFCURVE",
"124 550 OFFCURVE",
"134 530 CURVE SMOOTH",
"145 512 OFFCURVE",
"154 493 OFFCURVE",
"166 478 CURVE SMOOTH",
"184 455 OFFCURVE",
"205 436 OFFCURVE",
"223 415 CURVE SMOOTH",
"234 404 OFFCURVE",
"243 392 OFFCURVE",
"255 385 CURVE SMOOTH",
"322 344 OFFCURVE",
"393 315 OFFCURVE",
"472 321 CURVE SMOOTH",
"490 323 OFFCURVE",
"508 321 OFFCURVE",
"526 321 CURVE SMOOTH",
"556 321 OFFCURVE",
"588 321 OFFCURVE",
"618 330 CURVE SMOOTH",
"680 351 OFFCURVE",
"740 373 OFFCURVE",
"785 424 CURVE SMOOTH",
"830 475 OFFCURVE",
"869 527 OFFCURVE",
"884 596 CURVE SMOOTH",
"888 616 OFFCURVE",
"888 637 OFFCURVE",
"896 656 CURVE",
"905 686 OFFCURVE",
"900 716 OFFCURVE",
"900 747 CURVE",
"890 747 OFFCURVE",
"882 748 OFFCURVE",
"876 748 CURVE SMOOTH",
"249 748 LINE SMOOTH",
"232 748 OFFCURVE",
"220 747 OFFCURVE",
"212 731 CURVE",
"205 737 OFFCURVE",
"197 743 OFFCURVE",
"191 748 CURVE",
"160 724 OFFCURVE",
"131 727 OFFCURVE",
"98 751 CURVE",
"93 739 OFFCURVE",
"89 731 OFFCURVE",
"89 724 CURVE SMOOTH"
);
}
);
vertWidth = 678;
width = 1000;
}
);
note = cid08756;
},
{
glyphname = E.rotat;
lastChange = "2020-11-05 19:14:57 +0000";
layers = (
{
layerId = "E107BE24-86B5-4C0E-8944-467415BB13ED";
paths = (
{
closed = 1;
nodes = (
"583 451 OFFCURVE",
"583 460 OFFCURVE",
"582 468 CURVE",
"582 493 OFFCURVE",
"576 499 OFFCURVE",
"550 500 CURVE SMOOTH",
"435 500 LINE SMOOTH",
"399 500 OFFCURVE",
"395 506 OFFCURVE",
"398 461 CURVE SMOOTH",
"398 455 OFFCURVE",
"396 450 OFFCURVE",
"398 442 CURVE",
"399 418 OFFCURVE",
"405 414 OFFCURVE",
"429 415 CURVE SMOOTH",
"445 417 OFFCURVE",
"460 418 OFFCURVE",
"475 418 CURVE SMOOTH",
"500 417 OFFCURVE",
"524 415 OFFCURVE",
"549 414 CURVE SMOOTH",
"575 412 OFFCURVE",
"582 419 OFFCURVE",
"583 444 CURVE SMOOTH"
);
},
{
closed = 1;
nodes = (
"776 383 OFFCURVE",
"799 381 OFFCURVE",
"824 379 CURVE SMOOTH",
"856 378 OFFCURVE",
"889 376 OFFCURVE",
"925 375 CURVE",
"926 414 OFFCURVE",
"929 448 OFFCURVE",
"930 484 CURVE SMOOTH",
"930 491 OFFCURVE",
"925 497 OFFCURVE",
"915 497 CURVE SMOOTH",
"881 499 OFFCURVE",
"850 503 OFFCURVE",
"817 506 CURVE SMOOTH",
"797 507 OFFCURVE",
"778 507 OFFCURVE",
"758 509 CURVE SMOOTH",
"719 510 OFFCURVE",
"681 512 OFFCURVE",
"642 513 CURVE",
"634 471 OFFCURVE",
"640 432 OFFCURVE",
"638 393 CURVE",
"640 393 OFFCURVE",
"641 392 OFFCURVE",
"642 392 CURVE SMOOTH",
"678 389 OFFCURVE",
"716 388 OFFCURVE",
"753 385 CURVE SMOOTH"
);
},
{
closed = 1;
nodes = (
"49 473 OFFCURVE",
"50 441 OFFCURVE",
"49 409 CURVE SMOOTH",
"49 398 OFFCURVE",
"54 392 OFFCURVE",
"66 392 CURVE SMOOTH",
"86 392 OFFCURVE",
"106 392 OFFCURVE",
"124 393 CURVE SMOOTH",
"153 395 OFFCURVE",
"180 401 OFFCURVE",
"208 401 CURVE SMOOTH",
"246 401 OFFCURVE",
"285 398 OFFCURVE",
"324 398 CURVE SMOOTH",
"333 398 OFFCURVE",
"341 399 OFFCURVE",
"353 399 CURVE",
"353 431 LINE",
"353 501 LINE SMOOTH",
"353 527 OFFCURVE",
"352 527 OFFCURVE",
"327 530 CURVE SMOOTH",
"295 532 OFFCURVE",
"264 522 OFFCURVE",
"231 533 CURVE",
"229 533 OFFCURVE",
"226 532 OFFCURVE",
"223 532 CURVE",
"213 530 OFFCURVE",
"203 529 OFFCURVE",
"195 529 CURVE SMOOTH",
"76 529 LINE SMOOTH",
"59 529 OFFCURVE",
"50 522 OFFCURVE",
"50 504 CURVE SMOOTH"
);
},
{
closed = 1;
nodes = (
"568 523 OFFCURVE",
"585 519 OFFCURVE",
"596 536 CURVE",
"615 527 OFFCURVE",
"634 520 OFFCURVE",
"654 529 CURVE",
"658 530 OFFCURVE",
"663 527 OFFCURVE",
"667 526 CURVE SMOOTH",
"677 525 OFFCURVE",
"686 522 OFFCURVE",
"696 522 CURVE SMOOTH",
"716 522 OFFCURVE",
"735 525 OFFCURVE",
"755 525 CURVE SMOOTH",
"779 523 OFFCURVE",
"804 522 OFFCURVE",
"828 519 CURVE SMOOTH",
"857 516 OFFCURVE",
"884 522 OFFCURVE",
"913 516 CURVE SMOOTH",
"928 514 OFFCURVE",
"933 522 OFFCURVE",
"933 535 CURVE SMOOTH",
"932 543 OFFCURVE",
"930 552 OFFCURVE",
"930 559 CURVE SMOOTH",
"930 718 LINE SMOOTH",
"930 726 OFFCURVE",
"929 736 OFFCURVE",
"929 745 CURVE",
"920 746 OFFCURVE",
"915 748 OFFCURVE",
"907 748 CURVE SMOOTH",
"869 749 OFFCURVE",
"830 749 OFFCURVE",
"791 751 CURVE SMOOTH",
"706 753 OFFCURVE",
"619 756 OFFCURVE",
"534 758 CURVE SMOOTH",
"487 759 OFFCURVE",
"439 761 OFFCURVE",
"390 762 CURVE SMOOTH",
"359 764 OFFCURVE",
"326 764 OFFCURVE",
"294 768 CURVE SMOOTH",
"280 769 OFFCURVE",
"265 771 OFFCURVE",
"258 759 CURVE",
"242 762 OFFCURVE",
"229 765 OFFCURVE",
"216 768 CURVE SMOOTH",
"186 775 OFFCURVE",
"156 779 OFFCURVE",
"125 766 CURVE SMOOTH",
"123 765 OFFCURVE",
"119 766 OFFCURVE",
"116 766 CURVE SMOOTH",
"95 769 OFFCURVE",
"73 775 OFFCURVE",
"53 772 CURVE",
"46 756 OFFCURVE",
"41 742 OFFCURVE",
"49 725 CURVE",
"53 713 OFFCURVE",
"53 699 OFFCURVE",
"40 690 CURVE SMOOTH",
"38 689 OFFCURVE",
"40 684 OFFCURVE",
"40 683 CURVE",
"46 679 OFFCURVE",
"50 674 OFFCURVE",
"59 669 CURVE",
"49 663 OFFCURVE",
"41 658 OFFCURVE",
"33 653 CURVE",
"43 643 OFFCURVE",
"49 637 OFFCURVE",
"53 631 CURVE",
"43 611 OFFCURVE",
"43 611 OFFCURVE",
"44 571 CURVE SMOOTH",
"44 549 OFFCURVE",
"51 539 OFFCURVE",
"73 540 CURVE SMOOTH",
"151 542 OFFCURVE",
"229 535 OFFCURVE",
"310 537 CURVE SMOOTH",
"327 537 OFFCURVE",
"346 535 OFFCURVE",
"363 533 CURVE SMOOTH",
"425 530 OFFCURVE",
"488 527 OFFCURVE",
"550 525 CURVE"
);
}
);
vertWidth = 620;
width = 1000;
}
);
note = cid08757;
},
{
glyphname = F.rotat;
lastChange = "2020-11-05 19:14:57 +0000";
layers = (
{
layerId = "E107BE24-86B5-4C0E-8944-467415BB13ED";
paths = (
{
closed = 1;
nodes = (
"908 421 LINE",
"913 466 OFFCURVE",
"912 743 OFFCURVE",
"907 762 CURVE",
"63 762 LINE",
"63 535 LINE",
"156 543 OFFCURVE",
"250 537 OFFCURVE",
"347 540 CURVE",
"347 484 LINE SMOOTH",
"347 463 OFFCURVE",
"348 462 OFFCURVE",
"370 461 CURVE SMOOTH",
"392 459 OFFCURVE",
"415 462 OFFCURVE",
"437 458 CURVE SMOOTH",
"475 448 OFFCURVE",
"511 459 OFFCURVE",
"552 458 CURVE",
"548 487 OFFCURVE",
"562 514 OFFCURVE",
"540 537 CURVE",
"625 537 LINE",
"616 499 OFFCURVE",
"620 462 OFFCURVE",
"620 421 CURVE"
);
}
);
vertWidth = 538;
width = 1000;
}
);
note = cid08758;
},
{
glyphname = G.rotat;
lastChange = "2020-11-05 19:14:57 +0000";
layers = (
{
layerId = "E107BE24-86B5-4C0E-8944-467415BB13ED";
paths = (
{
closed = 1;
nodes = (
"89 349 OFFCURVE",
"90 349 OFFCURVE",
"90 349 CURVE",
"90 349 OFFCURVE",
"89 349 OFFCURVE",
"89 349 CURVE"
);
},
{
closed = 1;
nodes = (
"508 366 OFFCURVE",
"559 369 OFFCURVE",
"611 370 CURVE SMOOTH",
"642 370 OFFCURVE",
"673 370 OFFCURVE",
"703 372 CURVE SMOOTH",
"724 372 OFFCURVE",
"744 374 OFFCURVE",
"764 374 CURVE SMOOTH",
"864 374 LINE",
"864 369 LINE",
"799 366 OFFCURVE",
"734 364 OFFCURVE",
"666 360 CURVE",
"666 329 OFFCURVE",
"663 302 OFFCURVE",
"665 275 CURVE SMOOTH",
"666 258 OFFCURVE",
"674 252 OFFCURVE",
"691 254 CURVE SMOOTH",
"726 255 OFFCURVE",
"762 258 OFFCURVE",
"797 259 CURVE SMOOTH",
"828 260 OFFCURVE",
"859 259 OFFCURVE",
"891 259 CURVE SMOOTH",
"898 259 OFFCURVE",
"906 260 OFFCURVE",
"915 262 CURVE",
"915 291 LINE",
"915 448 LINE SMOOTH",
"915 465 OFFCURVE",
"921 484 OFFCURVE",
"901 496 CURVE",
"899 496 OFFCURVE",
"901 500 OFFCURVE",
"899 503 CURVE",
"893 520 OFFCURVE",
"888 539 OFFCURVE",
"880 555 CURVE SMOOTH",
"863 587 OFFCURVE",
"844 618 OFFCURVE",
"825 649 CURVE SMOOTH",
"819 660 OFFCURVE",
"811 671 OFFCURVE",
"800 680 CURVE SMOOTH",
"768 707 OFFCURVE",
"736 735 OFFCURVE",
"695 752 CURVE SMOOTH",
"647 774 OFFCURVE",
"600 797 OFFCURVE",
"544 791 CURVE SMOOTH",
"518 790 OFFCURVE",
"493 790 OFFCURVE",
"466 791 CURVE SMOOTH",
"434 793 OFFCURVE",
"403 783 OFFCURVE",
"372 772 CURVE SMOOTH",
"346 764 OFFCURVE",
"321 751 OFFCURVE",
"296 742 CURVE SMOOTH",
"248 724 OFFCURVE",
"211 689 OFFCURVE",
"179 653 CURVE SMOOTH",
"148 621 OFFCURVE",
"126 581 OFFCURVE",
"105 541 CURVE",
"102 537 OFFCURVE",
"100 530 OFFCURVE",
"101 527 CURVE",
"108 516 OFFCURVE",
"101 508 OFFCURVE",
"98 499 CURVE SMOOTH",
"96 494 OFFCURVE",
"92 487 OFFCURVE",
"92 480 CURVE SMOOTH",
"92 470 OFFCURVE",
"92 461 OFFCURVE",
"84 453 CURVE",
"81 451 OFFCURVE",
"82 444 OFFCURVE",
"82 440 CURVE SMOOTH",
"81 415 OFFCURVE",
"81 390 OFFCURVE",
"82 365 CURVE SMOOTH",
"82 360 OFFCURVE",
"88 356 OFFCURVE",
"90 350 CURVE",
"90 350 OFFCURVE",
"90 349 OFFCURVE",
"90 349 CURVE",
"112 353 OFFCURVE",
"133 358 OFFCURVE",
"155 358 CURVE SMOOTH",
"254 354 OFFCURVE",
"355 368 OFFCURVE",
"455 366 CURVE SMOOTH"
);
},
{
closed = 1;
nodes = (
"305 352 OFFCURVE",
"261 350 OFFCURVE",
"218 350 CURVE SMOOTH",
"176 350 OFFCURVE",
"133 349 OFFCURVE",
"90 349 CURVE",
"79 313 OFFCURVE",
"94 276 OFFCURVE",
"86 239 CURVE",
"97 238 OFFCURVE",
"104 235 OFFCURVE",
"112 234 CURVE SMOOTH",
"138 232 OFFCURVE",
"165 232 OFFCURVE",
"191 231 CURVE SMOOTH",
"213 231 OFFCURVE",
"236 231 OFFCURVE",
"258 232 CURVE SMOOTH",
"295 232 OFFCURVE",
"331 232 OFFCURVE",
"370 234 CURVE",
"370 173 LINE SMOOTH",
"370 154 OFFCURVE",
"368 134 OFFCURVE",
"368 116 CURVE SMOOTH",
"368 103 OFFCURVE",
"374 99 OFFCURVE",
"384 99 CURVE SMOOTH",
"410 101 OFFCURVE",
"434 101 OFFCURVE",
"459 101 CURVE",
"465 102 OFFCURVE",
"470 105 OFFCURVE",
"476 106 CURVE",
"476 352 LINE",
"433 354 OFFCURVE",
"391 346 OFFCURVE",
"348 349 CURVE SMOOTH"
);
}
);
vertWidth = 872;
width = 1000;
}
);
note = cid08759;
},
{
glyphname = H.rotat;
lastChange = "2020-11-05 19:14:57 +0000";
layers = (
{
layerId = "E107BE24-86B5-4C0E-8944-467415BB13ED";
paths = (
{
closed = 1;
nodes = (
"878 486 LINE SMOOTH",
"878 496 OFFCURVE",
"872 502 OFFCURVE",
"863 502 CURVE",
"858 503 OFFCURVE",
"851 503 OFFCURVE",
"845 503 CURVE SMOOTH",
"620 503 LINE",
"590 503 LINE",
"590 573 LINE",
"603 571 OFFCURVE",
"619 560 OFFCURVE",
"636 569 CURVE SMOOTH",
"639 571 OFFCURVE",
"643 568 OFFCURVE",
"645 567 CURVE",
"664 565 OFFCURVE",
"683 564 OFFCURVE",
"703 563 CURVE SMOOTH",
"709 563 OFFCURVE",
"716 565 OFFCURVE",
"722 565 CURVE SMOOTH",
"756 564 OFFCURVE",
"789 561 OFFCURVE",
"822 560 CURVE SMOOTH",
"879 560 LINE",
"879 735 LINE SMOOTH",
"878 759 OFFCURVE",
"878 759 OFFCURVE",
"854 760 CURVE SMOOTH",
"798 762 OFFCURVE",
"742 763 OFFCURVE",
"687 766 CURVE SMOOTH",
"618 767 OFFCURVE",
"549 768 OFFCURVE",
"480 771 CURVE SMOOTH",
"429 772 OFFCURVE",
"377 772 OFFCURVE",
"327 778 CURVE SMOOTH",
"310 779 OFFCURVE",
"297 780 OFFCURVE",
"287 770 CURVE",
"267 776 OFFCURVE",
"250 780 OFFCURVE",
"231 782 CURVE SMOOTH",
"197 783 OFFCURVE",
"161 778 OFFCURVE",
"125 780 CURVE",
"106 783 OFFCURVE",
"100 764 OFFCURVE",
"102 747 CURVE",
"105 738 OFFCURVE",
"109 726 OFFCURVE",
"105 719 CURVE SMOOTH",
"98 706 OFFCURVE",
"105 699 OFFCURVE",
"112 691 CURVE",
"108 685 OFFCURVE",
"101 677 OFFCURVE",
"102 676 CURVE SMOOTH",
"114 661 OFFCURVE",
"101 649 OFFCURVE",
"101 637 CURVE SMOOTH",
"101 625 OFFCURVE",
"100 615 OFFCURVE",
"101 604 CURVE SMOOTH",
"102 589 OFFCURVE",
"108 583 OFFCURVE",
"121 583 CURVE SMOOTH",
"157 580 OFFCURVE",
"193 579 OFFCURVE",
"229 577 CURVE SMOOTH",
"262 577 OFFCURVE",
"297 576 OFFCURVE",
"331 576 CURVE SMOOTH",
"348 575 OFFCURVE",
"366 573 OFFCURVE",
"383 572 CURVE",
"383 495 LINE",
"331 495 LINE SMOOTH",
"267 496 OFFCURVE",
"205 496 OFFCURVE",
"141 498 CURVE SMOOTH",
"129 498 OFFCURVE",
"119 495 OFFCURVE",
"108 494 CURVE",
"108 303 LINE",
"878 303 LINE"
);
}
);
vertWidth = 669;
width = 1000;
}
);
note = cid08760;
},
{
glyphname = I.rotat;
lastChange = "2020-11-05 19:14:57 +0000";
layers = (
{
layerId = "E107BE24-86B5-4C0E-8944-467415BB13ED";
paths = (
{
closed = 1;
nodes = (
"774 517 OFFCURVE",
"841 514 OFFCURVE",
"909 517 CURVE",
"909 717 LINE",
"850 719 OFFCURVE",
"791 723 OFFCURVE",
"733 723 CURVE SMOOTH",
"656 726 OFFCURVE",
"580 725 OFFCURVE",
"503 726 CURVE SMOOTH",
"495 726 OFFCURVE",
"487 727 OFFCURVE",
"479 729 CURVE SMOOTH",
"470 730 OFFCURVE",
"460 735 OFFCURVE",
"451 735 CURVE SMOOTH",
"121 735 LINE SMOOTH",
"115 735 OFFCURVE",
"107 734 OFFCURVE",
"101 733 CURVE",
"101 523 LINE",
"168 513 OFFCURVE",
"235 517 OFFCURVE",
"302 517 CURVE SMOOTH",
"369 515 OFFCURVE",
"438 515 OFFCURVE",
"505 515 CURVE SMOOTH",
"707 515 LINE SMOOTH"
);
}
);
vertWidth = 515;
width = 1000;
}
);
note = cid08761;
},
{
glyphname = J.rotat;
lastChange = "2020-11-05 19:14:57 +0000";
layers = (
{
layerId = "E107BE24-86B5-4C0E-8944-467415BB13ED";
paths = (
{
closed = 1;
nodes = (
"81 458 OFFCURVE",
"116 429 OFFCURVE",
"154 402 CURVE SMOOTH",
"176 387 OFFCURVE",
"198 381 OFFCURVE",
"225 384 CURVE SMOOTH",
"243 385 OFFCURVE",
"262 384 OFFCURVE",
"282 384 CURVE SMOOTH",
"910 384 LINE SMOOTH",
"917 384 OFFCURVE",
"922 385 OFFCURVE",
"929 386 CURVE",
"929 565 LINE",
"897 565 LINE SMOOTH",
"828 565 OFFCURVE",
"760 566 OFFCURVE",
"690 565 CURVE SMOOTH",
"635 564 OFFCURVE",
"580 560 OFFCURVE",
"524 559 CURVE SMOOTH",
"445 558 OFFCURVE",
"366 559 OFFCURVE",
"288 559 CURVE SMOOTH",
"277 559 OFFCURVE",
"266 556 OFFCURVE",
"257 555 CURVE",
"255 630 OFFCURVE",
"252 705 OFFCURVE",
"250 784 CURVE",
"234 784 OFFCURVE",
"220 787 OFFCURVE",
"210 783 CURVE SMOOTH",
"177 771 OFFCURVE",
"143 759 OFFCURVE",
"116 735 CURVE SMOOTH",
"81 704 OFFCURVE",
"54 669 OFFCURVE",
"56 617 CURVE SMOOTH",
"58 587 OFFCURVE",
"60 556 OFFCURVE",
"58 526 CURVE",
"56 517 OFFCURVE",
"59 508 OFFCURVE",
"62 502 CURVE SMOOTH"
);
}
);
vertWidth = 594;
width = 1000;
}
);
note = cid08762;
},
{
glyphname = K.rotat;
lastChange = "2020-11-05 19:14:57 +0000";
layers = (
{
layerId = "E107BE24-86B5-4C0E-8944-467415BB13ED";
paths = (
{
closed = 1;
nodes = (
"89 790 OFFCURVE",
"79 787 OFFCURVE",
"71 787 CURVE",
"69 753 OFFCURVE",
"68 718 OFFCURVE",
"78 681 CURVE",
"66 674 OFFCURVE",
"65 662 OFFCURVE",
"78 653 CURVE",
"75 642 OFFCURVE",
"71 633 OFFCURVE",
"69 625 CURVE",
"68 612 OFFCURVE",
"69 600 OFFCURVE",
"69 587 CURVE SMOOTH",
"71 571 OFFCURVE",
"75 565 OFFCURVE",
"93 564 CURVE SMOOTH",
"164 562 OFFCURVE",
"235 560 OFFCURVE",
"309 558 CURVE",
"304 551 OFFCURVE",
"299 550 OFFCURVE",
"295 549 CURVE",
"266 537 OFFCURVE",
"238 525 OFFCURVE",
"214 503 CURVE SMOOTH",
"200 489 OFFCURVE",
"185 472 OFFCURVE",
"171 455 CURVE SMOOTH",
"152 429 OFFCURVE",
"127 405 OFFCURVE",
"121 369 CURVE SMOOTH",
"120 361 OFFCURVE",
"118 353 OFFCURVE",
"107 350 CURVE SMOOTH",
"91 346 OFFCURVE",
"89 329 OFFCURVE",
"87 319 CURVE",
"84 286 OFFCURVE",
"86 254 OFFCURVE",
"86 219 CURVE",
"112 215 OFFCURVE",
"759 211 OFFCURVE",
"781 221 CURVE",
"774 287 OFFCURVE",
"770 354 OFFCURVE",
"732 414 CURVE SMOOTH",
"695 472 OFFCURVE",
"653 522 OFFCURVE",
"587 549 CURVE",
"595 553 OFFCURVE",
"603 554 OFFCURVE",
"610 553 CURVE SMOOTH",
"618 553 OFFCURVE",
"627 547 OFFCURVE",
"634 549 CURVE SMOOTH",
"655 553 OFFCURVE",
"675 549 OFFCURVE",
"696 547 CURVE SMOOTH",
"737 546 OFFCURVE",
"777 543 OFFCURVE",
"816 540 CURVE SMOOTH",
"835 540 OFFCURVE",
"853 539 OFFCURVE",
"871 540 CURVE",
"881 542 OFFCURVE",
"889 543 OFFCURVE",
"900 540 CURVE SMOOTH",
"916 536 OFFCURVE",
"923 543 OFFCURVE",
"923 561 CURVE SMOOTH",
"921 597 OFFCURVE",
"921 633 OFFCURVE",
"921 671 CURVE SMOOTH",
"921 760 LINE",
"910 761 OFFCURVE",
"902 762 OFFCURVE",
"894 762 CURVE SMOOTH",
"875 761 OFFCURVE",
"856 760 OFFCURVE",
"837 760 CURVE SMOOTH",
"781 762 OFFCURVE",
"727 767 OFFCURVE",
"671 768 CURVE SMOOTH",
"578 769 OFFCURVE",
"485 771 OFFCURVE",
"391 772 CURVE SMOOTH",
"363 774 OFFCURVE",
"334 776 OFFCURVE",
"304 778 CURVE SMOOTH",
"293 779 OFFCURVE",
"281 781 OFFCURVE",
"277 772 CURVE",
"256 775 OFFCURVE",
"236 781 OFFCURVE",
"218 782 CURVE SMOOTH",
"196 783 OFFCURVE",
"173 793 OFFCURVE",
"149 778 CURVE",
"148 776 OFFCURVE",
"142 775 OFFCURVE",
"139 776 CURVE SMOOTH",
"124 782 OFFCURVE",
"107 774 OFFCURVE",
"91 787 CURVE"
);
}
);
vertWidth = 769;
width = 1000;
}
);
note = cid08763;
},
{
glyphname = L.rotat;
lastChange = "2020-11-05 19:14:57 +0000";
layers = (
{
layerId = "E107BE24-86B5-4C0E-8944-467415BB13ED";
paths = (
{
closed = 1;
nodes = (
"52 750 OFFCURVE",
"53 746 OFFCURVE",
"50 743 CURVE SMOOTH",
"39 732 OFFCURVE",
"39 721 OFFCURVE",
"48 707 CURVE",
"53 696 OFFCURVE",
"55 682 OFFCURVE",
"43 672 CURVE SMOOTH",
"42 671 OFFCURVE",
"42 668 OFFCURVE",
"42 667 CURVE",
"46 661 OFFCURVE",
"52 656 OFFCURVE",
"56 650 CURVE",
"52 639 OFFCURVE",
"42 628 OFFCURVE",
"53 616 CURVE",
"53 614 OFFCURVE",
"53 610 OFFCURVE",
"50 607 CURVE SMOOTH",
"37 591 OFFCURVE",
"41 570 OFFCURVE",
"41 551 CURVE SMOOTH",
"41 534 OFFCURVE",
"49 527 OFFCURVE",
"66 526 CURVE SMOOTH",
"118 524 OFFCURVE",
"170 522 OFFCURVE",
"220 520 CURVE SMOOTH",
"242 519 OFFCURVE",
"263 519 OFFCURVE",
"285 518 CURVE SMOOTH",
"337 518 LINE",
"362 516 OFFCURVE",
"387 512 OFFCURVE",
"412 512 CURVE SMOOTH",
"459 515 OFFCURVE",
"506 513 OFFCURVE",
"553 506 CURVE SMOOTH",
"570 504 OFFCURVE",
"588 502 OFFCURVE",
"599 518 CURVE",
"620 512 OFFCURVE",
"636 498 OFFCURVE",
"657 512 CURVE SMOOTH",
"658 513 OFFCURVE",
"662 513 OFFCURVE",
"664 512 CURVE",
"678 500 OFFCURVE",
"693 505 OFFCURVE",
"708 504 CURVE SMOOTH",
"725 504 OFFCURVE",
"740 506 OFFCURVE",
"757 506 CURVE SMOOTH",
"811 504 OFFCURVE",
"866 501 OFFCURVE",
"920 498 CURVE SMOOTH",
"931 498 OFFCURVE",
"938 504 OFFCURVE",
"942 511 CURVE",
"924 583 OFFCURVE",
"946 655 OFFCURVE",
"932 725 CURVE",
"930 726 OFFCURVE",
"925 728 OFFCURVE",
"921 728 CURVE SMOOTH",
"889 729 OFFCURVE",
"859 729 OFFCURVE",
"829 731 CURVE SMOOTH",
"777 732 OFFCURVE",
"725 732 OFFCURVE",
"672 733 CURVE SMOOTH",
"618 736 OFFCURVE",
"563 740 OFFCURVE",
"509 742 CURVE SMOOTH",
"445 743 OFFCURVE",
"382 743 OFFCURVE",
"318 744 CURVE SMOOTH",
"299 744 OFFCURVE",
"278 756 OFFCURVE",
"258 739 CURVE",
"258 739 OFFCURVE",
"256 739 OFFCURVE",
"254 740 CURVE SMOOTH",
"240 744 OFFCURVE",
"227 750 OFFCURVE",
"211 753 CURVE SMOOTH",
"191 756 OFFCURVE",
"170 761 OFFCURVE",
"152 746 CURVE",
"146 749 OFFCURVE",
"138 754 OFFCURVE",
"137 753 CURVE SMOOTH",
"127 742 OFFCURVE",
"117 747 OFFCURVE",
"106 749 CURVE SMOOTH",
"97 750 OFFCURVE",
"91 747 OFFCURVE",
"82 749 CURVE SMOOTH",
"73 750 OFFCURVE",
"64 754 OFFCURVE",
"55 757 CURVE"
);
},
{
closed = 1;
nodes = (
"45 509 OFFCURVE",
"41 505 OFFCURVE",
"41 486 CURVE SMOOTH",
"41 415 LINE SMOOTH",
"41 390 OFFCURVE",
"45 386 OFFCURVE",
"71 385 CURVE SMOOTH",
"126 382 OFFCURVE",
"181 378 OFFCURVE",
"236 375 CURVE SMOOTH",
"268 374 OFFCURVE",
"300 375 OFFCURVE",
"332 375 CURVE",
"339 416 OFFCURVE",
"336 457 OFFCURVE",
"335 498 CURVE",
"319 500 OFFCURVE",
"308 500 OFFCURVE",
"296 501 CURVE SMOOTH",
"275 501 OFFCURVE",
"254 498 OFFCURVE",
"235 501 CURVE SMOOTH",
"177 512 OFFCURVE",
"121 509 OFFCURVE",
"64 509 CURVE SMOOTH"
);
}
);
vertWidth = 606;
width = 1000;
}
);
note = cid08764;
},
{
glyphname = M.rotat;
lastChange = "2020-11-05 19:14:57 +0000";
layers = (
{
layerId = "E107BE24-86B5-4C0E-8944-467415BB13ED";
paths = (
{
closed = 1;
nodes = (
"889 199 OFFCURVE",
"940 241 OFFCURVE",
"934 305 CURVE SMOOTH",
"932 318 OFFCURVE",
"934 331 OFFCURVE",
"934 342 CURVE SMOOTH",
"935 390 OFFCURVE",
"911 425 OFFCURVE",
"876 452 CURVE SMOOTH",
"865 460 OFFCURVE",
"852 467 OFFCURVE",
"838 476 CURVE",
"870 488 OFFCURVE",
"892 505 OFFCURVE",
"911 526 CURVE SMOOTH",
"926 542 OFFCURVE",
"934 561 OFFCURVE",
"934 584 CURVE SMOOTH",
"934 656 LINE SMOOTH",
"934 680 OFFCURVE",
"924 699 OFFCURVE",
"908 715 CURVE SMOOTH",
"891 732 OFFCURVE",
"870 745 OFFCURVE",
"849 763 CURVE",
"849 764 OFFCURVE",
"851 771 OFFCURVE",
"851 774 CURVE",
"833 776 OFFCURVE",
"819 777 OFFCURVE",
"804 777 CURVE SMOOTH",
"796 776 OFFCURVE",
"788 772 OFFCURVE",
"780 771 CURVE SMOOTH",
"777 771 OFFCURVE",
"772 768 OFFCURVE",
"769 768 CURVE SMOOTH",
"702 769 OFFCURVE",
"636 771 OFFCURVE",
"569 772 CURVE SMOOTH",
"534 772 OFFCURVE",
"497 774 OFFCURVE",
"462 776 CURVE SMOOTH",
"434 776 OFFCURVE",
"409 779 OFFCURVE",
"383 776 CURVE SMOOTH",
"334 771 OFFCURVE",
"284 795 OFFCURVE",
"236 776 CURVE",
"233 776 OFFCURVE",
"231 776 OFFCURVE",
"228 777 CURVE",
"209 787 OFFCURVE",
"186 788 OFFCURVE",
"162 787 CURVE SMOOTH",
"83 787 LINE SMOOTH",
"66 787 OFFCURVE",
"54 771 OFFCURVE",
"62 755 CURVE SMOOTH",
"69 742 OFFCURVE",
"70 729 OFFCURVE",
"59 720 CURVE",
"64 713 OFFCURVE",
"67 708 OFFCURVE",
"72 702 CURVE",
"67 699 OFFCURVE",
"62 697 OFFCURVE",
"59 696 CURVE",
"62 688 OFFCURVE",
"67 681 OFFCURVE",
"70 673 CURVE",
"54 665 OFFCURVE",
"58 649 OFFCURVE",
"58 636 CURVE SMOOTH",
"58 609 OFFCURVE",
"64 603 OFFCURVE",
"90 601 CURVE SMOOTH",
"130 600 OFFCURVE",
"170 600 OFFCURVE",
"210 598 CURVE",
"223 596 OFFCURVE",
"237 593 OFFCURVE",
"252 593 CURVE SMOOTH",
"282 593 OFFCURVE",
"313 595 OFFCURVE",
"343 595 CURVE SMOOTH",
"398 596 OFFCURVE",
"454 577 OFFCURVE",
"510 595 CURVE",
"526 587 OFFCURVE",
"543 588 OFFCURVE",
"561 590 CURVE",
"582 590 OFFCURVE",
"601 587 OFFCURVE",
"622 585 CURVE SMOOTH",
"657 584 OFFCURVE",
"690 582 OFFCURVE",
"729 580 CURVE",
"682 553 OFFCURVE",
"649 521 OFFCURVE",
"652 464 CURVE SMOOTH",
"654 411 OFFCURVE",
"686 380 OFFCURVE",
"735 358 CURVE",
"72 358 LINE",
"70 348 OFFCURVE",
"69 342 OFFCURVE",
"69 337 CURVE SMOOTH",
"67 313 OFFCURVE",
"66 291 OFFCURVE",
"62 268 CURVE",
"61 247 OFFCURVE",
"59 228 OFFCURVE",
"58 207 CURVE SMOOTH",
"58 185 OFFCURVE",
"61 183 OFFCURVE",
"83 183 CURVE SMOOTH",
"124 180 OFFCURVE",
"165 179 OFFCURVE",
"205 177 CURVE SMOOTH",
"271 177 OFFCURVE",
"338 175 OFFCURVE",
"406 175 CURVE SMOOTH",
"457 175 OFFCURVE",
"508 177 OFFCURVE",
"559 177 CURVE SMOOTH",
"598 177 OFFCURVE",
"636 171 OFFCURVE",
"671 177 CURVE SMOOTH",
"705 183 OFFCURVE",
"737 174 OFFCURVE",
"770 180 CURVE SMOOTH",
"772 180 OFFCURVE",
"777 179 OFFCURVE",
"778 175 CURVE",
"786 164 OFFCURVE",
"798 166 OFFCURVE",
"809 169 CURVE SMOOTH",
"822 174 OFFCURVE",
"835 177 OFFCURVE",
"847 182 CURVE SMOOTH"
);
}
);
vertWidth = 783;
width = 1000;
}
);
note = cid08765;
},
{
glyphname = N.rotat;
lastChange = "2020-11-05 19:14:57 +0000";
layers = (
{
layerId = "E107BE24-86B5-4C0E-8944-467415BB13ED";
paths = (
{
closed = 1;
nodes = (
"405 769 LINE",
"119 769 LINE SMOOTH",
"94 769 OFFCURVE",
"92 768 OFFCURVE",
"92 744 CURVE SMOOTH",
"92 602 LINE SMOOTH",
"92 596 OFFCURVE",
"94 589 OFFCURVE",
"94 579 CURVE",
"172 577 OFFCURVE",
"249 573 OFFCURVE",
"326 570 CURVE",
"252 535 OFFCURVE",
"179 503 OFFCURVE",
"105 472 CURVE SMOOTH",
"95 468 OFFCURVE",
"92 462 OFFCURVE",
"92 453 CURVE",
"88 421 OFFCURVE",
"96 387 OFFCURVE",
"94 353 CURVE SMOOTH",
"91 329 OFFCURVE",
"96 302 OFFCURVE",
"98 278 CURVE SMOOTH",
"98 270 OFFCURVE",
"99 263 OFFCURVE",
"99 257 CURVE",
"888 257 LINE",
"888 286 LINE SMOOTH",
"886 336 OFFCURVE",
"885 386 OFFCURVE",
"885 437 CURVE SMOOTH",
"885 465 OFFCURVE",
"885 466 OFFCURVE",
"857 466 CURVE SMOOTH",
"651 466 LINE",
"624 466 LINE",
"624 470 LINE",
"712 507 OFFCURVE",
"799 543 OFFCURVE",
"885 579 CURVE",
"885 769 LINE",
"854 769 LINE"
);
}
);
vertWidth = 722;
width = 1000;
}
);
note = cid08766;
},
{
glyphname = O.rotat;
lastChange = "2020-11-05 19:14:57 +0000";
layers = (
{
layerId = "E107BE24-86B5-4C0E-8944-467415BB13ED";
paths = (
{
closed = 1;
nodes = (
"105 535 OFFCURVE",
"101 496 OFFCURVE",
"96 459 CURVE SMOOTH",
"93 446 OFFCURVE",
"97 432 OFFCURVE",
"114 431 CURVE SMOOTH",
"139 429 OFFCURVE",
"170 422 OFFCURVE",
"191 432 CURVE SMOOTH",
"227 449 OFFCURVE",
"260 436 OFFCURVE",
"295 435 CURVE SMOOTH",
"300 435 OFFCURVE",
"305 432 OFFCURVE",
"310 432 CURVE SMOOTH",
"387 436 OFFCURVE",
"464 441 OFFCURVE",
"539 444 CURVE SMOOTH",
"564 445 OFFCURVE",
"589 438 OFFCURVE",
"614 437 CURVE SMOOTH",
"656 435 OFFCURVE",
"697 433 OFFCURVE",
"739 432 CURVE SMOOTH",
"786 429 OFFCURVE",
"832 427 OFFCURVE",
"884 425 CURVE",
"884 453 OFFCURVE",
"889 479 OFFCURVE",
"884 501 CURVE SMOOTH",
"848 648 OFFCURVE",
"769 759 OFFCURVE",
"627 822 CURVE SMOOTH",
"612 828 OFFCURVE",
"592 832 OFFCURVE",
"575 832 CURVE SMOOTH",
"517 833 OFFCURVE",
"458 833 OFFCURVE",
"399 833 CURVE",
"388 832 OFFCURVE",
"375 835 OFFCURVE",
"366 829 CURVE",
"322 807 OFFCURVE",
"274 792 OFFCURVE",
"236 757 CURVE SMOOTH",
"180 703 OFFCURVE",
"140 641 OFFCURVE",
"116 570 CURVE SMOOTH"
);
},
{
closed = 1;
nodes = (
"515 -8 OFFCURVE",
"538 -12 OFFCURVE",
"557 -7 CURVE SMOOTH",
"656 20 OFFCURVE",
"744 63 OFFCURVE",
"804 153 CURVE SMOOTH",
"848 220 OFFCURVE",
"869 293 OFFCURVE",
"871 372 CURVE",
"873 383 OFFCURVE",
"867 393 OFFCURVE",
"863 406 CURVE",
"602 398 OFFCURVE",
"344 390 OFFCURVE",
"84 384 CURVE",
"84 344 OFFCURVE",
"77 313 OFFCURVE",
"85 284 CURVE SMOOTH",
"107 196 OFFCURVE",
"151 119 OFFCURVE",
"225 63 CURVE SMOOTH",
"290 16 OFFCURVE",
"357 -20 OFFCURVE",
"440 -10 CURVE SMOOTH",
"458 -7 OFFCURVE",
"477 -8 OFFCURVE",
"495 -8 CURVE SMOOTH"
);
}
);
vertWidth = 940;
width = 1000;
}
);
note = cid08767;
},
{
glyphname = P.rotat;
lastChange = "2020-11-05 19:14:57 +0000";
layers = (
{
layerId = "E107BE24-86B5-4C0E-8944-467415BB13ED";
paths = (
{
closed = 1;
nodes = (
"453 542 OFFCURVE",
"446 537 OFFCURVE",
"449 520 CURVE SMOOTH",
"453 500 OFFCURVE",
"457 478 OFFCURVE",
"464 459 CURVE SMOOTH",
"476 427 OFFCURVE",
"494 398 OFFCURVE",
"519 374 CURVE SMOOTH",
"550 342 OFFCURVE",
"585 315 OFFCURVE",
"634 319 CURVE SMOOTH",
"668 321 OFFCURVE",
"702 317 OFFCURVE",
"735 320 CURVE SMOOTH",
"751 321 OFFCURVE",
"770 325 OFFCURVE",
"785 333 CURVE SMOOTH",
"804 342 OFFCURVE",
"821 355 OFFCURVE",
"837 368 CURVE SMOOTH",
"851 378 OFFCURVE",
"863 389 OFFCURVE",
"871 401 CURVE SMOOTH",
"884 419 OFFCURVE",
"895 438 OFFCURVE",
"902 457 CURVE SMOOTH",
"913 484 OFFCURVE",
"922 511 OFFCURVE",
"913 542 CURVE",
"894 543 OFFCURVE",
"874 545 OFFCURVE",
"854 546 CURVE",
"870 549 OFFCURVE",
"887 549 OFFCURVE",
"902 549 CURVE SMOOTH",
"919 550 OFFCURVE",
"924 556 OFFCURVE",
"921 571 CURVE SMOOTH",
"913 603 OFFCURVE",
"918 635 OFFCURVE",
"919 667 CURVE SMOOTH",
"920 699 OFFCURVE",
"919 731 OFFCURVE",
"919 763 CURVE",
"912 764 OFFCURVE",
"909 766 OFFCURVE",
"906 766 CURVE SMOOTH",
"855 767 OFFCURVE",
"803 768 OFFCURVE",
"752 769 CURVE SMOOTH",
"719 771 OFFCURVE",
"686 771 OFFCURVE",
"653 772 CURVE SMOOTH",
"567 774 OFFCURVE",
"482 777 OFFCURVE",
"397 780 CURVE SMOOTH",
"370 782 OFFCURVE",
"342 780 OFFCURVE",
"316 786 CURVE",
"299 788 OFFCURVE",
"286 787 OFFCURVE",
"279 779 CURVE",
"265 783 OFFCURVE",
"255 787 OFFCURVE",
"246 787 CURVE SMOOTH",
"192 788 OFFCURVE",
"139 787 OFFCURVE",
"86 787 CURVE SMOOTH",
"84 787 OFFCURVE",
"81 786 OFFCURVE",
"77 785 CURVE",
"76 753 OFFCURVE",
"72 721 OFFCURVE",
"81 694 CURVE",
"80 681 OFFCURVE",
"75 670 OFFCURVE",
"79 664 CURVE",
"82 655 OFFCURVE",
"77 650 OFFCURVE",
"77 645 CURVE SMOOTH",
"76 623 OFFCURVE",
"76 601 OFFCURVE",
"76 575 CURVE",
"91 575 OFFCURVE",
"103 574 OFFCURVE",
"115 573 CURVE SMOOTH",
"146 571 OFFCURVE",
"178 567 OFFCURVE",
"210 567 CURVE SMOOTH",
"289 563 OFFCURVE",
"369 563 OFFCURVE",
"447 561 CURVE SMOOTH",
"484 560 OFFCURVE",
"521 557 OFFCURVE",
"557 557 CURVE SMOOTH",
"570 556 OFFCURVE",
"585 551 OFFCURVE",
"596 563 CURVE SMOOTH",
"597 564 OFFCURVE",
"602 563 OFFCURVE",
"605 562 CURVE SMOOTH",
"621 558 OFFCURVE",
"638 552 OFFCURVE",
"654 560 CURVE",
"658 561 OFFCURVE",
"663 559 OFFCURVE",
"668 557 CURVE SMOOTH",
"690 550 OFFCURVE",
"713 550 OFFCURVE",
"735 556 CURVE SMOOTH",
"740 557 OFFCURVE",
"745 556 OFFCURVE",
"750 556 CURVE",
"762 554 OFFCURVE",
"774 551 OFFCURVE",
"787 550 CURVE SMOOTH",
"802 549 OFFCURVE",
"817 549 OFFCURVE",
"832 549 CURVE",
"824 545 OFFCURVE",
"816 543 OFFCURVE",
"808 543 CURVE SMOOTH",
"703 545 OFFCURVE",
"598 546 OFFCURVE",
"492 547 CURVE SMOOTH",
"484 547 OFFCURVE",
"477 547 OFFCURVE",
"469 546 CURVE SMOOTH"
);
}
);
vertWidth = 669;
width = 1000;
}
);
note = cid08768;
},
{
glyphname = Q.rotat;
lastChange = "2020-11-05 19:14:57 +0000";
layers = (
{
layerId = "E107BE24-86B5-4C0E-8944-467415BB13ED";
paths = (
{
closed = 1;
nodes = (
"336 -17 OFFCURVE",
"388 -33 OFFCURVE",
"442 -36 CURVE SMOOTH",
"551 -43 OFFCURVE",
"649 -12 OFFCURVE",
"730 67 CURVE SMOOTH",
"796 133 OFFCURVE",
"836 209 OFFCURVE",
"856 297 CURVE SMOOTH",
"862 322 OFFCURVE",
"864 350 OFFCURVE",
"850 378 CURVE",
"739 374 OFFCURVE",
"629 374 OFFCURVE",
"519 365 CURVE SMOOTH",
"426 357 OFFCURVE",
"339 367 OFFCURVE",
"251 406 CURVE",
"258 408 OFFCURVE",
"262 409 OFFCURVE",
"265 408 CURVE",
"334 405 OFFCURVE",
"404 401 OFFCURVE",
"474 400 CURVE SMOOTH",
"593 397 OFFCURVE",
"711 396 OFFCURVE",
"829 393 CURVE SMOOTH",
"860 393 OFFCURVE",
"868 397 OFFCURVE",
"867 429 CURVE SMOOTH",
"866 464 OFFCURVE",
"863 502 OFFCURVE",
"854 536 CURVE SMOOTH",
"835 607 OFFCURVE",
"799 667 OFFCURVE",
"742 714 CURVE SMOOTH",
"663 779 OFFCURVE",
"577 827 OFFCURVE",
"469 819 CURVE SMOOTH",
"457 818 OFFCURVE",
"445 819 OFFCURVE",
"433 819 CURVE SMOOTH",
"426 819 OFFCURVE",
"419 819 OFFCURVE",
"412 817 CURVE",
"371 798 OFFCURVE",
"328 779 OFFCURVE",
"287 756 CURVE SMOOTH",
"196 701 OFFCURVE",
"126 630 OFFCURVE",
"100 522 CURVE SMOOTH",
"92 491 OFFCURVE",
"87 459 OFFCURVE",
"78 424 CURVE",
"123 418 OFFCURVE",
"162 413 OFFCURVE",
"203 408 CURVE",
"197 390 OFFCURVE",
"193 377 OFFCURVE",
"189 359 CURVE",
"84 359 LINE",
"73 281 OFFCURVE",
"84 213 OFFCURVE",
"123 150 CURVE SMOOTH",
"129 140 OFFCURVE",
"127 127 OFFCURVE",
"126 116 CURVE SMOOTH",
"119 76 OFFCURVE",
"113 37 OFFCURVE",
"104 -2 CURVE SMOOTH",
"100 -21 OFFCURVE",
"105 -35 OFFCURVE",
"122 -40 CURVE SMOOTH",
"168 -54 OFFCURVE",
"212 -71 OFFCURVE",
"263 -58 CURVE",
"271 -36 OFFCURVE",
"279 -13 OFFCURVE",
"287 11 CURVE"
);
}
);
vertWidth = 1000;
width = 1000;
}
);
note = cid08769;
},
{
glyphname = R.rotat;
lastChange = "2020-11-05 19:14:57 +0000";
layers = (
{
layerId = "E107BE24-86B5-4C0E-8944-467415BB13ED";
paths = (
{
closed = 1;
nodes = (
"841 337 OFFCURVE",
"871 373 OFFCURVE",
"888 422 CURVE",
"900 436 OFFCURVE",
"900 439 OFFCURVE",
"900 439 CURVE",
"901 443 OFFCURVE",
"902 451 OFFCURVE",
"906 456 CURVE SMOOTH",
"915 471 OFFCURVE",
"912 485 OFFCURVE",
"909 501 CURVE SMOOTH",
"905 516 OFFCURVE",
"897 520 OFFCURVE",
"883 518 CURVE SMOOTH",
"872 516 OFFCURVE",
"863 515 OFFCURVE",
"853 515 CURVE SMOOTH",
"836 515 OFFCURVE",
"819 518 OFFCURVE",
"803 518 CURVE SMOOTH",
"725 516 OFFCURVE",
"649 515 OFFCURVE",
"573 514 CURVE SMOOTH",
"543 513 OFFCURVE",
"515 509 OFFCURVE",
"485 507 CURVE SMOOTH",
"472 506 OFFCURVE",
"454 504 OFFCURVE",
"445 510 CURVE",
"428 525 OFFCURVE",
"419 514 OFFCURVE",
"407 504 CURVE",
"401 514 OFFCURVE",
"394 519 OFFCURVE",
"381 518 CURVE SMOOTH",
"358 515 OFFCURVE",
"335 515 OFFCURVE",
"310 514 CURVE SMOOTH",
"264 511 OFFCURVE",
"217 510 OFFCURVE",
"172 506 CURVE SMOOTH",
"139 504 OFFCURVE",
"105 507 OFFCURVE",
"71 497 CURVE SMOOTH",
"52 491 OFFCURVE",
"48 487 OFFCURVE",
"48 467 CURVE SMOOTH",
"48 439 OFFCURVE",
"47 412 OFFCURVE",
"48 383 CURVE SMOOTH",
"48 372 OFFCURVE",
"53 360 OFFCURVE",
"56 347 CURVE",
"97 347 LINE SMOOTH",
"210 350 OFFCURVE",
"323 343 OFFCURVE",
"437 352 CURVE SMOOTH",
"467 355 OFFCURVE",
"471 356 OFFCURVE",
"471 386 CURVE SMOOTH",
"471 443 LINE",
"480 413 OFFCURVE",
"490 385 OFFCURVE",
"511 361 CURVE SMOOTH",
"529 341 OFFCURVE",
"549 320 OFFCURVE",
"573 306 CURVE",
"596 289 OFFCURVE",
"626 283 OFFCURVE",
"655 287 CURVE SMOOTH",
"676 289 OFFCURVE",
"698 288 OFFCURVE",
"719 287 CURVE SMOOTH",
"750 284 OFFCURVE",
"775 298 OFFCURVE",
"800 312 CURVE SMOOTH"
);
},
{
closed = 1;
nodes = (
"443 532 OFFCURVE",
"454 533 OFFCURVE",
"464 533 CURVE SMOOTH",
"503 532 OFFCURVE",
"543 528 OFFCURVE",
"583 528 CURVE SMOOTH",
"626 528 OFFCURVE",
"668 536 OFFCURVE",
"711 532 CURVE SMOOTH",
"754 528 OFFCURVE",
"796 527 OFFCURVE",
"839 529 CURVE SMOOTH",
"863 529 OFFCURVE",
"887 533 OFFCURVE",
"911 536 CURVE",
"911 764 LINE",
"49 764 LINE",
"49 541 LINE",
"56 540 OFFCURVE",
"61 536 OFFCURVE",
"67 536 CURVE SMOOTH",
"118 533 OFFCURVE",
"167 533 OFFCURVE",
"215 529 CURVE SMOOTH",
"250 525 OFFCURVE",
"283 535 OFFCURVE",
"318 529 CURVE SMOOTH",
"356 524 OFFCURVE",
"394 531 OFFCURVE",
"433 531 CURVE"
);
}
);
vertWidth = 726;
width = 1000;
}
);
note = cid08770;
},
{
glyphname = S.rotat;
lastChange = "2020-11-05 19:14:57 +0000";
layers = (
{
layerId = "E107BE24-86B5-4C0E-8944-467415BB13ED";
paths = (
{
closed = 1;
nodes = (
"191 567 LINE",
"175 565 OFFCURVE",
"159 562 OFFCURVE",
"142 561 CURVE",
"142 567 LINE"
);
},
{
closed = 1;
nodes = (
"538 731 OFFCURVE",
"505 677 OFFCURVE",
"486 616 CURVE SMOOTH",
"482 603 OFFCURVE",
"479 589 OFFCURVE",
"475 574 CURVE",
"430 573 OFFCURVE",
"388 570 OFFCURVE",
"346 570 CURVE SMOOTH",
"301 568 OFFCURVE",
"254 568 OFFCURVE",
"209 568 CURVE",
"217 570 OFFCURVE",
"225 571 OFFCURVE",
"234 573 CURVE",
"259 574 OFFCURVE",
"284 570 OFFCURVE",
"312 577 CURVE",
"310 592 OFFCURVE",
"308 606 OFFCURVE",
"304 620 CURVE SMOOTH",
"297 647 OFFCURVE",
"276 662 OFFCURVE",
"256 679 CURVE SMOOTH",
"226 704 OFFCURVE",
"160 712 OFFCURVE",
"125 693 CURVE SMOOTH",
"91 673 OFFCURVE",
"69 642 OFFCURVE",
"59 603 CURVE",
"56 596 OFFCURVE",
"57 586 OFFCURVE",
"52 581 CURVE SMOOTH",
"45 573 OFFCURVE",
"43 564 OFFCURVE",
"48 553 CURVE SMOOTH",
"50 546 OFFCURVE",
"49 538 OFFCURVE",
"49 529 CURVE SMOOTH",
"52 475 OFFCURVE",
"73 426 OFFCURVE",
"112 391 CURVE SMOOTH",
"149 356 OFFCURVE",
"189 322 OFFCURVE",
"248 331 CURVE",
"263 332 OFFCURVE",
"280 331 OFFCURVE",
"297 331 CURVE",
"322 328 OFFCURVE",
"345 335 OFFCURVE",
"367 345 CURVE SMOOTH",
"449 380 OFFCURVE",
"497 441 OFFCURVE",
"507 531 CURVE SMOOTH",
"507 536 OFFCURVE",
"508 542 OFFCURVE",
"510 547 CURVE",
"581 554 OFFCURVE",
"652 553 OFFCURVE",
"722 554 CURVE SMOOTH",
"795 556 OFFCURVE",
"866 549 OFFCURVE",
"942 546 CURVE",
"942 564 OFFCURVE",
"947 584 OFFCURVE",
"942 600 CURVE SMOOTH",
"923 647 OFFCURVE",
"904 694 OFFCURVE",
"866 729 CURVE SMOOTH",
"827 764 OFFCURVE",
"784 793 OFFCURVE",
"726 788 CURVE",
"715 786 OFFCURVE",
"704 786 OFFCURVE",
"691 788 CURVE SMOOTH",
"656 792 OFFCURVE",
"626 781 OFFCURVE",
"595 763 CURVE SMOOTH"
);
},
{
closed = 1;
nodes = (
"849 547 OFFCURVE",
"758 546 OFFCURVE",
"669 546 CURVE",
"654 519 OFFCURVE",
"665 497 OFFCURVE",
"673 476 CURVE SMOOTH",
"696 426 OFFCURVE",
"736 398 OFFCURVE",
"791 395 CURVE SMOOTH",
"849 391 OFFCURVE",
"890 426 OFFCURVE",
"921 472 CURVE SMOOTH",
"933 489 OFFCURVE",
"940 512 OFFCURVE",
"942 536 CURVE"
);
}
);
vertWidth = 666;
width = 1000;
}
);
note = cid08771;
},
{
glyphname = T.rotat;
lastChange = "2020-11-05 19:14:57 +0000";
layers = (
{
layerId = "E107BE24-86B5-4C0E-8944-467415BB13ED";
paths = (
{
closed = 1;
nodes = (
"741 772 LINE",
"741 567 LINE",
"738 567 LINE",
"738 671 LINE",
"697 673 OFFCURVE",
"661 674 OFFCURVE",
"624 675 CURVE SMOOTH",
"588 676 OFFCURVE",
"550 678 OFFCURVE",
"514 679 CURVE SMOOTH",
"478 679 OFFCURVE",
"440 679 OFFCURVE",
"404 680 CURVE SMOOTH",
"368 682 OFFCURVE",
"331 683 OFFCURVE",
"294 684 CURVE SMOOTH",
"260 685 OFFCURVE",
"223 684 OFFCURVE",
"189 688 CURVE SMOOTH",
"154 692 OFFCURVE",
"118 688 OFFCURVE",
"81 687 CURVE",
"81 519 LINE",
"87 519 OFFCURVE",
"93 518 OFFCURVE",
"98 518 CURVE SMOOTH",
"155 516 OFFCURVE",
"210 515 OFFCURVE",
"269 514 CURVE SMOOTH",
"298 512 OFFCURVE",
"329 507 OFFCURVE",
"359 509 CURVE SMOOTH",
"403 510 OFFCURVE",
"446 503 OFFCURVE",
"489 511 CURVE SMOOTH",
"508 514 OFFCURVE",
"528 506 OFFCURVE",
"548 505 CURVE",
"559 503 OFFCURVE",
"572 501 OFFCURVE",
"585 502 CURVE SMOOTH",
"597 503 OFFCURVE",
"607 503 OFFCURVE",
"619 502 CURVE SMOOTH",
"659 501 OFFCURVE",
"700 502 OFFCURVE",
"741 502 CURVE",
"745 465 OFFCURVE",
"749 425 OFFCURVE",
"753 386 CURVE",
"893 386 LINE",
"894 430 OFFCURVE",
"896 472 OFFCURVE",
"896 514 CURVE SMOOTH",
"896 590 OFFCURVE",
"895 666 OFFCURVE",
"894 742 CURVE SMOOTH",
"894 751 OFFCURVE",
"894 762 OFFCURVE",
"893 772 CURVE",
"818 772 LINE"
);
}
);
vertWidth = 584;
width = 1000;
}
);
note = cid08772;
},
{
glyphname = U.rotat;
lastChange = "2020-11-05 19:14:57 +0000";
layers = (
{
layerId = "E107BE24-86B5-4C0E-8944-467415BB13ED";
paths = (
{
closed = 1;
nodes = (
"150 759 OFFCURVE",
"130 745 OFFCURVE",
"113 731 CURVE SMOOTH",
"81 705 OFFCURVE",
"56 671 OFFCURVE",
"50 633 CURVE SMOOTH",
"45 582 OFFCURVE",
"42 529 OFFCURVE",
"70 481 CURVE SMOOTH",
"104 424 OFFCURVE",
"150 389 OFFCURVE",
"215 380 CURVE SMOOTH",
"234 378 OFFCURVE",
"252 382 OFFCURVE",
"269 380 CURVE",
"331 379 OFFCURVE",
"392 378 OFFCURVE",
"453 375 CURVE SMOOTH",
"494 373 OFFCURVE",
"536 371 OFFCURVE",
"577 369 CURVE SMOOTH",
"596 368 OFFCURVE",
"618 368 OFFCURVE",
"639 369 CURVE SMOOTH",
"659 369 OFFCURVE",
"679 371 OFFCURVE",
"698 369 CURVE SMOOTH",
"735 366 OFFCURVE",
"774 366 OFFCURVE",
"810 365 CURVE SMOOTH",
"839 365 OFFCURVE",
"867 366 OFFCURVE",
"896 363 CURVE SMOOTH",
"910 362 OFFCURVE",
"921 358 OFFCURVE",
"930 371 CURVE",
"918 426 OFFCURVE",
"928 480 OFFCURVE",
"922 534 CURVE",
"915 535 OFFCURVE",
"910 538 OFFCURVE",
"904 538 CURVE SMOOTH",
"853 539 OFFCURVE",
"802 541 OFFCURVE",
"751 542 CURVE SMOOTH",
"707 542 OFFCURVE",
"663 543 OFFCURVE",
"619 545 CURVE SMOOTH",
"570 546 OFFCURVE",
"521 549 OFFCURVE",
"472 552 CURVE SMOOTH",
"459 552 OFFCURVE",
"445 549 OFFCURVE",
"433 553 CURVE SMOOTH",
"419 558 OFFCURVE",
"411 541 OFFCURVE",
"397 549 CURVE SMOOTH",
"385 556 OFFCURVE",
"370 555 OFFCURVE",
"357 556 CURVE",
"350 558 OFFCURVE",
"343 556 OFFCURVE",
"336 555 CURVE SMOOTH",
"307 549 OFFCURVE",
"279 551 OFFCURVE",
"252 562 CURVE",
"252 597 LINE",
"360 597 LINE SMOOTH",
"523 597 OFFCURVE",
"684 596 OFFCURVE",
"847 596 CURVE SMOOTH",
"864 596 OFFCURVE",
"880 595 OFFCURVE",
"896 596 CURVE SMOOTH",
"911 596 OFFCURVE",
"915 602 OFFCURVE",
"915 616 CURVE SMOOTH",
"914 661 OFFCURVE",
"913 708 OFFCURVE",
"910 755 CURVE SMOOTH",
"910 759 OFFCURVE",
"908 763 OFFCURVE",
"907 769 CURVE",
"884 769 LINE",
"276 769 LINE",
"229 769 LINE",
"210 767 OFFCURVE",
"188 772 OFFCURVE",
"171 766 CURVE SMOOTH"
);
}
);
vertWidth = 621;
width = 1000;
}
);
note = cid08773;
},
{
glyphname = V.rotat;
lastChange = "2020-11-05 19:14:57 +0000";
layers = (
{
layerId = "E107BE24-86B5-4C0E-8944-467415BB13ED";
paths = (
{
closed = 1;
nodes = (
"906 268 OFFCURVE",
"919 327 OFFCURVE",
"933 387 CURVE SMOOTH",
"935 393 OFFCURVE",
"935 399 OFFCURVE",
"935 406 CURVE SMOOTH",
"935 415 OFFCURVE",
"932 420 OFFCURVE",
"922 422 CURVE SMOOTH",
"877 432 OFFCURVE",
"830 444 OFFCURVE",
"785 454 CURVE SMOOTH",
"747 464 OFFCURVE",
"711 474 OFFCURVE",
"673 483 CURVE SMOOTH",
"636 493 OFFCURVE",
"598 502 OFFCURVE",
"553 513 CURVE",
"624 532 OFFCURVE",
"689 548 OFFCURVE",
"753 565 CURVE SMOOTH",
"819 584 OFFCURVE",
"881 606 OFFCURVE",
"949 622 CURVE",
"945 634 OFFCURVE",
"943 642 OFFCURVE",
"940 651 CURVE SMOOTH",
"933 677 OFFCURVE",
"923 703 OFFCURVE",
"916 729 CURVE SMOOTH",
"913 745 OFFCURVE",
"916 763 OFFCURVE",
"909 777 CURVE SMOOTH",
"903 790 OFFCURVE",
"898 803 OFFCURVE",
"893 818 CURVE",
"890 818 OFFCURVE",
"885 819 OFFCURVE",
"881 819 CURVE SMOOTH",
"840 821 OFFCURVE",
"803 806 OFFCURVE",
"763 796 CURVE SMOOTH",
"675 774 OFFCURVE",
"586 750 OFFCURVE",
"498 727 CURVE SMOOTH",
"418 705 OFFCURVE",
"340 683 OFFCURVE",
"260 661 CURVE SMOOTH",
"222 651 OFFCURVE",
"186 641 OFFCURVE",
"150 629 CURVE SMOOTH",
"119 621 OFFCURVE",
"88 612 OFFCURVE",
"58 603 CURVE",
"55 579 OFFCURVE",
"56 557 OFFCURVE",
"65 535 CURVE SMOOTH",
"74 515 OFFCURVE",
"74 491 OFFCURVE",
"65 470 CURVE SMOOTH",
"55 448 OFFCURVE",
"56 426 OFFCURVE",
"58 400 CURVE",
"74 397 OFFCURVE",
"90 396 OFFCURVE",
"106 393 CURVE SMOOTH",
"157 380 OFFCURVE",
"209 367 OFFCURVE",
"263 354 CURVE SMOOTH",
"318 341 OFFCURVE",
"375 327 OFFCURVE",
"430 314 CURVE SMOOTH",
"479 301 OFFCURVE",
"528 287 OFFCURVE",
"578 272 CURVE SMOOTH",
"653 252 OFFCURVE",
"729 232 OFFCURVE",
"806 211 CURVE SMOOTH",
"832 204 OFFCURVE",
"859 191 OFFCURVE",
"888 201 CURVE",
"890 204 OFFCURVE",
"891 206 OFFCURVE",
"891 209 CURVE"
);
}
);
vertWidth = 741;
width = 1000;
}
);
note = cid08774;
},
{
glyphname = W.rotat;
lastChange = "2020-11-05 19:14:57 +0000";
layers = (
{
layerId = "E107BE24-86B5-4C0E-8944-467415BB13ED";
paths = (
{
closed = 1;
nodes = (
"227 698 LINE",
"229 699 OFFCURVE",
"230 699 OFFCURVE",
"231 699 CURVE",
"231 574 LINE",
"227 574 LINE"
);
},
{
closed = 1;
nodes = (
"227 557 LINE",
"229 497 OFFCURVE",
"226 439 OFFCURVE",
"229 379 CURVE",
"262 379 LINE",
"261 363 OFFCURVE",
"258 349 OFFCURVE",
"261 336 CURVE SMOOTH",
"264 320 OFFCURVE",
"247 301 OFFCURVE",
"269 291 CURVE",
"256 275 OFFCURVE",
"259 250 OFFCURVE",
"238 240 CURVE",
"257 224 OFFCURVE",
"282 225 OFFCURVE",
"304 225 CURVE SMOOTH",
"369 227 OFFCURVE",
"435 230 OFFCURVE",
"501 231 CURVE SMOOTH",
"605 231 OFFCURVE",
"710 231 OFFCURVE",
"814 232 CURVE SMOOTH",
"841 232 OFFCURVE",
"869 237 OFFCURVE",
"897 238 CURVE SMOOTH",
"908 239 OFFCURVE",
"913 245 OFFCURVE",
"910 257 CURVE SMOOTH",
"908 267 OFFCURVE",
"908 277 OFFCURVE",
"908 287 CURVE SMOOTH",
"908 324 OFFCURVE",
"910 362 OFFCURVE",
"912 404 CURVE",
"887 404 OFFCURVE",
"864 405 OFFCURVE",
"844 405 CURVE SMOOTH",
"775 405 LINE",
"485 405 LINE",
"308 405 LINE",
"344 461 OFFCURVE",
"344 507 OFFCURVE",
"293 553 CURVE",
"347 553 LINE SMOOTH",
"443 553 OFFCURVE",
"540 553 OFFCURVE",
"636 552 CURVE SMOOTH",
"719 552 OFFCURVE",
"802 549 OFFCURVE",
"884 547 CURVE SMOOTH",
"915 547 OFFCURVE",
"915 549 OFFCURVE",
"916 578 CURVE SMOOTH",
"916 619 OFFCURVE",
"916 658 OFFCURVE",
"915 698 CURVE SMOOTH",
"915 705 OFFCURVE",
"915 713 OFFCURVE",
"913 722 CURVE",
"860 727 OFFCURVE",
"810 734 OFFCURVE",
"758 734 CURVE SMOOTH",
"593 736 OFFCURVE",
"427 736 OFFCURVE",
"261 736 CURVE",
"236 734 OFFCURVE",
"211 736 OFFCURVE",
"185 736 CURVE",
"180 734 OFFCURVE",
"172 736 OFFCURVE",
"167 733 CURVE SMOOTH",
"146 719 OFFCURVE",
"123 706 OFFCURVE",
"107 687 CURVE SMOOTH",
"72 651 OFFCURVE",
"64 607 OFFCURVE",
"79 559 CURVE SMOOTH",
"92 520 OFFCURVE",
"115 493 OFFCURVE",
"146 468 CURVE",
"118 460 OFFCURVE",
"100 440 OFFCURVE",
"83 421 CURVE SMOOTH",
"66 401 OFFCURVE",
"53 382 OFFCURVE",
"57 354 CURVE SMOOTH",
"59 343 OFFCURVE",
"58 331 OFFCURVE",
"58 320 CURVE SMOOTH",
"57 309 OFFCURVE",
"61 301 OFFCURVE",
"66 291 CURVE",
"96 250 OFFCURVE",
"134 227 OFFCURVE",
"181 217 CURVE SMOOTH",
"194 214 OFFCURVE",
"211 207 OFFCURVE",
"224 220 CURVE",
"223 333 OFFCURVE",
"222 444 OFFCURVE",
"220 557 CURVE"
);
},
{
closed = 1;
nodes = (
"236 240 OFFCURVE",
"237 240 OFFCURVE",
"238 240 CURVE",
"237 240 OFFCURVE",
"237 241 OFFCURVE",
"237 241 CURVE",
"236 239 LINE"
);
}
);
vertWidth = 787;
width = 1000;
}
);
note = cid08775;
},
{
glyphname = X.rotat;
lastChange = "2020-11-05 19:14:57 +0000";
layers = (
{
layerId = "E107BE24-86B5-4C0E-8944-467415BB13ED";
paths = (
{
closed = 1;
nodes = (
"901 475 OFFCURVE",
"900 485 OFFCURVE",
"900 491 CURVE",
"859 508 OFFCURVE",
"821 523 OFFCURVE",
"781 539 CURVE",
"819 576 OFFCURVE",
"876 572 OFFCURVE",
"916 602 CURVE",
"900 636 OFFCURVE",
"880 666 OFFCURVE",
"872 700 CURVE SMOOTH",
"866 730 OFFCURVE",
"851 753 OFFCURVE",
"841 785 CURVE",
"823 781 OFFCURVE",
"807 779 OFFCURVE",
"793 772 CURVE",
"698 738 OFFCURVE",
"604 702 OFFCURVE",
"508 666 CURVE SMOOTH",
"495 661 OFFCURVE",
"484 661 OFFCURVE",
"471 666 CURVE SMOOTH",
"428 685 OFFCURVE",
"382 702 OFFCURVE",
"339 720 CURVE SMOOTH",
"282 743 OFFCURVE",
"225 765 OFFCURVE",
"171 789 CURVE SMOOTH",
"156 796 OFFCURVE",
"144 806 OFFCURVE",
"130 800 CURVE",
"109 745 OFFCURVE",
"88 694 OFFCURVE",
"66 642 CURVE",
"59 629 OFFCURVE",
"55 617 OFFCURVE",
"59 601 CURVE",
"107 584 OFFCURVE",
"155 568 OFFCURVE",
"204 544 CURVE",
"152 523 OFFCURVE",
"105 504 OFFCURVE",
"56 486 CURVE",
"58 473 OFFCURVE",
"59 461 OFFCURVE",
"62 449 CURVE SMOOTH",
"64 440 OFFCURVE",
"70 430 OFFCURVE",
"74 421 CURVE",
"87 381 OFFCURVE",
"100 342 OFFCURVE",
"115 299 CURVE",
"122 299 OFFCURVE",
"131 299 OFFCURVE",
"138 302 CURVE SMOOTH",
"177 314 OFFCURVE",
"214 328 OFFCURVE",
"253 342 CURVE SMOOTH",
"324 368 OFFCURVE",
"396 395 OFFCURVE",
"467 421 CURVE SMOOTH",
"479 426 OFFCURVE",
"490 425 OFFCURVE",
"502 420 CURVE SMOOTH",
"549 399 OFFCURVE",
"597 379 OFFCURVE",
"645 359 CURVE SMOOTH",
"691 339 OFFCURVE",
"737 320 OFFCURVE",
"784 298 CURVE SMOOTH",
"798 290 OFFCURVE",
"810 287 OFFCURVE",
"826 290 CURVE",
"850 350 OFFCURVE",
"875 409 OFFCURVE",
"899 467 CURVE"
);
}
);
vertWidth = 669;
width = 1000;
}
);
note = cid08776;
},
{
glyphname = Y.rotat;
lastChange = "2020-11-05 19:14:57 +0000";
layers = (
{
layerId = "E107BE24-86B5-4C0E-8944-467415BB13ED";
paths = (
{
closed = 1;
nodes = (
"885 272 LINE SMOOTH",
"884 308 OFFCURVE",
"880 343 OFFCURVE",
"880 380 CURVE SMOOTH",
"879 480 OFFCURVE",
"878 580 OFFCURVE",
"876 680 CURVE SMOOTH",
"876 703 OFFCURVE",
"874 728 OFFCURVE",
"871 756 CURVE",
"840 754 OFFCURVE",
"808 759 OFFCURVE",
"778 746 CURVE SMOOTH",
"736 728 OFFCURVE",
"698 706 OFFCURVE",
"674 665 CURVE SMOOTH",
"660 643 OFFCURVE",
"646 621 OFFCURVE",
"631 598 CURVE",
"576 599 OFFCURVE",
"520 601 OFFCURVE",
"463 603 CURVE SMOOTH",
"439 603 OFFCURVE",
"417 603 OFFCURVE",
"394 604 CURVE SMOOTH",
"308 605 OFFCURVE",
"220 608 OFFCURVE",
"133 609 CURVE SMOOTH",
"105 610 OFFCURVE",
"97 602 OFFCURVE",
"100 571 CURVE SMOOTH",
"101 547 OFFCURVE",
"106 524 OFFCURVE",
"105 499 CURVE SMOOTH",
"103 476 OFFCURVE",
"106 453 OFFCURVE",
"105 430 CURVE SMOOTH",
"103 413 OFFCURVE",
"109 408 OFFCURVE",
"124 408 CURVE SMOOTH",
"181 406 OFFCURVE",
"237 405 OFFCURVE",
"293 404 CURVE SMOOTH",
"321 404 OFFCURVE",
"348 408 OFFCURVE",
"376 408 CURVE SMOOTH",
"402 408 OFFCURVE",
"427 405 OFFCURVE",
"454 404 CURVE SMOOTH",
"513 403 OFFCURVE",
"570 402 OFFCURVE",
"622 400 CURVE",
"646 372 OFFCURVE",
"663 347 OFFCURVE",
"684 325 CURVE SMOOTH",
"735 275 OFFCURVE",
"795 244 OFFCURVE",
"868 241 CURVE SMOOTH",
"879 241 OFFCURVE",
"884 245 OFFCURVE",
"885 256 CURVE SMOOTH"
);
}
);
vertWidth = 774;
width = 1000;
}
);
note = cid08777;
},
{
glyphname = Z.rotat;
lastChange = "2020-11-05 19:14:57 +0000";
layers = (
{
layerId = "E107BE24-86B5-4C0E-8944-467415BB13ED";
paths = (
{
closed = 1;
nodes = (
"283 443 OFFCURVE",
"294 449 OFFCURVE",
"305 445 CURVE SMOOTH",
"321 438 OFFCURVE",
"337 433 OFFCURVE",
"355 435 CURVE",
"359 437 OFFCURVE",
"362 433 OFFCURVE",
"366 430 CURVE SMOOTH",
"370 427 OFFCURVE",
"374 423 OFFCURVE",
"379 422 CURVE SMOOTH",
"411 414 OFFCURVE",
"443 406 OFFCURVE",
"475 399 CURVE SMOOTH",
"506 391 OFFCURVE",
"537 385 OFFCURVE",
"567 379 CURVE SMOOTH",
"607 373 OFFCURVE",
"645 358 OFFCURVE",
"685 353 CURVE SMOOTH",
"718 349 OFFCURVE",
"749 337 OFFCURVE",
"781 329 CURVE SMOOTH",
"808 322 OFFCURVE",
"833 315 OFFCURVE",
"860 309 CURVE SMOOTH",
"869 307 OFFCURVE",
"877 307 OFFCURVE",
"881 318 CURVE SMOOTH",
"889 338 OFFCURVE",
"897 357 OFFCURVE",
"896 378 CURVE SMOOTH",
"896 383 OFFCURVE",
"897 390 OFFCURVE",
"900 395 CURVE SMOOTH",
"908 406 OFFCURVE",
"906 414 OFFCURVE",
"896 422 CURVE",
"904 427 OFFCURVE",
"910 431 OFFCURVE",
"913 433 CURVE",
"916 449 OFFCURVE",
"916 461 OFFCURVE",
"921 471 CURVE SMOOTH",
"930 489 OFFCURVE",
"929 509 OFFCURVE",
"929 527 CURVE SMOOTH",
"929 591 OFFCURVE",
"929 654 OFFCURVE",
"930 718 CURVE SMOOTH",
"930 772 LINE",
"832 772 LINE",
"829 757 OFFCURVE",
"826 744 OFFCURVE",
"825 730 CURVE SMOOTH",
"824 678 OFFCURVE",
"824 626 OFFCURVE",
"822 574 CURVE SMOOTH",
"822 565 OFFCURVE",
"821 555 OFFCURVE",
"821 546 CURVE",
"806 549 OFFCURVE",
"796 550 OFFCURVE",
"786 553 CURVE SMOOTH",
"761 559 OFFCURVE",
"731 554 OFFCURVE",
"709 571 CURVE SMOOTH",
"706 573 OFFCURVE",
"703 573 OFFCURVE",
"701 574 CURVE",
"647 586 OFFCURVE",
"593 597 OFFCURVE",
"539 610 CURVE SMOOTH",
"503 618 OFFCURVE",
"469 627 OFFCURVE",
"434 635 CURVE SMOOTH",
"343 657 OFFCURVE",
"251 678 OFFCURVE",
"161 701 CURVE SMOOTH",
"147 704 OFFCURVE",
"135 708 OFFCURVE",
"122 710 CURVE SMOOTH",
"112 713 OFFCURVE",
"101 713 OFFCURVE",
"99 701 CURVE",
"89 670 OFFCURVE",
"84 640 OFFCURVE",
"75 610 CURVE SMOOTH",
"68 581 OFFCURVE",
"59 553 OFFCURVE",
"49 525 CURVE SMOOTH",
"45 510 OFFCURVE",
"43 495 OFFCURVE",
"52 481 CURVE",
"53 478 OFFCURVE",
"56 474 OFFCURVE",
"56 473 CURVE SMOOTH",
"47 438 OFFCURVE",
"53 403 OFFCURVE",
"55 369 CURVE SMOOTH",
"55 350 OFFCURVE",
"56 331 OFFCURVE",
"57 313 CURVE SMOOTH",
"59 293 OFFCURVE",
"61 273 OFFCURVE",
"63 254 CURVE",
"162 254 LINE",
"162 475 LINE",
"199 466 OFFCURVE",
"235 458 OFFCURVE",
"271 447 CURVE SMOOTH"
);
}
);
vertWidth = 678;
width = 1000;
}
);
note = cid08778;
},
{
glyphname = a;
lastChange = "2020-11-05 19:14:57 +0000";
layers = (
{
layerId = "E107BE24-86B5-4C0E-8944-467415BB13ED";
paths = (
{
closed = 1;
nodes = (
"89 171 OFFCURVE",
"100 145 OFFCURVE",
"114 120 CURVE SMOOTH",
"148 64 OFFCURVE",
"191 21 OFFCURVE",
"257 5 CURVE SMOOTH",
"276 0 OFFCURVE",
"296 -3 OFFCURVE",
"317 -7 CURVE",
"321 20 OFFCURVE",
"324 43 OFFCURVE",
"327 68 CURVE SMOOTH",
"328 98 LINE",
"327 102 OFFCURVE",
"326 104 OFFCURVE",
"327 106 CURVE",
"329 149 OFFCURVE",
"331 191 OFFCURVE",
"332 234 CURVE SMOOTH",
"334 307 OFFCURVE",
"335 379 OFFCURVE",
"336 451 CURVE SMOOTH",
"336 470 OFFCURVE",
"334 475 OFFCURVE",
"314 474 CURVE SMOOTH",
"293 473 OFFCURVE",
"270 472 OFFCURVE",
"249 466 CURVE SMOOTH",
"205 455 OFFCURVE",
"168 432 OFFCURVE",
"140 398 CURVE SMOOTH",
"100 349 OFFCURVE",
"71 297 OFFCURVE",
"76 231 CURVE SMOOTH",
"76 224 OFFCURVE",
"76 216 OFFCURVE",
"76 209 CURVE SMOOTH",
"76 205 OFFCURVE",
"76 201 OFFCURVE",
"77 196 CURVE"
);
},
{
closed = 1;
nodes = (
"370 572 LINE",
"369 503 OFFCURVE",
"365 436 OFFCURVE",
"365 371 CURVE SMOOTH",
"365 252 OFFCURVE",
"367 133 OFFCURVE",
"369 14 CURVE SMOOTH",
"369 0 OFFCURVE",
"369 -16 OFFCURVE",
"370 -32 CURVE",
"466 -32 LINE",
"563 -32 LINE",
"563 289 LINE",
"564 289 OFFCURVE",
"565 336 OFFCURVE",
"563 390 CURVE SMOOTH",
"558 448 OFFCURVE",
"553 511 OFFCURVE",
"548 572 CURVE"
);
}
);
vertWidth = 1000;
width = 635;
}
);
note = cid00066;
unicode = 0061;
},
{
glyphname = b;
lastChange = "2020-11-05 19:14:57 +0000";
layers = (
{
layerId = "E107BE24-86B5-4C0E-8944-467415BB13ED";
paths = (
{
closed = 1;
nodes = (
"247 611 OFFCURVE",
"126 615 OFFCURVE",
"110 610 CURVE",
"118 -94 LINE",
"292 -94 LINE",
"285 -15 OFFCURVE",
"291 66 OFFCURVE",
"288 148 CURVE SMOOTH",
"288 189 OFFCURVE",
"289 386 OFFCURVE",
"289 386 CURVE",
"292 614 LINE"
);
},
{
closed = 1;
nodes = (
"541 202 OFFCURVE",
"541 207 OFFCURVE",
"540 211 CURVE SMOOTH",
"524 256 OFFCURVE",
"502 296 OFFCURVE",
"462 322 CURVE SMOOTH",
"437 338 OFFCURVE",
"412 353 OFFCURVE",
"383 361 CURVE SMOOTH",
"367 366 OFFCURVE",
"351 370 OFFCURVE",
"334 369 CURVE SMOOTH",
"327 368 OFFCURVE",
"322 365 OFFCURVE",
"323 358 CURVE SMOOTH",
"326 346 OFFCURVE",
"322 334 OFFCURVE",
"323 322 CURVE SMOOTH",
"323 317 OFFCURVE",
"326 312 OFFCURVE",
"326 307 CURVE",
"328 303 OFFCURVE",
"330 299 OFFCURVE",
"330 295 CURVE",
"325 275 OFFCURVE",
"326 254 OFFCURVE",
"326 232 CURVE SMOOTH",
"327 211 OFFCURVE",
"329 189 OFFCURVE",
"330 167 CURVE SMOOTH",
"330 146 OFFCURVE",
"330 125 OFFCURVE",
"329 105 CURVE SMOOTH",
"327 82 OFFCURVE",
"325 59 OFFCURVE",
"324 36 CURVE SMOOTH",
"323 12 OFFCURVE",
"322 -11 OFFCURVE",
"321 -35 CURVE SMOOTH",
"320 -43 OFFCURVE",
"321 -52 OFFCURVE",
"321 -63 CURVE",
"335 -63 OFFCURVE",
"350 -63 OFFCURVE",
"365 -62 CURVE SMOOTH",
"371 -62 OFFCURVE",
"377 -57 OFFCURVE",
"383 -56 CURVE",
"437 -39 OFFCURVE",
"480 -8 OFFCURVE",
"511 36 CURVE SMOOTH",
"530 64 OFFCURVE",
"544 94 OFFCURVE",
"541 130 CURVE SMOOTH",
"539 153 OFFCURVE",
"541 175 OFFCURVE",
"541 198 CURVE SMOOTH"
);
}
);
vertWidth = 1000;
width = 669;
}
);
note = cid00067;
unicode = 0062;
},
{
glyphname = c;
lastChange = "2020-11-05 19:14:57 +0000";
layers = (
{
layerId = "E107BE24-86B5-4C0E-8944-467415BB13ED";
paths = (
{
closed = 1;
nodes = (
"356 391 OFFCURVE",
"357 420 OFFCURVE",
"358 448 CURVE SMOOTH",
"359 458 OFFCURVE",
"358 468 OFFCURVE",
"358 481 CURVE",
"342 481 OFFCURVE",
"324 481 OFFCURVE",
"307 480 CURVE SMOOTH",
"299 480 OFFCURVE",
"292 474 OFFCURVE",
"285 472 CURVE SMOOTH",
"222 452 OFFCURVE",
"171 416 OFFCURVE",
"134 363 CURVE SMOOTH",
"112 329 OFFCURVE",
"96 294 OFFCURVE",
"98 252 CURVE SMOOTH",
"101 225 OFFCURVE",
"99 199 OFFCURVE",
"99 172 CURVE SMOOTH",
"99 167 OFFCURVE",
"99 162 OFFCURVE",
"100 157 CURVE",
"119 104 OFFCURVE",
"144 57 OFFCURVE",
"192 25 CURVE SMOOTH",
"222 7 OFFCURVE",
"251 -10 OFFCURVE",
"285 -20 CURVE SMOOTH",
"304 -26 OFFCURVE",
"322 -30 OFFCURVE",
"343 -29 CURVE SMOOTH",
"351 -28 OFFCURVE",
"357 -25 OFFCURVE",
"356 -16 CURVE",
"352 -2 OFFCURVE",
"357 11 OFFCURVE",
"356 26 CURVE SMOOTH",
"356 32 OFFCURVE",
"353 37 OFFCURVE",
"352 44 CURVE",
"350 48 OFFCURVE",
"347 53 OFFCURVE",
"348 57 CURVE SMOOTH",
"354 81 OFFCURVE",
"353 106 OFFCURVE",
"352 131 CURVE SMOOTH",
"351 157 OFFCURVE",
"349 183 OFFCURVE",
"348 209 CURVE SMOOTH",
"348 234 OFFCURVE",
"348 258 OFFCURVE",
"349 282 CURVE SMOOTH",
"351 309 OFFCURVE",
"354 336 OFFCURVE",
"355 364 CURVE SMOOTH"
);
},
{
closed = 1;
nodes = (
"405 279 OFFCURVE",
"420 278 OFFCURVE",
"435 277 CURVE SMOOTH",
"446 276 OFFCURVE",
"450 283 OFFCURVE",
"451 293 CURVE SMOOTH",
"452 303 OFFCURVE",
"452 313 OFFCURVE",
"453 322 CURVE SMOOTH",
"454 347 OFFCURVE",
"453 373 OFFCURVE",
"459 397 CURVE SMOOTH",
"464 424 OFFCURVE",
"460 451 OFFCURVE",
"463 479 CURVE",
"387 479 LINE",
"385 477 OFFCURVE",
"385 476 OFFCURVE",
"385 476 CURVE",
"382 417 OFFCURVE",
"379 359 OFFCURVE",
"377 300 CURVE SMOOTH",
"377 290 OFFCURVE",
"382 284 OFFCURVE",
"391 283 CURVE"
);
},
{
closed = 1;
nodes = (
"378 -25 OFFCURVE",
"386 -30 OFFCURVE",
"400 -28 CURVE SMOOTH",
"413 -26 OFFCURVE",
"427 -24 OFFCURVE",
"440 -22 CURVE SMOOTH",
"453 -19 OFFCURVE",
"457 -16 OFFCURVE",
"455 -3 CURVE SMOOTH",
"452 17 OFFCURVE",
"454 37 OFFCURVE",
"454 57 CURVE SMOOTH",
"454 76 OFFCURVE",
"455 96 OFFCURVE",
"455 117 CURVE SMOOTH",
"455 128 OFFCURVE",
"454 140 OFFCURVE",
"454 154 CURVE",
"432 154 OFFCURVE",
"416 156 OFFCURVE",
"399 154 CURVE SMOOTH",
"383 154 OFFCURVE",
"379 151 OFFCURVE",
"379 134 CURVE SMOOTH",
"378 97 OFFCURVE",
"377 62 OFFCURVE",
"377 26 CURVE SMOOTH",
"376 14 OFFCURVE",
"377 1 OFFCURVE",
"377 -11 CURVE SMOOTH"
);
}
);
vertWidth = 1000;
width = 609;
}
);
note = cid00068;
unicode = 0063;
},
{
glyphname = d;
lastChange = "2020-11-05 19:14:57 +0000";
layers = (
{
layerId = "E107BE24-86B5-4C0E-8944-467415BB13ED";
paths = (
{
closed = 1;
nodes = (
"478 649 OFFCURVE",
"358 653 OFFCURVE",
"342 648 CURVE",
"349 -56 LINE",
"523 -56 LINE",
"516 22 OFFCURVE",
"522 104 OFFCURVE",
"520 186 CURVE SMOOTH",
"520 227 OFFCURVE",
"520 424 OFFCURVE",
"520 424 CURVE",
"523 652 LINE"
);
},
{
closed = 1;
nodes = (
"78 158 OFFCURVE",
"78 141 OFFCURVE",
"82 125 CURVE",
"94 93 OFFCURVE",
"105 61 OFFCURVE",
"132 37 CURVE SMOOTH",
"159 14 OFFCURVE",
"186 -6 OFFCURVE",
"223 -14 CURVE SMOOTH",
"233 -16 OFFCURVE",
"244 -16 OFFCURVE",
"254 -20 CURVE SMOOTH",
"270 -25 OFFCURVE",
"286 -23 OFFCURVE",
"302 -23 CURVE",
"302 -17 OFFCURVE",
"303 -13 OFFCURVE",
"303 -10 CURVE SMOOTH",
"303 320 LINE SMOOTH",
"303 329 OFFCURVE",
"302 335 OFFCURVE",
"294 339 CURVE",
"297 343 OFFCURVE",
"300 347 OFFCURVE",
"303 350 CURVE",
"290 367 OFFCURVE",
"292 382 OFFCURVE",
"304 400 CURVE",
"298 403 OFFCURVE",
"294 405 OFFCURVE",
"290 405 CURVE SMOOTH",
"272 406 OFFCURVE",
"254 406 OFFCURVE",
"235 405 CURVE SMOOTH",
"229 405 OFFCURVE",
"219 403 OFFCURVE",
"217 399 CURVE SMOOTH",
"211 385 OFFCURVE",
"198 386 OFFCURVE",
"188 381 CURVE SMOOTH",
"178 375 OFFCURVE",
"168 370 OFFCURVE",
"160 364 CURVE SMOOTH",
"148 354 OFFCURVE",
"138 343 OFFCURVE",
"127 334 CURVE SMOOTH",
"121 328 OFFCURVE",
"115 323 OFFCURVE",
"111 317 CURVE SMOOTH",
"90 281 OFFCURVE",
"75 244 OFFCURVE",
"78 202 CURVE SMOOTH",
"79 193 OFFCURVE",
"78 183 OFFCURVE",
"78 174 CURVE SMOOTH"
);
}
);
vertWidth = 1000;
width = 627;
}
);
note = cid00069;
unicode = 0064;
},
{
glyphname = e;
lastChange = "2020-11-05 19:14:57 +0000";
layers = (
{
layerId = "E107BE24-86B5-4C0E-8944-467415BB13ED";
paths = (
{
closed = 1;
nodes = (
"163 218 OFFCURVE",
"165 219 OFFCURVE",
"167 218 CURVE",
"207 217 OFFCURVE",
"248 215 OFFCURVE",
"288 214 CURVE SMOOTH",
"357 212 OFFCURVE",
"425 211 OFFCURVE",
"494 210 CURVE SMOOTH",
"512 210 OFFCURVE",
"516 212 OFFCURVE",
"515 231 CURVE SMOOTH",
"515 251 OFFCURVE",
"513 273 OFFCURVE",
"508 292 CURVE SMOOTH",
"497 334 OFFCURVE",
"476 369 OFFCURVE",
"443 396 CURVE SMOOTH",
"397 433 OFFCURVE",
"347 461 OFFCURVE",
"285 457 CURVE SMOOTH",
"278 456 OFFCURVE",
"271 457 OFFCURVE",
"264 457 CURVE SMOOTH",
"260 457 OFFCURVE",
"256 457 OFFCURVE",
"253 455 CURVE",
"228 444 OFFCURVE",
"204 433 OFFCURVE",
"180 420 CURVE SMOOTH",
"127 388 OFFCURVE",
"87 347 OFFCURVE",
"71 285 CURVE SMOOTH",
"67 267 OFFCURVE",
"64 248 OFFCURVE",
"59 228 CURVE",
"85 225 OFFCURVE",
"108 222 OFFCURVE",
"131 218 CURVE",
"159 218 LINE SMOOTH"
);
},
{
closed = 1;
nodes = (
"185 -7 OFFCURVE",
"191 -11 OFFCURVE",
"197 -15 CURVE SMOOTH",
"200 -17 OFFCURVE",
"204 -19 OFFCURVE",
"208 -20 CURVE SMOOTH",
"220 -23 OFFCURVE",
"233 -26 OFFCURVE",
"246 -28 CURVE SMOOTH",
"259 -31 OFFCURVE",
"273 -33 OFFCURVE",
"287 -32 CURVE SMOOTH",
"292 -32 OFFCURVE",
"298 -27 OFFCURVE",
"299 -26 CURVE",
"298 -13 OFFCURVE",
"297 -5 OFFCURVE",
"297 3 CURVE SMOOTH",
"297 8 OFFCURVE",
"299 13 OFFCURVE",
"299 18 CURVE SMOOTH",
"300 73 OFFCURVE",
"300 128 OFFCURVE",
"300 183 CURVE",
"80 189 LINE",
"80 181 OFFCURVE",
"80 172 OFFCURVE",
"81 164 CURVE SMOOTH",
"88 94 OFFCURVE",
"114 34 OFFCURVE",
"179 -4 CURVE SMOOTH"
);
}
);
vertWidth = 1000;
width = 556;
}
);
note = cid00070;
unicode = 0065;
},
{
glyphname = f;
lastChange = "2020-11-05 19:14:57 +0000";
layers = (
{
layerId = "E107BE24-86B5-4C0E-8944-467415BB13ED";
paths = (
{
closed = 1;
nodes = (
"314 435 OFFCURVE",
"332 435 OFFCURVE",
"349 434 CURVE SMOOTH",
"370 433 OFFCURVE",
"390 431 OFFCURVE",
"410 430 CURVE SMOOTH",
"431 429 OFFCURVE",
"453 428 OFFCURVE",
"474 427 CURVE SMOOTH",
"481 427 OFFCURVE",
"489 427 OFFCURVE",
"498 427 CURVE",
"498 440 OFFCURVE",
"498 453 OFFCURVE",
"498 466 CURVE SMOOTH",
"498 472 OFFCURVE",
"494 477 OFFCURVE",
"492 483 CURVE SMOOTH",
"477 530 OFFCURVE",
"450 568 OFFCURVE",
"410 596 CURVE SMOOTH",
"385 612 OFFCURVE",
"358 625 OFFCURVE",
"327 623 CURVE SMOOTH",
"306 621 OFFCURVE",
"286 622 OFFCURVE",
"266 622 CURVE SMOOTH",
"263 622 OFFCURVE",
"259 622 OFFCURVE",
"255 621 CURVE SMOOTH",
"215 608 OFFCURVE",
"180 588 OFFCURVE",
"156 552 CURVE SMOOTH",
"142 530 OFFCURVE",
"129 508 OFFCURVE",
"121 483 CURVE SMOOTH",
"117 468 OFFCURVE",
"114 454 OFFCURVE",
"114 439 CURVE",
"115 438 OFFCURVE",
"115 436 OFFCURVE",
"115 435 CURVE SMOOTH",
"123 -69 LINE",
"297 -69 LINE",
"290 -11 OFFCURVE",
"295 48 OFFCURVE",
"293 108 CURVE SMOOTH",
"293 138 OFFCURVE",
"294 283 OFFCURVE",
"294 283 CURVE",
"297 435 LINE"
);
},
{
closed = 1;
nodes = (
"334 235 OFFCURVE",
"330 178 OFFCURVE",
"328 119 CURVE SMOOTH",
"328 109 OFFCURVE",
"334 103 OFFCURVE",
"342 101 CURVE SMOOTH",
"356 98 OFFCURVE",
"371 97 OFFCURVE",
"386 96 CURVE SMOOTH",
"397 95 OFFCURVE",
"401 101 OFFCURVE",
"402 112 CURVE SMOOTH",
"403 122 OFFCURVE",
"403 132 OFFCURVE",
"404 141 CURVE SMOOTH",
"405 166 OFFCURVE",
"404 192 OFFCURVE",
"410 216 CURVE SMOOTH",
"415 243 OFFCURVE",
"411 270 OFFCURVE",
"414 298 CURVE",
"338 298 LINE",
"336 296 OFFCURVE",
"336 294 OFFCURVE",
"336 294 CURVE"
);
}
);
vertWidth = 1000;
width = 603;
}
);
note = cid00071;
unicode = 0066;
},
{
glyphname = g;
lastChange = "2020-11-05 19:14:57 +0000";
layers = (
{
layerId = "E107BE24-86B5-4C0E-8944-467415BB13ED";
paths = (
{
closed = 1;
nodes = (
"87 294 OFFCURVE",
"75 272 OFFCURVE",
"61 250 CURVE SMOOTH",
"60 248 OFFCURVE",
"59 245 OFFCURVE",
"59 242 CURVE",
"53 216 OFFCURVE",
"53 189 OFFCURVE",
"56 162 CURVE SMOOTH",
"64 101 OFFCURVE",
"87 48 OFFCURVE",
"144 16 CURVE SMOOTH",
"150 12 OFFCURVE",
"155 9 OFFCURVE",
"160 6 CURVE SMOOTH",
"163 4 OFFCURVE",
"166 3 OFFCURVE",
"169 2 CURVE SMOOTH",
"180 0 OFFCURVE",
"191 -2 OFFCURVE",
"202 -4 CURVE SMOOTH",
"214 -6 OFFCURVE",
"226 -7 OFFCURVE",
"237 -7 CURVE",
"242 -6 OFFCURVE",
"247 -1 OFFCURVE",
"248 -1 CURVE",
"246 10 OFFCURVE",
"245 17 OFFCURVE",
"245 24 CURVE SMOOTH",
"245 29 OFFCURVE",
"247 34 OFFCURVE",
"247 38 CURVE SMOOTH",
"246 118 OFFCURVE",
"244 197 OFFCURVE",
"243 277 CURVE SMOOTH",
"243 299 OFFCURVE",
"243 320 OFFCURVE",
"243 340 CURVE",
"246 342 OFFCURVE",
"247 343 OFFCURVE",
"248 343 CURVE",
"257 346 OFFCURVE",
"263 351 OFFCURVE",
"261 362 CURVE SMOOTH",
"259 373 OFFCURVE",
"251 372 OFFCURVE",
"243 373 CURVE SMOOTH",
"225 373 OFFCURVE",
"208 375 OFFCURVE",
"190 375 CURVE",
"186 376 OFFCURVE",
"182 373 OFFCURVE",
"177 372 CURVE",
"181 367 OFFCURVE",
"183 365 OFFCURVE",
"184 363 CURVE",
"163 351 OFFCURVE",
"143 341 OFFCURVE",
"123 330 CURVE SMOOTH",
"116 326 OFFCURVE",
"107 321 OFFCURVE",
"102 315 CURVE SMOOTH"
);
},
{
closed = 1;
nodes = (
"150 -224 OFFCURVE",
"155 -227 OFFCURVE",
"160 -230 CURVE SMOOTH",
"163 -232 OFFCURVE",
"165 -233 OFFCURVE",
"169 -234 CURVE SMOOTH",
"179 -237 OFFCURVE",
"189 -239 OFFCURVE",
"200 -241 CURVE SMOOTH",
"212 -243 OFFCURVE",
"223 -245 OFFCURVE",
"235 -245 CURVE SMOOTH",
"240 -245 OFFCURVE",
"244 -240 OFFCURVE",
"245 -239 CURVE",
"244 -228 OFFCURVE",
"243 -222 OFFCURVE",
"243 -215 CURVE",
"244 -210 OFFCURVE",
"245 -206 OFFCURVE",
"246 -202 CURVE",
"246 -156 OFFCURVE",
"246 -110 OFFCURVE",
"246 -64 CURVE",
"61 -58 LINE",
"62 -65 OFFCURVE",
"62 -72 OFFCURVE",
"62 -79 CURVE",
"69 -138 OFFCURVE",
"90 -189 OFFCURVE",
"145 -221 CURVE SMOOTH"
);
},
{
closed = 1;
nodes = (
"270 -1 OFFCURVE",
"266 -7 OFFCURVE",
"266 -14 CURVE SMOOTH",
"265 -88 OFFCURVE",
"263 -160 OFFCURVE",
"262 -234 CURVE SMOOTH",
"262 -238 OFFCURVE",
"263 -244 OFFCURVE",
"264 -248 CURVE",
"409 -251 LINE",
"418 -205 OFFCURVE",
"416 -161 OFFCURVE",
"417 -116 CURVE SMOOTH",
"418 -71 OFFCURVE",
"419 -26 OFFCURVE",
"420 18 CURVE SMOOTH",
"420 44 OFFCURVE",
"421 70 OFFCURVE",
"421 96 CURVE",
"423 98 OFFCURVE",
"425 99 OFFCURVE",
"427 101 CURVE SMOOTH",
"444 119 OFFCURVE",
"457 142 OFFCURVE",
"462 168 CURVE SMOOTH",
"469 207 OFFCURVE",
"471 245 OFFCURVE",
"461 284 CURVE SMOOTH",
"453 314 OFFCURVE",
"438 342 OFFCURVE",
"414 361 CURVE SMOOTH",
"387 383 OFFCURVE",
"356 402 OFFCURVE",
"318 403 CURVE SMOOTH",
"306 403 OFFCURVE",
"294 406 OFFCURVE",
"279 408 CURVE",
"277 335 OFFCURVE",
"274 267 OFFCURVE",
"272 199 CURVE SMOOTH",
"272 165 OFFCURVE",
"275 132 OFFCURVE",
"273 98 CURVE SMOOTH",
"272 90 OFFCURVE",
"274 82 OFFCURVE",
"275 74 CURVE SMOOTH",
"275 69 OFFCURVE",
"274 65 OFFCURVE",
"274 60 CURVE SMOOTH",
"274 57 OFFCURVE",
"273 53 OFFCURVE",
"271 50 CURVE SMOOTH",
"268 45 OFFCURVE",
"270 41 OFFCURVE",
"274 39 CURVE",
"274 33 OFFCURVE",
"273 26 OFFCURVE",
"273 20 CURVE SMOOTH",
"273 15 OFFCURVE",
"272 9 OFFCURVE",
"271 4 CURVE SMOOTH"
);
}
);
vertWidth = 1000;
width = 519;
}
);
note = cid00072;
unicode = 0067;
},
{
glyphname = h;
lastChange = "2020-11-05 19:14:57 +0000";
layers = (
{
layerId = "E107BE24-86B5-4C0E-8944-467415BB13ED";
paths = (
{
closed = 1;
nodes = (
"412 3 OFFCURVE",
"477 5 OFFCURVE",
"543 6 CURVE SMOOTH",
"560 7 OFFCURVE",
"564 9 OFFCURVE",
"563 27 CURVE SMOOTH",
"561 46 OFFCURVE",
"559 67 OFFCURVE",
"553 85 CURVE SMOOTH",
"541 124 OFFCURVE",
"519 157 OFFCURVE",
"487 181 CURVE SMOOTH",
"442 215 OFFCURVE",
"393 240 OFFCURVE",
"334 233 CURVE SMOOTH",
"328 232 OFFCURVE",
"321 233 OFFCURVE",
"314 232 CURVE SMOOTH",
"310 232 OFFCURVE",
"307 232 OFFCURVE",
"303 230 CURVE SMOOTH",
"300 229 OFFCURVE",
"298 228 OFFCURVE",
"295 226 CURVE",
"295 296 OFFCURVE",
"295 382 OFFCURVE",
"295 382 CURVE",
"299 607 LINE",
"254 604 OFFCURVE",
"135 608 OFFCURVE",
"119 603 CURVE",
"127 -92 LINE",
"298 -92 LINE",
"296 -61 OFFCURVE",
"295 -29 OFFCURVE",
"295 1 CURVE",
"312 1 OFFCURVE",
"329 1 OFFCURVE",
"347 2 CURVE SMOOTH"
);
},
{
closed = 1;
nodes = (
"503 -4 OFFCURVE",
"449 -4 OFFCURVE",
"394 -5 CURVE SMOOTH",
"386 -5 OFFCURVE",
"380 -10 OFFCURVE",
"379 -18 CURVE SMOOTH",
"377 -32 OFFCURVE",
"377 -46 OFFCURVE",
"376 -60 CURVE SMOOTH",
"376 -70 OFFCURVE",
"382 -73 OFFCURVE",
"392 -74 CURVE SMOOTH",
"401 -74 OFFCURVE",
"410 -74 OFFCURVE",
"419 -74 CURVE SMOOTH",
"442 -74 OFFCURVE",
"466 -72 OFFCURVE",
"489 -75 CURVE SMOOTH",
"515 -79 OFFCURVE",
"539 -74 OFFCURVE",
"565 -75 CURVE",
"562 -4 LINE",
"559 -3 OFFCURVE",
"558 -3 OFFCURVE",
"558 -3 CURVE"
);
}
);
vertWidth = 1000;
width = 660;
}
);
note = cid00073;
unicode = 0068;
},
{
glyphname = i;
lastChange = "2020-11-05 19:14:57 +0000";
layers = (
{
layerId = "E107BE24-86B5-4C0E-8944-467415BB13ED";
paths = (
{
closed = 1;
nodes = (
"236 428 OFFCURVE",
"119 431 OFFCURVE",
"103 428 CURVE",
"111 -72 LINE",
"279 -72 LINE",
"272 -16 OFFCURVE",
"278 41 OFFCURVE",
"276 99 CURVE SMOOTH",
"276 128 OFFCURVE",
"276 268 OFFCURVE",
"276 268 CURVE",
"279 430 LINE"
);
},
{
closed = 1;
nodes = (
"291 511 OFFCURVE",
"294 516 OFFCURVE",
"294 520 CURVE SMOOTH",
"295 528 OFFCURVE",
"295 536 OFFCURVE",
"296 544 CURVE SMOOTH",
"297 549 OFFCURVE",
"294 552 OFFCURVE",
"292 553 CURVE SMOOTH",
"287 557 OFFCURVE",
"285 561 OFFCURVE",
"283 566 CURVE SMOOTH",
"279 582 OFFCURVE",
"268 593 OFFCURVE",
"257 603 CURVE SMOOTH",
"247 613 OFFCURVE",
"234 621 OFFCURVE",
"219 623 CURVE SMOOTH",
"196 628 OFFCURVE",
"175 629 OFFCURVE",
"153 623 CURVE SMOOTH",
"135 619 OFFCURVE",
"119 610 OFFCURVE",
"108 596 CURVE SMOOTH",
"96 580 OFFCURVE",
"85 563 OFFCURVE",
"85 541 CURVE",
"84 534 OFFCURVE",
"83 527 OFFCURVE",
"82 519 CURVE",
"123 518 OFFCURVE",
"162 516 OFFCURVE",
"201 515 CURVE SMOOTH",
"221 515 OFFCURVE",
"240 517 OFFCURVE",
"259 515 CURVE SMOOTH",
"268 514 OFFCURVE",
"277 519 OFFCURVE",
"287 514 CURVE"
);
}
);
vertWidth = 1000;
width = 386;
}
);
note = cid00074;
unicode = 0069;
},
{
glyphname = j;
lastChange = "2020-11-05 19:14:57 +0000";
layers = (
{
layerId = "E107BE24-86B5-4C0E-8944-467415BB13ED";
paths = (
{
closed = 1;
nodes = (
"469 451 LINE SMOOTH",
"469 457 OFFCURVE",
"468 462 OFFCURVE",
"467 468 CURVE",
"298 468 LINE",
"298 438 LINE SMOOTH",
"298 373 OFFCURVE",
"297 308 OFFCURVE",
"298 243 CURVE SMOOTH",
"299 190 OFFCURVE",
"302 138 OFFCURVE",
"303 86 CURVE SMOOTH",
"304 10 OFFCURVE",
"303 74 OFFCURVE",
"303 0 CURVE SMOOTH",
"303 -10 OFFCURVE",
"306 -21 OFFCURVE",
"307 -29 CURVE",
"236 -31 OFFCURVE",
"165 -33 OFFCURVE",
"91 -35 CURVE",
"91 -51 OFFCURVE",
"88 -63 OFFCURVE",
"92 -73 CURVE SMOOTH",
"104 -104 OFFCURVE",
"114 -137 OFFCURVE",
"137 -163 CURVE SMOOTH",
"166 -196 OFFCURVE",
"200 -221 OFFCURVE",
"249 -219 CURVE SMOOTH",
"277 -218 OFFCURVE",
"306 -216 OFFCURVE",
"335 -218 CURVE SMOOTH",
"343 -219 OFFCURVE",
"351 -217 OFFCURVE",
"358 -214 CURVE SMOOTH",
"399 -196 OFFCURVE",
"427 -163 OFFCURVE",
"452 -126 CURVE SMOOTH",
"466 -105 OFFCURVE",
"471 -84 OFFCURVE",
"469 -59 CURVE SMOOTH",
"468 -42 OFFCURVE",
"469 -24 OFFCURVE",
"469 -5 CURVE SMOOTH"
);
},
{
closed = 1;
nodes = (
"474 597 OFFCURVE",
"472 601 OFFCURVE",
"471 606 CURVE SMOOTH",
"467 622 OFFCURVE",
"456 633 OFFCURVE",
"445 643 CURVE SMOOTH",
"434 653 OFFCURVE",
"422 661 OFFCURVE",
"407 663 CURVE SMOOTH",
"384 668 OFFCURVE",
"363 669 OFFCURVE",
"340 663 CURVE SMOOTH",
"323 659 OFFCURVE",
"307 650 OFFCURVE",
"296 636 CURVE SMOOTH",
"283 620 OFFCURVE",
"273 603 OFFCURVE",
"272 581 CURVE SMOOTH",
"272 574 OFFCURVE",
"270 567 OFFCURVE",
"269 559 CURVE",
"311 558 OFFCURVE",
"350 556 OFFCURVE",
"389 555 CURVE SMOOTH",
"408 555 OFFCURVE",
"427 557 OFFCURVE",
"446 555 CURVE SMOOTH",
"456 554 OFFCURVE",
"465 559 OFFCURVE",
"474 554 CURVE SMOOTH",
"479 551 OFFCURVE",
"481 556 OFFCURVE",
"482 560 CURVE",
"482 568 OFFCURVE",
"482 576 OFFCURVE",
"483 584 CURVE SMOOTH",
"484 589 OFFCURVE",
"482 592 OFFCURVE",
"479 593 CURVE"
);
}
);
vertWidth = 1000;
width = 565;
}
);
note = cid00075;
unicode = 006A;
},
{
glyphname = k;
lastChange = "2020-11-05 19:14:57 +0000";
layers = (
{
layerId = "E107BE24-86B5-4C0E-8944-467415BB13ED";
paths = (
{
closed = 1;
nodes = (
"494 408 OFFCURVE",
"473 408 OFFCURVE",
"452 407 CURVE SMOOTH",
"445 407 OFFCURVE",
"433 404 OFFCURVE",
"431 400 CURVE SMOOTH",
"424 384 OFFCURVE",
"410 385 OFFCURVE",
"398 379 CURVE SMOOTH",
"387 373 OFFCURVE",
"375 367 OFFCURVE",
"366 360 CURVE SMOOTH",
"353 349 OFFCURVE",
"341 336 OFFCURVE",
"328 325 CURVE SMOOTH",
"322 319 OFFCURVE",
"315 314 OFFCURVE",
"310 306 CURVE SMOOTH",
"299 289 OFFCURVE",
"290 271 OFFCURVE",
"284 252 CURVE",
"284 318 OFFCURVE",
"284 391 OFFCURVE",
"284 391 CURVE",
"287 619 LINE",
"242 616 OFFCURVE",
"122 620 OFFCURVE",
"105 616 CURVE",
"113 -89 LINE",
"287 -89 LINE",
"282 -37 OFFCURVE",
"283 16 OFFCURVE",
"284 69 CURVE",
"295 38 OFFCURVE",
"308 9 OFFCURVE",
"334 -13 CURVE SMOOTH",
"364 -40 OFFCURVE",
"396 -63 OFFCURVE",
"438 -72 CURVE SMOOTH",
"450 -75 OFFCURVE",
"462 -75 OFFCURVE",
"474 -80 CURVE",
"492 -85 OFFCURVE",
"510 -82 OFFCURVE",
"528 -82 CURVE",
"528 -76 OFFCURVE",
"529 -71 OFFCURVE",
"529 -68 CURVE SMOOTH",
"529 310 LINE SMOOTH",
"529 320 OFFCURVE",
"528 327 OFFCURVE",
"519 332 CURVE",
"523 336 OFFCURVE",
"527 341 OFFCURVE",
"529 344 CURVE",
"515 363 OFFCURVE",
"517 381 OFFCURVE",
"531 402 CURVE",
"524 404 OFFCURVE",
"519 407 OFFCURVE",
"515 407 CURVE SMOOTH"
);
}
);
vertWidth = 1000;
width = 644;
}
);
note = cid00076;
unicode = 006B;
},
{
glyphname = l;
lastChange = "2020-11-05 19:14:57 +0000";
layers = (
{
layerId = "E107BE24-86B5-4C0E-8944-467415BB13ED";
paths = (
{
closed = 1;
nodes = (
"263 614 OFFCURVE",
"143 619 OFFCURVE",
"127 614 CURVE",
"134 -90 LINE",
"302 -90 LINE SMOOTH",
"317 -90 OFFCURVE",
"331 -90 OFFCURVE",
"346 -92 CURVE",
"346 -15 LINE",
"344 -13 OFFCURVE",
"343 -13 OFFCURVE",
"343 -13 CURVE",
"330 -13 OFFCURVE",
"318 -12 OFFCURVE",
"305 -12 CURVE",
"304 42 OFFCURVE",
"306 97 OFFCURVE",
"305 152 CURVE SMOOTH",
"305 193 OFFCURVE",
"305 390 OFFCURVE",
"305 390 CURVE",
"308 618 LINE"
);
}
);
vertWidth = 1000;
width = 500;
}
);
note = cid00077;
unicode = 006C;
},
{
glyphname = m;
lastChange = "2020-11-05 19:14:57 +0000";
layers = (
{
layerId = "E107BE24-86B5-4C0E-8944-467415BB13ED";
paths = (
{
closed = 1;
nodes = (
"658 345 OFFCURVE",
"634 401 OFFCURVE",
"572 437 CURVE",
"567 441 OFFCURVE",
"561 444 OFFCURVE",
"555 448 CURVE SMOOTH",
"552 450 OFFCURVE",
"549 452 OFFCURVE",
"545 453 CURVE SMOOTH",
"533 455 OFFCURVE",
"522 458 OFFCURVE",
"509 460 CURVE SMOOTH",
"496 463 OFFCURVE",
"483 465 OFFCURVE",
"470 465 CURVE",
"464 464 OFFCURVE",
"459 459 OFFCURVE",
"458 458 CURVE",
"459 446 OFFCURVE",
"460 438 OFFCURVE",
"460 430 CURVE SMOOTH",
"460 425 OFFCURVE",
"458 420 OFFCURVE",
"458 415 CURVE SMOOTH",
"457 409 OFFCURVE",
"457 404 OFFCURVE",
"457 398 CURVE",
"446 415 OFFCURVE",
"430 430 OFFCURVE",
"410 442 CURVE SMOOTH",
"405 445 OFFCURVE",
"400 448 OFFCURVE",
"395 451 CURVE SMOOTH",
"393 452 OFFCURVE",
"390 454 OFFCURVE",
"387 455 CURVE SMOOTH",
"377 457 OFFCURVE",
"367 459 OFFCURVE",
"357 461 CURVE SMOOTH",
"346 463 OFFCURVE",
"335 465 OFFCURVE",
"324 465 CURVE",
"320 464 OFFCURVE",
"316 460 OFFCURVE",
"315 459 CURVE",
"316 449 OFFCURVE",
"316 443 OFFCURVE",
"316 436 CURVE SMOOTH",
"316 432 OFFCURVE",
"315 428 OFFCURVE",
"314 424 CURVE",
"314 380 OFFCURVE",
"314 336 OFFCURVE",
"314 293 CURVE",
"386 291 LINE",
"380 224 OFFCURVE",
"375 158 OFFCURVE",
"370 92 CURVE SMOOTH",
"369 79 OFFCURVE",
"373 74 OFFCURVE",
"387 70 CURVE SMOOTH",
"415 60 OFFCURVE",
"444 65 OFFCURVE",
"475 64 CURVE",
"476 92 OFFCURVE",
"478 116 OFFCURVE",
"479 140 CURVE SMOOTH",
"481 166 OFFCURVE",
"480 192 OFFCURVE",
"484 219 CURVE SMOOTH",
"486 231 OFFCURVE",
"487 244 OFFCURVE",
"487 256 CURVE",
"544 255 LINE",
"537 174 OFFCURVE",
"531 95 OFFCURVE",
"525 16 CURVE SMOOTH",
"523 0 OFFCURVE",
"529 -6 OFFCURVE",
"545 -11 CURVE SMOOTH",
"579 -23 OFFCURVE",
"614 -17 OFFCURVE",
"651 -18 CURVE",
"653 15 OFFCURVE",
"655 44 OFFCURVE",
"656 73 CURVE SMOOTH",
"658 105 OFFCURVE",
"657 136 OFFCURVE",
"662 168 CURVE SMOOTH",
"667 196 OFFCURVE",
"666 223 OFFCURVE",
"667 251 CURVE",
"668 251 LINE",
"668 254 OFFCURVE",
"667 258 OFFCURVE",
"667 261 CURVE SMOOTH",
"667 267 OFFCURVE",
"667 273 OFFCURVE",
"668 280 CURVE",
"667 280 OFFCURVE",
"666 280 OFFCURVE",
"666 280 CURVE"
);
},
{
closed = 1;
nodes = (
"100 472 LINE",
"100 199 LINE",
"98 199 OFFCURVE",
"98 159 OFFCURVE",
"100 113 CURVE SMOOTH",
"105 63 OFFCURVE",
"110 10 OFFCURVE",
"115 -41 CURVE",
"300 -41 LINE",
"302 17 OFFCURVE",
"305 74 OFFCURVE",
"305 128 CURVE SMOOTH",
"305 230 OFFCURVE",
"304 331 OFFCURVE",
"302 433 CURVE SMOOTH",
"302 445 OFFCURVE",
"302 458 OFFCURVE",
"300 472 CURVE",
"201 472 LINE"
);
}
);
vertWidth = 1000;
width = 713;
}
);
note = cid00078;
unicode = 006D;
},
{
glyphname = n;
lastChange = "2020-11-05 19:14:57 +0000";
layers = (
{
layerId = "E107BE24-86B5-4C0E-8944-467415BB13ED";
paths = (
{
closed = 1;
nodes = (
"510 340 OFFCURVE",
"485 397 OFFCURVE",
"424 432 CURVE",
"419 436 OFFCURVE",
"413 440 OFFCURVE",
"407 443 CURVE SMOOTH",
"404 445 OFFCURVE",
"401 447 OFFCURVE",
"397 448 CURVE SMOOTH",
"385 451 OFFCURVE",
"373 454 OFFCURVE",
"361 456 CURVE SMOOTH",
"348 458 OFFCURVE",
"335 460 OFFCURVE",
"321 460 CURVE SMOOTH",
"316 460 OFFCURVE",
"311 454 OFFCURVE",
"310 454 CURVE",
"311 441 OFFCURVE",
"312 433 OFFCURVE",
"312 426 CURVE SMOOTH",
"312 421 OFFCURVE",
"310 416 OFFCURVE",
"309 411 CURVE",
"309 358 OFFCURVE",
"309 305 OFFCURVE",
"308 253 CURVE",
"396 250 LINE",
"389 170 OFFCURVE",
"382 90 OFFCURVE",
"376 11 CURVE SMOOTH",
"375 -5 OFFCURVE",
"380 -10 OFFCURVE",
"397 -15 CURVE SMOOTH",
"431 -28 OFFCURVE",
"466 -21 OFFCURVE",
"503 -22 CURVE",
"505 10 OFFCURVE",
"506 40 OFFCURVE",
"508 68 CURVE SMOOTH",
"510 100 OFFCURVE",
"509 132 OFFCURVE",
"514 163 CURVE SMOOTH",
"519 191 OFFCURVE",
"518 218 OFFCURVE",
"519 247 CURVE SMOOTH",
"519 250 OFFCURVE",
"519 253 OFFCURVE",
"519 256 CURVE SMOOTH",
"519 262 OFFCURVE",
"519 269 OFFCURVE",
"519 275 CURVE",
"519 275 OFFCURVE",
"518 275 OFFCURVE",
"518 275 CURVE"
);
},
{
closed = 1;
nodes = (
"93 194 OFFCURVE",
"93 154 OFFCURVE",
"95 108 CURVE SMOOTH",
"100 59 OFFCURVE",
"105 5 OFFCURVE",
"110 -45 CURVE",
"295 -45 LINE",
"297 12 OFFCURVE",
"300 69 OFFCURVE",
"300 124 CURVE SMOOTH",
"300 225 OFFCURVE",
"299 327 OFFCURVE",
"297 428 CURVE SMOOTH",
"297 440 OFFCURVE",
"297 454 OFFCURVE",
"295 467 CURVE",
"196 467 LINE",
"95 467 LINE",
"95 194 LINE"
);
}
);
vertWidth = 1000;
width = 603;
}
);
note = cid00079;
unicode = 006E;
},
{
glyphname = o;
lastChange = "2020-11-05 19:14:57 +0000";
layers = (
{
layerId = "E107BE24-86B5-4C0E-8944-467415BB13ED";
paths = (
{
closed = 1;
nodes = (
"111 106 OFFCURVE",
"122 82 OFFCURVE",
"135 58 CURVE SMOOTH",
"139 50 OFFCURVE",
"144 39 OFFCURVE",
"151 34 CURVE SMOOTH",
"175 16 OFFCURVE",
"201 0 OFFCURVE",
"226 -15 CURVE",
"228 -17 OFFCURVE",
"232 -18 OFFCURVE",
"235 -18 CURVE",
"266 -26 OFFCURVE",
"297 -27 OFFCURVE",
"329 -25 CURVE SMOOTH",
"401 -18 OFFCURVE",
"464 7 OFFCURVE",
"504 73 CURVE SMOOTH",
"507 79 OFFCURVE",
"511 85 OFFCURVE",
"515 91 CURVE SMOOTH",
"517 94 OFFCURVE",
"519 97 OFFCURVE",
"520 101 CURVE SMOOTH",
"523 114 OFFCURVE",
"527 126 OFFCURVE",
"529 140 CURVE SMOOTH",
"532 153 OFFCURVE",
"534 167 OFFCURVE",
"534 181 CURVE SMOOTH",
"534 187 OFFCURVE",
"528 192 OFFCURVE",
"527 193 CURVE",
"513 192 OFFCURVE",
"505 191 OFFCURVE",
"497 192 CURVE SMOOTH",
"491 192 OFFCURVE",
"486 194 OFFCURVE",
"481 194 CURVE SMOOTH",
"387 195 OFFCURVE",
"294 196 OFFCURVE",
"200 197 CURVE SMOOTH",
"175 198 OFFCURVE",
"150 198 OFFCURVE",
"127 199 CURVE",
"124 203 OFFCURVE",
"124 204 OFFCURVE",
"123 205 CURVE",
"120 216 OFFCURVE",
"115 224 OFFCURVE",
"102 221 CURVE SMOOTH",
"89 219 OFFCURVE",
"89 210 OFFCURVE",
"88 200 CURVE SMOOTH",
"87 179 OFFCURVE",
"85 159 OFFCURVE",
"84 139 CURVE",
"83 134 OFFCURVE",
"85 130 OFFCURVE",
"86 123 CURVE",
"92 127 OFFCURVE",
"96 130 OFFCURVE",
"98 131 CURVE"
);
},
{
closed = 1;
nodes = (
"544 276 OFFCURVE",
"539 282 OFFCURVE",
"534 286 CURVE SMOOTH",
"524 293 OFFCURVE",
"520 303 OFFCURVE",
"518 313 CURVE SMOOTH",
"510 345 OFFCURVE",
"488 370 OFFCURVE",
"466 391 CURVE SMOOTH",
"445 411 OFFCURVE",
"420 427 OFFCURVE",
"389 434 CURVE SMOOTH",
"344 444 OFFCURVE",
"299 447 OFFCURVE",
"253 437 CURVE SMOOTH",
"217 429 OFFCURVE",
"185 412 OFFCURVE",
"162 385 CURVE SMOOTH",
"135 353 OFFCURVE",
"111 318 OFFCURVE",
"110 274 CURVE SMOOTH",
"109 260 OFFCURVE",
"105 245 OFFCURVE",
"102 228 CURVE",
"187 223 OFFCURVE",
"267 217 OFFCURVE",
"347 213 CURVE SMOOTH",
"386 211 OFFCURVE",
"425 214 OFFCURVE",
"464 210 CURVE SMOOTH",
"483 208 OFFCURVE",
"502 217 OFFCURVE",
"521 206 CURVE SMOOTH",
"531 201 OFFCURVE",
"535 209 OFFCURVE",
"536 218 CURVE SMOOTH",
"539 234 OFFCURVE",
"539 251 OFFCURVE",
"541 267 CURVE"
);
}
);
vertWidth = 1000;
width = 621;
}
);
note = cid00080;
unicode = 006F;
},
{
glyphname = p;
lastChange = "2020-11-05 19:14:57 +0000";
layers = (
{
layerId = "E107BE24-86B5-4C0E-8944-467415BB13ED";
paths = (
{
closed = 1;
nodes = (
"285 -234 LINE",
"278 -155 OFFCURVE",
"284 -73 OFFCURVE",
"282 8 CURVE SMOOTH",
"282 49 OFFCURVE",
"282 246 OFFCURVE",
"282 246 CURVE",
"285 474 LINE",
"240 471 OFFCURVE",
"120 475 OFFCURVE",
"104 470 CURVE",
"111 -234 LINE"
);
},
{
closed = 1;
nodes = (
"544 276 OFFCURVE",
"544 281 OFFCURVE",
"543 285 CURVE SMOOTH",
"526 334 OFFCURVE",
"502 378 OFFCURVE",
"458 407 CURVE SMOOTH",
"431 424 OFFCURVE",
"404 440 OFFCURVE",
"373 449 CURVE SMOOTH",
"355 454 OFFCURVE",
"338 458 OFFCURVE",
"320 458 CURVE SMOOTH",
"312 457 OFFCURVE",
"306 453 OFFCURVE",
"308 446 CURVE SMOOTH",
"311 432 OFFCURVE",
"306 419 OFFCURVE",
"307 406 CURVE SMOOTH",
"308 401 OFFCURVE",
"310 396 OFFCURVE",
"311 390 CURVE",
"313 385 OFFCURVE",
"315 381 OFFCURVE",
"314 377 CURVE SMOOTH",
"309 355 OFFCURVE",
"310 332 OFFCURVE",
"311 309 CURVE SMOOTH",
"312 285 OFFCURVE",
"314 261 OFFCURVE",
"314 237 CURVE SMOOTH",
"314 215 OFFCURVE",
"314 192 OFFCURVE",
"314 170 CURVE SMOOTH",
"312 145 OFFCURVE",
"309 120 OFFCURVE",
"309 95 CURVE SMOOTH",
"307 69 OFFCURVE",
"306 43 OFFCURVE",
"305 16 CURVE SMOOTH",
"304 8 OFFCURVE",
"305 0 OFFCURVE",
"305 -12 CURVE",
"320 -12 OFFCURVE",
"337 -12 OFFCURVE",
"353 -12 CURVE SMOOTH",
"360 -12 OFFCURVE",
"366 -6 OFFCURVE",
"373 -5 CURVE",
"431 13 OFFCURVE",
"478 46 OFFCURVE",
"512 96 CURVE SMOOTH",
"532 126 OFFCURVE",
"547 158 OFFCURVE",
"545 198 CURVE SMOOTH",
"542 222 OFFCURVE",
"544 247 OFFCURVE",
"544 271 CURVE SMOOTH"
);
}
);
vertWidth = 1000;
width = 631;
}
);
note = cid00081;
unicode = 0070;
},
{
glyphname = q;
lastChange = "2020-11-05 19:14:57 +0000";
layers = (
{
layerId = "E107BE24-86B5-4C0E-8944-467415BB13ED";
paths = (
{
closed = 1;
nodes = (
"519 490 LINE",
"503 495 OFFCURVE",
"383 491 OFFCURVE",
"338 494 CURVE",
"341 266 LINE",
"341 266 OFFCURVE",
"341 69 OFFCURVE",
"341 28 CURVE SMOOTH",
"339 -53 OFFCURVE",
"345 -135 OFFCURVE",
"338 -214 CURVE",
"512 -214 LINE"
);
},
{
closed = 1;
nodes = (
"145 66 OFFCURVE",
"192 33 OFFCURVE",
"250 14 CURVE",
"257 13 OFFCURVE",
"263 8 OFFCURVE",
"270 8 CURVE SMOOTH",
"286 7 OFFCURVE",
"303 7 OFFCURVE",
"318 7 CURVE",
"318 19 OFFCURVE",
"319 28 OFFCURVE",
"318 36 CURVE SMOOTH",
"317 63 OFFCURVE",
"316 89 OFFCURVE",
"314 115 CURVE SMOOTH",
"314 140 OFFCURVE",
"311 165 OFFCURVE",
"309 190 CURVE SMOOTH",
"308 212 OFFCURVE",
"308 235 OFFCURVE",
"308 257 CURVE SMOOTH",
"309 281 OFFCURVE",
"311 305 OFFCURVE",
"312 329 CURVE SMOOTH",
"313 352 OFFCURVE",
"314 375 OFFCURVE",
"308 397 CURVE",
"308 401 OFFCURVE",
"310 405 OFFCURVE",
"312 410 CURVE",
"313 416 OFFCURVE",
"315 421 OFFCURVE",
"316 426 CURVE SMOOTH",
"317 439 OFFCURVE",
"312 452 OFFCURVE",
"315 466 CURVE SMOOTH",
"317 473 OFFCURVE",
"311 477 OFFCURVE",
"303 478 CURVE SMOOTH",
"285 478 OFFCURVE",
"268 474 OFFCURVE",
"250 469 CURVE SMOOTH",
"219 460 OFFCURVE",
"192 444 OFFCURVE",
"165 427 CURVE SMOOTH",
"121 398 OFFCURVE",
"97 354 OFFCURVE",
"80 305 CURVE SMOOTH",
"79 301 OFFCURVE",
"79 296 OFFCURVE",
"79 291 CURVE SMOOTH",
"79 267 OFFCURVE",
"81 242 OFFCURVE",
"78 218 CURVE SMOOTH",
"76 178 OFFCURVE",
"91 146 OFFCURVE",
"111 116 CURVE SMOOTH"
);
}
);
vertWidth = 1000;
width = 624;
}
);
note = cid00082;
unicode = 0071;
},
{
glyphname = r;
lastChange = "2020-11-05 19:14:57 +0000";
layers = (
{
layerId = "E107BE24-86B5-4C0E-8944-467415BB13ED";
paths = (
{
closed = 1;
nodes = (
"216 468 OFFCURVE",
"99 471 OFFCURVE",
"84 468 CURVE",
"91 -32 LINE",
"259 -32 LINE",
"253 23 OFFCURVE",
"258 82 OFFCURVE",
"256 139 CURVE SMOOTH",
"256 169 OFFCURVE",
"256 309 OFFCURVE",
"256 309 CURVE",
"259 471 LINE"
);
},
{
closed = 1;
nodes = (
"281 391 OFFCURVE",
"302 340 OFFCURVE",
"357 308 CURVE SMOOTH",
"362 305 OFFCURVE",
"367 302 OFFCURVE",
"372 299 CURVE SMOOTH",
"375 297 OFFCURVE",
"377 296 OFFCURVE",
"381 295 CURVE SMOOTH",
"391 292 OFFCURVE",
"401 290 OFFCURVE",
"412 288 CURVE SMOOTH",
"424 286 OFFCURVE",
"435 284 OFFCURVE",
"447 284 CURVE SMOOTH",
"452 284 OFFCURVE",
"456 289 OFFCURVE",
"457 290 CURVE",
"456 301 OFFCURVE",
"455 307 OFFCURVE",
"455 314 CURVE",
"456 318 OFFCURVE",
"457 323 OFFCURVE",
"458 327 CURVE",
"458 373 OFFCURVE",
"458 419 OFFCURVE",
"458 465 CURVE",
"273 471 LINE",
"274 464 OFFCURVE",
"274 457 OFFCURVE",
"275 450 CURVE SMOOTH"
);
}
);
vertWidth = 1000;
width = 504;
}
);
note = cid00083;
unicode = 0072;
},
{
glyphname = s;
lastChange = "2020-11-05 19:14:57 +0000";
layers = (
{
layerId = "E107BE24-86B5-4C0E-8944-467415BB13ED";
paths = (
{
closed = 1;
nodes = (
"348 227 LINE SMOOTH",
"346 228 OFFCURVE",
"344 230 OFFCURVE",
"341 230 CURVE",
"332 232 OFFCURVE",
"324 235 OFFCURVE",
"315 236 CURVE SMOOTH",
"306 238 OFFCURVE",
"296 240 OFFCURVE",
"287 239 CURVE SMOOTH",
"283 239 OFFCURVE",
"279 235 OFFCURVE",
"278 235 CURVE",
"279 225 OFFCURVE",
"280 220 OFFCURVE",
"280 214 CURVE",
"279 211 OFFCURVE",
"278 207 OFFCURVE",
"278 203 CURVE SMOOTH",
"277 140 OFFCURVE",
"277 76 OFFCURVE",
"276 12 CURVE SMOOTH",
"275 -4 OFFCURVE",
"275 -21 OFFCURVE",
"275 -37 CURVE",
"272 -38 OFFCURVE",
"271 -39 OFFCURVE",
"270 -39 CURVE SMOOTH",
"263 -41 OFFCURVE",
"258 -45 OFFCURVE",
"259 -54 CURVE SMOOTH",
"261 -63 OFFCURVE",
"267 -63 OFFCURVE",
"274 -63 CURVE SMOOTH",
"288 -64 OFFCURVE",
"302 -66 OFFCURVE",
"315 -66 CURVE",
"319 -67 OFFCURVE",
"322 -65 OFFCURVE",
"327 -64 CURVE",
"323 -60 OFFCURVE",
"322 -58 OFFCURVE",
"321 -57 CURVE",
"338 -48 OFFCURVE",
"354 -40 OFFCURVE",
"370 -32 CURVE SMOOTH",
"376 -28 OFFCURVE",
"383 -25 OFFCURVE",
"387 -20 CURVE SMOOTH",
"400 -4 OFFCURVE",
"410 13 OFFCURVE",
"421 30 CURVE",
"423 31 OFFCURVE",
"423 34 OFFCURVE",
"423 36 CURVE",
"429 57 OFFCURVE",
"429 78 OFFCURVE",
"427 100 CURVE SMOOTH",
"423 149 OFFCURVE",
"405 192 OFFCURVE",
"360 219 CURVE SMOOTH"
);
},
{
closed = 1;
nodes = (
"259 462 OFFCURVE",
"247 462 OFFCURVE",
"236 464 CURVE SMOOTH",
"229 466 OFFCURVE",
"225 463 OFFCURVE",
"222 459 CURVE SMOOTH",
"217 452 OFFCURVE",
"210 449 OFFCURVE",
"203 447 CURVE SMOOTH",
"181 442 OFFCURVE",
"164 427 OFFCURVE",
"149 411 CURVE SMOOTH",
"134 397 OFFCURVE",
"123 379 OFFCURVE",
"118 357 CURVE SMOOTH",
"111 325 OFFCURVE",
"109 294 OFFCURVE",
"116 262 CURVE SMOOTH",
"122 236 OFFCURVE",
"133 213 OFFCURVE",
"153 197 CURVE SMOOTH",
"175 178 OFFCURVE",
"200 162 OFFCURVE",
"231 160 CURVE SMOOTH",
"241 160 OFFCURVE",
"251 157 OFFCURVE",
"263 155 CURVE",
"267 215 OFFCURVE",
"271 271 OFFCURVE",
"274 327 CURVE SMOOTH",
"275 355 OFFCURVE",
"273 383 OFFCURVE",
"276 410 CURVE SMOOTH",
"277 423 OFFCURVE",
"271 437 OFFCURVE",
"279 450 CURVE",
"282 457 OFFCURVE",
"276 460 OFFCURVE",
"270 461 CURVE SMOOTH"
);
},
{
closed = 1;
nodes = (
"262 -10 OFFCURVE",
"264 -6 OFFCURVE",
"264 -2 CURVE SMOOTH",
"265 40 OFFCURVE",
"265 84 OFFCURVE",
"265 127 CURVE",
"91 132 LINE",
"91 125 OFFCURVE",
"91 119 OFFCURVE",
"92 112 CURVE SMOOTH",
"98 57 OFFCURVE",
"118 9 OFFCURVE",
"169 -20 CURVE SMOOTH",
"174 -23 OFFCURVE",
"179 -26 OFFCURVE",
"184 -29 CURVE SMOOTH",
"186 -30 OFFCURVE",
"189 -32 OFFCURVE",
"192 -33 CURVE SMOOTH",
"202 -35 OFFCURVE",
"211 -37 OFFCURVE",
"222 -39 CURVE SMOOTH",
"232 -41 OFFCURVE",
"243 -43 OFFCURVE",
"254 -43 CURVE",
"259 -42 OFFCURVE",
"263 -38 OFFCURVE",
"264 -37 CURVE",
"263 -27 OFFCURVE",
"262 -21 OFFCURVE",
"262 -14 CURVE SMOOTH"
);
},
{
closed = 1;
nodes = (
"370 449 OFFCURVE",
"365 452 OFFCURVE",
"361 454 CURVE",
"359 456 OFFCURVE",
"356 457 OFFCURVE",
"353 458 CURVE SMOOTH",
"344 460 OFFCURVE",
"335 463 OFFCURVE",
"325 464 CURVE SMOOTH",
"315 466 OFFCURVE",
"305 468 OFFCURVE",
"295 467 CURVE SMOOTH",
"291 467 OFFCURVE",
"287 463 OFFCURVE",
"286 463 CURVE",
"287 453 OFFCURVE",
"288 447 OFFCURVE",
"288 441 CURVE",
"287 437 OFFCURVE",
"286 433 OFFCURVE",
"286 430 CURVE SMOOTH",
"285 389 OFFCURVE",
"285 349 OFFCURVE",
"285 308 CURVE",
"447 304 LINE",
"447 310 OFFCURVE",
"447 316 OFFCURVE",
"446 322 CURVE SMOOTH",
"441 374 OFFCURVE",
"422 418 OFFCURVE",
"374 446 CURVE SMOOTH"
);
}
);
vertWidth = 1000;
width = 532;
}
);
note = cid00084;
unicode = 0073;
},
{
glyphname = t;
lastChange = "2020-11-05 19:14:57 +0000";
layers = (
{
layerId = "E107BE24-86B5-4C0E-8944-467415BB13ED";
paths = (
{
closed = 1;
nodes = (
"332 381 OFFCURVE",
"332 382 OFFCURVE",
"332 382 CURVE",
"335 607 LINE",
"291 603 OFFCURVE",
"171 607 OFFCURVE",
"156 603 CURVE",
"158 391 LINE",
"132 394 OFFCURVE",
"106 396 OFFCURVE",
"81 398 CURVE",
"68 403 OFFCURVE",
"68 357 OFFCURVE",
"67 324 CURVE SMOOTH",
"67 253 LINE",
"99 250 OFFCURVE",
"129 248 OFFCURVE",
"159 245 CURVE",
"163 -92 LINE",
"335 -92 LINE",
"328 -14 OFFCURVE",
"333 66 OFFCURVE",
"331 146 CURVE SMOOTH",
"331 162 OFFCURVE",
"331 201 OFFCURVE",
"331 242 CURVE",
"361 241 OFFCURVE",
"391 240 OFFCURVE",
"421 239 CURVE",
"428 276 OFFCURVE",
"427 354 OFFCURVE",
"419 374 CURVE",
"390 376 OFFCURVE",
"361 378 OFFCURVE",
"332 379 CURVE"
);
}
);
vertWidth = 1000;
width = 500;
}
);
note = cid00085;
unicode = 0074;
},
{
glyphname = u;
lastChange = "2020-11-05 19:14:57 +0000";
layers = (
{
layerId = "E107BE24-86B5-4C0E-8944-467415BB13ED";
paths = (
{
closed = 1;
nodes = (
"239 447 OFFCURVE",
"233 452 OFFCURVE",
"217 457 CURVE SMOOTH",
"183 470 OFFCURVE",
"147 463 OFFCURVE",
"110 464 CURVE",
"108 431 OFFCURVE",
"106 401 OFFCURVE",
"105 373 CURVE SMOOTH",
"103 341 OFFCURVE",
"103 309 OFFCURVE",
"98 277 CURVE SMOOTH",
"94 250 OFFCURVE",
"94 222 OFFCURVE",
"94 194 CURVE",
"93 194 LINE",
"93 191 OFFCURVE",
"93 187 OFFCURVE",
"94 184 CURVE",
"94 178 OFFCURVE",
"93 172 OFFCURVE",
"93 165 CURVE",
"94 165 OFFCURVE",
"94 165 OFFCURVE",
"95 165 CURVE",
"103 100 OFFCURVE",
"127 43 OFFCURVE",
"189 7 CURVE SMOOTH",
"195 4 OFFCURVE",
"200 0 OFFCURVE",
"206 -2 CURVE",
"209 -4 OFFCURVE",
"212 -6 OFFCURVE",
"216 -7 CURVE SMOOTH",
"228 -10 OFFCURVE",
"240 -13 OFFCURVE",
"253 -15 CURVE SMOOTH",
"266 -18 OFFCURVE",
"279 -20 OFFCURVE",
"293 -19 CURVE SMOOTH",
"298 -19 OFFCURVE",
"303 -14 OFFCURVE",
"304 -13 CURVE",
"303 0 OFFCURVE",
"302 6 OFFCURVE",
"302 14 CURVE SMOOTH",
"302 19 OFFCURVE",
"304 24 OFFCURVE",
"305 29 CURVE",
"305 82 OFFCURVE",
"305 135 OFFCURVE",
"306 188 CURVE",
"218 190 LINE",
"224 271 OFFCURVE",
"231 351 OFFCURVE",
"237 430 CURVE SMOOTH"
);
},
{
closed = 1;
nodes = (
"319 488 LINE",
"317 429 OFFCURVE",
"314 372 OFFCURVE",
"314 317 CURVE SMOOTH",
"314 215 OFFCURVE",
"315 114 OFFCURVE",
"317 12 CURVE SMOOTH",
"317 0 OFFCURVE",
"317 -13 OFFCURVE",
"319 -27 CURVE",
"419 -27 LINE",
"521 -27 LINE",
"521 246 LINE",
"522 246 OFFCURVE",
"523 287 OFFCURVE",
"521 332 CURVE",
"515 382 OFFCURVE",
"510 436 OFFCURVE",
"505 488 CURVE"
);
}
);
vertWidth = 1000;
width = 668;
}
);
note = cid00086;
unicode = 0075;
},
{
glyphname = v;
lastChange = "2020-11-05 19:14:57 +0000";
layers = (
{
layerId = "E107BE24-86B5-4C0E-8944-467415BB13ED";
paths = (
{
closed = 1;
nodes = (
"288 233 OFFCURVE",
"269 284 OFFCURVE",
"249 333 CURVE SMOOTH",
"234 369 OFFCURVE",
"226 409 OFFCURVE",
"203 443 CURVE SMOOTH",
"190 463 OFFCURVE",
"184 466 OFFCURVE",
"165 459 CURVE SMOOTH",
"137 450 OFFCURVE",
"110 443 OFFCURVE",
"82 432 CURVE SMOOTH",
"71 428 OFFCURVE",
"61 419 OFFCURVE",
"49 412 CURVE",
"55 393 OFFCURVE",
"60 379 OFFCURVE",
"64 366 CURVE SMOOTH",
"108 240 OFFCURVE",
"143 112 OFFCURVE",
"194 -11 CURVE SMOOTH",
"207 -43 OFFCURVE",
"210 -47 OFFCURVE",
"239 -37 CURVE SMOOTH",
"258 -31 OFFCURVE",
"276 -25 OFFCURVE",
"295 -19 CURVE",
"295 -19 OFFCURVE",
"341 -2 OFFCURVE",
"355 10 CURVE",
"358 8 LINE",
"378 55 OFFCURVE",
"407 99 OFFCURVE",
"431 146 CURVE SMOOTH",
"444 169 OFFCURVE",
"506 280 OFFCURVE",
"506 280 CURVE",
"580 407 LINE",
"550 421 OFFCURVE",
"473 467 OFFCURVE",
"462 470 CURVE",
"307 183 LINE"
);
}
);
vertWidth = 1000;
width = 628;
}
);
note = cid00087;
unicode = 0076;
},
{
glyphname = w;
lastChange = "2020-11-05 19:14:57 +0000";
layers = (
{
layerId = "E107BE24-86B5-4C0E-8944-467415BB13ED";
paths = (
{
closed = 1;
nodes = (
"612 224 OFFCURVE",
"612 251 OFFCURVE",
"607 279 CURVE SMOOTH",
"602 310 OFFCURVE",
"603 342 OFFCURVE",
"601 374 CURVE SMOOTH",
"600 402 OFFCURVE",
"598 432 OFFCURVE",
"596 465 CURVE",
"559 464 OFFCURVE",
"524 471 OFFCURVE",
"490 458 CURVE SMOOTH",
"474 453 OFFCURVE",
"468 448 OFFCURVE",
"470 431 CURVE SMOOTH",
"476 352 OFFCURVE",
"482 272 OFFCURVE",
"489 192 CURVE",
"432 190 LINE",
"432 203 OFFCURVE",
"431 216 OFFCURVE",
"429 228 CURVE SMOOTH",
"425 254 OFFCURVE",
"426 281 OFFCURVE",
"424 307 CURVE SMOOTH",
"423 331 OFFCURVE",
"421 355 OFFCURVE",
"420 383 CURVE",
"389 382 OFFCURVE",
"360 387 OFFCURVE",
"332 377 CURVE SMOOTH",
"318 373 OFFCURVE",
"314 368 OFFCURVE",
"315 355 CURVE SMOOTH",
"320 289 OFFCURVE",
"326 223 OFFCURVE",
"331 156 CURVE",
"259 154 LINE",
"259 110 OFFCURVE",
"259 67 OFFCURVE",
"259 23 CURVE",
"260 19 OFFCURVE",
"261 15 OFFCURVE",
"261 11 CURVE SMOOTH",
"261 4 OFFCURVE",
"261 -1 OFFCURVE",
"260 -12 CURVE",
"261 -12 OFFCURVE",
"265 -17 OFFCURVE",
"269 -17 CURVE SMOOTH",
"280 -17 OFFCURVE",
"291 -16 OFFCURVE",
"302 -14 CURVE SMOOTH",
"312 -12 OFFCURVE",
"322 -9 OFFCURVE",
"332 -7 CURVE SMOOTH",
"335 -6 OFFCURVE",
"338 -5 OFFCURVE",
"341 -3 CURVE SMOOTH",
"345 0 OFFCURVE",
"350 2 OFFCURVE",
"355 5 CURVE SMOOTH",
"375 17 OFFCURVE",
"391 32 OFFCURVE",
"402 49 CURVE",
"403 43 OFFCURVE",
"403 37 OFFCURVE",
"403 31 CURVE SMOOTH",
"403 27 OFFCURVE",
"405 21 OFFCURVE",
"405 17 CURVE SMOOTH",
"405 9 OFFCURVE",
"404 1 OFFCURVE",
"403 -11 CURVE",
"404 -11 OFFCURVE",
"409 -17 OFFCURVE",
"415 -17 CURVE SMOOTH",
"428 -17 OFFCURVE",
"441 -15 OFFCURVE",
"454 -13 CURVE SMOOTH",
"467 -11 OFFCURVE",
"478 -8 OFFCURVE",
"490 -5 CURVE SMOOTH",
"494 -4 OFFCURVE",
"497 -2 OFFCURVE",
"500 0 CURVE SMOOTH",
"506 3 OFFCURVE",
"512 6 OFFCURVE",
"517 10 CURVE",
"579 46 OFFCURVE",
"603 102 OFFCURVE",
"611 167 CURVE",
"611 167 OFFCURVE",
"612 167 OFFCURVE",
"613 167 CURVE",
"612 174 OFFCURVE",
"612 180 OFFCURVE",
"612 186 CURVE SMOOTH",
"612 189 OFFCURVE",
"613 192 OFFCURVE",
"613 196 CURVE",
"612 196 LINE"
);
},
{
closed = 1;
nodes = (
"55 437 OFFCURVE",
"50 384 OFFCURVE",
"45 334 CURVE SMOOTH",
"43 288 OFFCURVE",
"43 248 OFFCURVE",
"45 248 CURVE",
"45 -24 LINE",
"146 -24 LINE",
"245 -24 LINE",
"247 -11 OFFCURVE",
"247 2 OFFCURVE",
"247 14 CURVE SMOOTH",
"249 116 OFFCURVE",
"251 217 OFFCURVE",
"251 318 CURVE SMOOTH",
"251 373 OFFCURVE",
"247 430 OFFCURVE",
"245 488 CURVE",
"61 488 LINE"
);
}
);
vertWidth = 1000;
width = 658;
}
);
note = cid00088;
unicode = 0077;
},
{
glyphname = x;
lastChange = "2020-11-05 19:14:57 +0000";
layers = (
{
layerId = "E107BE24-86B5-4C0E-8944-467415BB13ED";
paths = (
{
closed = 1;
nodes = (
"399 282 OFFCURVE",
"413 305 OFFCURVE",
"427 328 CURVE SMOOTH",
"451 369 OFFCURVE",
"478 408 OFFCURVE",
"501 449 CURVE",
"370 530 LINE",
"346 496 OFFCURVE",
"322 462 OFFCURVE",
"300 428 CURVE SMOOTH",
"295 420 OFFCURVE",
"290 412 OFFCURVE",
"285 404 CURVE",
"283 407 OFFCURVE",
"280 410 OFFCURVE",
"278 413 CURVE SMOOTH",
"251 452 OFFCURVE",
"225 492 OFFCURVE",
"197 530 CURVE",
"70 443 LINE",
"92 407 OFFCURVE",
"113 371 OFFCURVE",
"136 337 CURVE SMOOTH",
"152 312 OFFCURVE",
"169 287 OFFCURVE",
"186 262 CURVE",
"145 196 OFFCURVE",
"105 132 OFFCURVE",
"65 67 CURVE SMOOTH",
"63 63 OFFCURVE",
"61 58 OFFCURVE",
"59 54 CURVE",
"196 -31 LINE",
"229 5 OFFCURVE",
"251 46 OFFCURVE",
"276 86 CURVE SMOOTH",
"279 92 OFFCURVE",
"283 97 OFFCURVE",
"286 102 CURVE",
"315 60 OFFCURVE",
"344 18 OFFCURVE",
"372 -23 CURVE SMOOTH",
"375 -27 OFFCURVE",
"379 -31 OFFCURVE",
"383 -34 CURVE",
"516 56 LINE",
"495 101 OFFCURVE",
"466 138 OFFCURVE",
"439 177 CURVE SMOOTH",
"421 204 OFFCURVE",
"403 232 OFFCURVE",
"384 259 CURVE"
);
}
);
vertWidth = 1000;
width = 587;
}
);
note = cid00089;
unicode = 0078;
},
{
glyphname = y;
lastChange = "2020-11-05 19:14:57 +0000";
layers = (
{
layerId = "E107BE24-86B5-4C0E-8944-467415BB13ED";
paths = (
{
closed = 1;
nodes = (
"428 357 OFFCURVE",
"426 356 OFFCURVE",
"424 357 CURVE",
"384 359 OFFCURVE",
"344 361 OFFCURVE",
"303 362 CURVE SMOOTH",
"235 363 OFFCURVE",
"167 364 OFFCURVE",
"98 366 CURVE SMOOTH",
"80 366 OFFCURVE",
"76 363 OFFCURVE",
"77 345 CURVE SMOOTH",
"77 325 OFFCURVE",
"79 303 OFFCURVE",
"84 283 CURVE SMOOTH",
"95 242 OFFCURVE",
"116 207 OFFCURVE",
"149 180 CURVE SMOOTH",
"181 154 OFFCURVE",
"216 132 OFFCURVE",
"256 123 CURVE",
"252 116 OFFCURVE",
"248 108 OFFCURVE",
"244 100 CURVE SMOOTH",
"241 95 OFFCURVE",
"238 91 OFFCURVE",
"234 86 CURVE",
"231 80 OFFCURVE",
"224 76 OFFCURVE",
"221 70 CURVE SMOOTH",
"185 0 OFFCURVE",
"150 -69 OFFCURVE",
"114 -139 CURVE SMOOTH",
"112 -143 OFFCURVE",
"111 -148 OFFCURVE",
"109 -153 CURVE",
"248 -224 LINE",
"277 -184 OFFCURVE",
"296 -140 OFFCURVE",
"318 -97 CURVE SMOOTH",
"341 -55 OFFCURVE",
"363 -12 OFFCURVE",
"384 30 CURVE SMOOTH",
"406 73 OFFCURVE",
"428 116 OFFCURVE",
"450 159 CURVE SMOOTH",
"457 174 OFFCURVE",
"465 190 OFFCURVE",
"473 205 CURVE",
"495 229 OFFCURVE",
"511 257 OFFCURVE",
"520 291 CURVE SMOOTH",
"525 309 OFFCURVE",
"528 328 OFFCURVE",
"532 348 CURVE",
"506 351 OFFCURVE",
"483 354 OFFCURVE",
"460 357 CURVE SMOOTH",
"432 358 LINE"
);
}
);
vertWidth = 1000;
width = 589;
}
);
note = cid00090;
unicode = 0079;
},
{
glyphname = z;
lastChange = "2020-11-05 19:14:57 +0000";
layers = (
{
layerId = "E107BE24-86B5-4C0E-8944-467415BB13ED";
paths = (
{
closed = 1;
nodes = (
"388 118 OFFCURVE",
"382 122 OFFCURVE",
"370 121 CURVE SMOOTH",
"348 119 OFFCURVE",
"327 119 OFFCURVE",
"304 118 CURVE SMOOTH",
"286 117 OFFCURVE",
"269 116 OFFCURVE",
"251 115 CURVE",
"303 173 LINE",
"304 172 OFFCURVE",
"326 195 OFFCURVE",
"349 223 CURVE SMOOTH",
"373 254 OFFCURVE",
"399 287 OFFCURVE",
"424 319 CURVE",
"424 452 LINE",
"383 453 OFFCURVE",
"342 456 OFFCURVE",
"303 456 CURVE SMOOTH",
"230 456 OFFCURVE",
"158 455 OFFCURVE",
"85 453 CURVE SMOOTH",
"77 453 OFFCURVE",
"67 453 OFFCURVE",
"57 452 CURVE",
"57 381 LINE",
"57 308 LINE",
"252 308 LINE",
"252 308 OFFCURVE",
"254 308 OFFCURVE",
"255 308 CURVE",
"253 305 OFFCURVE",
"250 302 OFFCURVE",
"247 299 CURVE SMOOTH",
"193 240 OFFCURVE",
"140 179 OFFCURVE",
"87 119 CURVE SMOOTH",
"81 113 OFFCURVE",
"75 106 OFFCURVE",
"69 98 CURVE",
"59 94 OFFCURVE",
"57 88 OFFCURVE",
"57 74 CURVE SMOOTH",
"57 48 OFFCURVE",
"56 22 OFFCURVE",
"57 -4 CURVE SMOOTH",
"57 -14 OFFCURVE",
"62 -25 OFFCURVE",
"64 -37 CURVE",
"103 -37 LINE SMOOTH",
"209 -35 OFFCURVE",
"316 -41 OFFCURVE",
"422 -33 CURVE SMOOTH",
"450 -30 OFFCURVE",
"453 -29 OFFCURVE",
"453 -1 CURVE SMOOTH",
"453 51 LINE",
"453 51 OFFCURVE",
"451 110 OFFCURVE",
"443 116 CURVE SMOOTH",
"427 131 OFFCURVE",
"405 118 OFFCURVE",
"394 108 CURVE"
);
}
);
vertWidth = 1000;
width = 526;
}
);
note = cid00091;
unicode = 007A;
},
{
glyphname = a.rotat;
lastChange = "2020-11-05 19:14:57 +0000";
layers = (
{
layerId = "E107BE24-86B5-4C0E-8944-467415BB13ED";
paths = (
{
closed = 1;
nodes = (
"291 791 OFFCURVE",
"265 780 OFFCURVE",
"240 766 CURVE SMOOTH",
"184 732 OFFCURVE",
"141 689 OFFCURVE",
"125 623 CURVE SMOOTH",
"120 604 OFFCURVE",
"117 584 OFFCURVE",
"113 563 CURVE",
"140 559 OFFCURVE",
"163 556 OFFCURVE",
"188 553 CURVE SMOOTH",
"218 552 LINE",
"222 553 OFFCURVE",
"224 554 OFFCURVE",
"226 553 CURVE",
"269 551 OFFCURVE",
"311 549 OFFCURVE",
"354 548 CURVE SMOOTH",
"427 546 OFFCURVE",
"499 545 OFFCURVE",
"571 544 CURVE SMOOTH",
"590 544 OFFCURVE",
"595 546 OFFCURVE",
"594 566 CURVE SMOOTH",
"593 587 OFFCURVE",
"592 610 OFFCURVE",
"586 631 CURVE SMOOTH",
"575 675 OFFCURVE",
"552 712 OFFCURVE",
"518 740 CURVE SMOOTH",
"469 780 OFFCURVE",
"417 809 OFFCURVE",
"351 804 CURVE SMOOTH",
"344 804 OFFCURVE",
"336 804 OFFCURVE",
"329 804 CURVE SMOOTH",
"325 804 OFFCURVE",
"321 804 OFFCURVE",
"316 803 CURVE"
);
},
{
closed = 1;
nodes = (
"692 510 LINE",
"623 511 OFFCURVE",
"556 515 OFFCURVE",
"491 515 CURVE SMOOTH",
"372 515 OFFCURVE",
"253 513 OFFCURVE",
"134 511 CURVE SMOOTH",
"120 511 OFFCURVE",
"104 511 OFFCURVE",
"88 510 CURVE",
"88 414 LINE",
"88 317 LINE",
"409 317 LINE",
"409 316 OFFCURVE",
"456 315 OFFCURVE",
"510 317 CURVE SMOOTH",
"568 322 OFFCURVE",
"631 327 OFFCURVE",
"692 332 CURVE"
);
}
);
vertWidth = 635;
width = 1000;
}
);
note = cid08785;
},
{
glyphname = b.rotat;
lastChange = "2020-11-05 19:14:57 +0000";
layers = (
{
layerId = "E107BE24-86B5-4C0E-8944-467415BB13ED";
paths = (
{
closed = 1;
nodes = (
"731 632 OFFCURVE",
"735 753 OFFCURVE",
"730 769 CURVE",
"26 761 LINE",
"26 587 LINE",
"105 594 OFFCURVE",
"186 588 OFFCURVE",
"268 591 CURVE SMOOTH",
"309 591 OFFCURVE",
"506 590 OFFCURVE",
"506 590 CURVE",
"734 587 LINE"
);
},
{
closed = 1;
nodes = (
"322 338 OFFCURVE",
"327 338 OFFCURVE",
"331 339 CURVE SMOOTH",
"376 355 OFFCURVE",
"416 377 OFFCURVE",
"442 417 CURVE SMOOTH",
"458 442 OFFCURVE",
"473 467 OFFCURVE",
"481 496 CURVE SMOOTH",
"486 512 OFFCURVE",
"490 528 OFFCURVE",
"489 545 CURVE SMOOTH",
"488 552 OFFCURVE",
"485 557 OFFCURVE",
"478 556 CURVE SMOOTH",
"466 553 OFFCURVE",
"454 557 OFFCURVE",
"442 556 CURVE SMOOTH",
"437 556 OFFCURVE",
"432 553 OFFCURVE",
"427 553 CURVE",
"423 551 OFFCURVE",
"419 549 OFFCURVE",
"415 549 CURVE",
"395 554 OFFCURVE",
"374 553 OFFCURVE",
"352 553 CURVE SMOOTH",
"331 552 OFFCURVE",
"309 550 OFFCURVE",
"287 549 CURVE SMOOTH",
"266 549 OFFCURVE",
"245 549 OFFCURVE",
"225 550 CURVE SMOOTH",
"202 552 OFFCURVE",
"179 554 OFFCURVE",
"156 555 CURVE SMOOTH",
"132 556 OFFCURVE",
"109 557 OFFCURVE",
"85 558 CURVE SMOOTH",
"77 559 OFFCURVE",
"68 558 OFFCURVE",
"57 558 CURVE",
"57 544 OFFCURVE",
"57 529 OFFCURVE",
"58 514 CURVE SMOOTH",
"58 508 OFFCURVE",
"63 502 OFFCURVE",
"64 496 CURVE",
"81 442 OFFCURVE",
"112 399 OFFCURVE",
"156 368 CURVE SMOOTH",
"184 349 OFFCURVE",
"214 335 OFFCURVE",
"250 338 CURVE SMOOTH",
"273 340 OFFCURVE",
"295 338 OFFCURVE",
"318 338 CURVE SMOOTH"
);
}
);
vertWidth = 669;
width = 1000;
}
);
note = cid08786;
},
{
glyphname = c.rotat;
lastChange = "2020-11-05 19:14:57 +0000";
layers = (
{
layerId = "E107BE24-86B5-4C0E-8944-467415BB13ED";
paths = (
{
closed = 1;
nodes = (
"510 524 OFFCURVE",
"539 523 OFFCURVE",
"567 522 CURVE SMOOTH",
"577 521 OFFCURVE",
"587 522 OFFCURVE",
"600 522 CURVE",
"600 538 OFFCURVE",
"600 556 OFFCURVE",
"599 573 CURVE SMOOTH",
"599 581 OFFCURVE",
"593 588 OFFCURVE",
"591 595 CURVE SMOOTH",
"571 658 OFFCURVE",
"535 709 OFFCURVE",
"482 746 CURVE SMOOTH",
"448 768 OFFCURVE",
"413 784 OFFCURVE",
"371 782 CURVE SMOOTH",
"344 779 OFFCURVE",
"318 781 OFFCURVE",
"291 781 CURVE SMOOTH",
"286 781 OFFCURVE",
"281 781 OFFCURVE",
"276 780 CURVE",
"223 761 OFFCURVE",
"176 736 OFFCURVE",
"144 688 CURVE SMOOTH",
"126 658 OFFCURVE",
"109 629 OFFCURVE",
"99 595 CURVE SMOOTH",
"93 576 OFFCURVE",
"89 558 OFFCURVE",
"90 537 CURVE SMOOTH",
"91 529 OFFCURVE",
"94 523 OFFCURVE",
"103 524 CURVE",
"117 528 OFFCURVE",
"130 523 OFFCURVE",
"145 524 CURVE SMOOTH",
"151 524 OFFCURVE",
"156 527 OFFCURVE",
"163 528 CURVE",
"167 530 OFFCURVE",
"172 533 OFFCURVE",
"176 532 CURVE SMOOTH",
"200 526 OFFCURVE",
"225 527 OFFCURVE",
"250 528 CURVE SMOOTH",
"276 529 OFFCURVE",
"302 531 OFFCURVE",
"328 532 CURVE SMOOTH",
"353 532 OFFCURVE",
"377 532 OFFCURVE",
"401 531 CURVE SMOOTH",
"428 529 OFFCURVE",
"455 526 OFFCURVE",
"483 525 CURVE SMOOTH"
);
},
{
closed = 1;
nodes = (
"398 475 OFFCURVE",
"397 460 OFFCURVE",
"396 445 CURVE SMOOTH",
"395 434 OFFCURVE",
"402 430 OFFCURVE",
"412 429 CURVE SMOOTH",
"422 428 OFFCURVE",
"432 428 OFFCURVE",
"441 427 CURVE SMOOTH",
"466 426 OFFCURVE",
"492 427 OFFCURVE",
"516 421 CURVE SMOOTH",
"543 416 OFFCURVE",
"570 420 OFFCURVE",
"598 417 CURVE",
"598 493 LINE",
"596 495 OFFCURVE",
"595 495 OFFCURVE",
"595 495 CURVE",
"536 498 OFFCURVE",
"478 501 OFFCURVE",
"419 503 CURVE SMOOTH",
"409 503 OFFCURVE",
"403 498 OFFCURVE",
"402 489 CURVE"
);
},
{
closed = 1;
nodes = (
"94 502 OFFCURVE",
"89 494 OFFCURVE",
"91 480 CURVE SMOOTH",
"93 467 OFFCURVE",
"95 453 OFFCURVE",
"97 440 CURVE SMOOTH",
"100 427 OFFCURVE",
"103 423 OFFCURVE",
"116 425 CURVE SMOOTH",
"136 428 OFFCURVE",
"156 426 OFFCURVE",
"176 426 CURVE SMOOTH",
"195 426 OFFCURVE",
"215 425 OFFCURVE",
"236 425 CURVE SMOOTH",
"247 425 OFFCURVE",
"259 426 OFFCURVE",
"273 426 CURVE",
"273 448 OFFCURVE",
"275 464 OFFCURVE",
"273 481 CURVE SMOOTH",
"273 497 OFFCURVE",
"270 501 OFFCURVE",
"253 501 CURVE SMOOTH",
"216 502 OFFCURVE",
"181 503 OFFCURVE",
"145 503 CURVE SMOOTH",
"133 504 OFFCURVE",
"120 503 OFFCURVE",
"108 503 CURVE SMOOTH"
);
}
);
vertWidth = 609;
width = 1000;
}
);
note = cid08787;
},
{
glyphname = d.rotat;
lastChange = "2020-11-05 19:14:57 +0000";
layers = (
{
layerId = "E107BE24-86B5-4C0E-8944-467415BB13ED";
paths = (
{
closed = 1;
nodes = (
"768 401 OFFCURVE",
"772 521 OFFCURVE",
"767 537 CURVE",
"63 530 LINE",
"63 356 LINE",
"141 363 OFFCURVE",
"223 357 OFFCURVE",
"305 359 CURVE SMOOTH",
"346 359 OFFCURVE",
"543 359 OFFCURVE",
"543 359 CURVE",
"771 356 LINE"
);
},
{
closed = 1;
nodes = (
"277 801 OFFCURVE",
"260 801 OFFCURVE",
"244 797 CURVE",
"212 785 OFFCURVE",
"180 774 OFFCURVE",
"156 747 CURVE SMOOTH",
"133 720 OFFCURVE",
"113 693 OFFCURVE",
"105 656 CURVE SMOOTH",
"103 646 OFFCURVE",
"103 635 OFFCURVE",
"99 625 CURVE SMOOTH",
"94 609 OFFCURVE",
"96 593 OFFCURVE",
"96 577 CURVE",
"102 577 OFFCURVE",
"106 576 OFFCURVE",
"109 576 CURVE SMOOTH",
"439 576 LINE SMOOTH",
"448 576 OFFCURVE",
"454 577 OFFCURVE",
"458 585 CURVE",
"462 582 OFFCURVE",
"466 579 OFFCURVE",
"469 576 CURVE",
"486 589 OFFCURVE",
"501 587 OFFCURVE",
"519 575 CURVE",
"522 581 OFFCURVE",
"524 585 OFFCURVE",
"524 589 CURVE SMOOTH",
"525 607 OFFCURVE",
"525 625 OFFCURVE",
"524 644 CURVE SMOOTH",
"524 650 OFFCURVE",
"522 660 OFFCURVE",
"518 662 CURVE SMOOTH",
"504 668 OFFCURVE",
"505 681 OFFCURVE",
"500 691 CURVE SMOOTH",
"494 701 OFFCURVE",
"489 711 OFFCURVE",
"483 719 CURVE SMOOTH",
"473 731 OFFCURVE",
"462 741 OFFCURVE",
"453 752 CURVE SMOOTH",
"447 758 OFFCURVE",
"442 764 OFFCURVE",
"436 768 CURVE SMOOTH",
"400 789 OFFCURVE",
"363 804 OFFCURVE",
"321 801 CURVE SMOOTH",
"312 800 OFFCURVE",
"302 801 OFFCURVE",
"293 801 CURVE SMOOTH"
);
}
);
vertWidth = 627;
width = 1000;
}
);
note = cid08788;
},
{
glyphname = e.rotat;
lastChange = "2020-11-05 19:14:57 +0000";
layers = (
{
layerId = "E107BE24-86B5-4C0E-8944-467415BB13ED";
paths = (
{
closed = 1;
nodes = (
"338 717 OFFCURVE",
"339 715 OFFCURVE",
"338 713 CURVE",
"337 673 OFFCURVE",
"335 632 OFFCURVE",
"334 592 CURVE SMOOTH",
"332 523 OFFCURVE",
"331 455 OFFCURVE",
"330 386 CURVE SMOOTH",
"330 368 OFFCURVE",
"332 364 OFFCURVE",
"351 365 CURVE SMOOTH",
"371 365 OFFCURVE",
"393 367 OFFCURVE",
"412 372 CURVE SMOOTH",
"454 383 OFFCURVE",
"489 404 OFFCURVE",
"516 437 CURVE SMOOTH",
"553 483 OFFCURVE",
"581 533 OFFCURVE",
"577 595 CURVE SMOOTH",
"576 602 OFFCURVE",
"577 609 OFFCURVE",
"577 616 CURVE SMOOTH",
"577 620 OFFCURVE",
"577 624 OFFCURVE",
"575 627 CURVE",
"564 652 OFFCURVE",
"553 676 OFFCURVE",
"540 700 CURVE SMOOTH",
"508 753 OFFCURVE",
"467 793 OFFCURVE",
"405 809 CURVE SMOOTH",
"387 813 OFFCURVE",
"368 816 OFFCURVE",
"348 821 CURVE",
"345 795 OFFCURVE",
"342 772 OFFCURVE",
"338 749 CURVE",
"338 721 LINE SMOOTH"
);
},
{
closed = 1;
nodes = (
"113 695 OFFCURVE",
"109 689 OFFCURVE",
"105 683 CURVE SMOOTH",
"103 680 OFFCURVE",
"101 676 OFFCURVE",
"100 672 CURVE SMOOTH",
"97 660 OFFCURVE",
"94 647 OFFCURVE",
"92 634 CURVE SMOOTH",
"89 621 OFFCURVE",
"87 607 OFFCURVE",
"88 593 CURVE SMOOTH",
"88 588 OFFCURVE",
"93 582 OFFCURVE",
"94 581 CURVE",
"107 582 OFFCURVE",
"115 583 OFFCURVE",
"123 583 CURVE SMOOTH",
"128 583 OFFCURVE",
"133 581 OFFCURVE",
"138 581 CURVE SMOOTH",
"193 580 OFFCURVE",
"248 580 OFFCURVE",
"303 580 CURVE",
"309 800 LINE",
"301 800 OFFCURVE",
"292 800 OFFCURVE",
"284 799 CURVE SMOOTH",
"214 792 OFFCURVE",
"154 766 OFFCURVE",
"116 701 CURVE SMOOTH"
);
}
);
vertWidth = 556;
width = 1000;
}
);
note = cid08789;
},
{
glyphname = f.rotat;
lastChange = "2020-11-05 19:14:57 +0000";
layers = (
{
layerId = "E107BE24-86B5-4C0E-8944-467415BB13ED";
paths = (
{
closed = 1;
nodes = (
"555 566 OFFCURVE",
"555 548 OFFCURVE",
"554 531 CURVE SMOOTH",
"553 510 OFFCURVE",
"551 490 OFFCURVE",
"550 470 CURVE SMOOTH",
"549 449 OFFCURVE",
"548 427 OFFCURVE",
"547 406 CURVE SMOOTH",
"547 399 OFFCURVE",
"547 391 OFFCURVE",
"547 382 CURVE",
"560 382 OFFCURVE",
"573 382 OFFCURVE",
"586 382 CURVE SMOOTH",
"592 382 OFFCURVE",
"597 386 OFFCURVE",
"603 388 CURVE SMOOTH",
"650 403 OFFCURVE",
"688 430 OFFCURVE",
"716 470 CURVE SMOOTH",
"732 495 OFFCURVE",
"745 522 OFFCURVE",
"743 553 CURVE SMOOTH",
"741 574 OFFCURVE",
"742 594 OFFCURVE",
"742 614 CURVE SMOOTH",
"742 617 OFFCURVE",
"742 621 OFFCURVE",
"741 625 CURVE SMOOTH",
"728 665 OFFCURVE",
"708 700 OFFCURVE",
"672 724 CURVE SMOOTH",
"650 738 OFFCURVE",
"628 751 OFFCURVE",
"603 759 CURVE SMOOTH",
"588 763 OFFCURVE",
"574 766 OFFCURVE",
"559 766 CURVE",
"558 765 OFFCURVE",
"556 765 OFFCURVE",
"555 765 CURVE SMOOTH",
"51 757 LINE",
"51 583 LINE",
"109 590 OFFCURVE",
"168 585 OFFCURVE",
"228 587 CURVE SMOOTH",
"258 587 OFFCURVE",
"403 586 OFFCURVE",
"403 586 CURVE",
"555 583 LINE"
);
},
{
closed = 1;
nodes = (
"355 546 OFFCURVE",
"298 550 OFFCURVE",
"239 552 CURVE SMOOTH",
"229 552 OFFCURVE",
"223 546 OFFCURVE",
"221 538 CURVE SMOOTH",
"218 524 OFFCURVE",
"217 509 OFFCURVE",
"216 494 CURVE SMOOTH",
"215 483 OFFCURVE",
"221 479 OFFCURVE",
"232 478 CURVE SMOOTH",
"242 477 OFFCURVE",
"252 477 OFFCURVE",
"261 476 CURVE SMOOTH",
"286 475 OFFCURVE",
"312 476 OFFCURVE",
"336 470 CURVE SMOOTH",
"363 465 OFFCURVE",
"390 469 OFFCURVE",
"418 466 CURVE",
"418 542 LINE",
"416 544 OFFCURVE",
"414 544 OFFCURVE",
"414 544 CURVE"
);
}
);
vertWidth = 603;
width = 1000;
}
);
note = cid08790;
},
{
glyphname = g.rotat;
lastChange = "2020-11-05 19:14:57 +0000";
layers = (
{
layerId = "E107BE24-86B5-4C0E-8944-467415BB13ED";
paths = (
{
closed = 1;
nodes = (
"414 793 OFFCURVE",
"392 805 OFFCURVE",
"370 819 CURVE SMOOTH",
"368 820 OFFCURVE",
"365 821 OFFCURVE",
"362 821 CURVE",
"336 827 OFFCURVE",
"309 827 OFFCURVE",
"282 824 CURVE SMOOTH",
"221 816 OFFCURVE",
"168 793 OFFCURVE",
"136 736 CURVE SMOOTH",
"132 730 OFFCURVE",
"129 725 OFFCURVE",
"126 720 CURVE SMOOTH",
"124 717 OFFCURVE",
"123 714 OFFCURVE",
"122 711 CURVE SMOOTH",
"120 700 OFFCURVE",
"118 689 OFFCURVE",
"116 678 CURVE SMOOTH",
"114 666 OFFCURVE",
"113 654 OFFCURVE",
"113 643 CURVE",
"114 638 OFFCURVE",
"119 633 OFFCURVE",
"119 632 CURVE",
"130 634 OFFCURVE",
"137 635 OFFCURVE",
"144 635 CURVE SMOOTH",
"149 635 OFFCURVE",
"154 633 OFFCURVE",
"158 633 CURVE SMOOTH",
"238 634 OFFCURVE",
"317 636 OFFCURVE",
"397 637 CURVE SMOOTH",
"419 637 OFFCURVE",
"440 637 OFFCURVE",
"460 637 CURVE",
"462 634 OFFCURVE",
"463 633 OFFCURVE",
"463 632 CURVE",
"466 623 OFFCURVE",
"471 617 OFFCURVE",
"482 619 CURVE SMOOTH",
"493 621 OFFCURVE",
"492 629 OFFCURVE",
"493 637 CURVE SMOOTH",
"493 655 OFFCURVE",
"495 672 OFFCURVE",
"495 690 CURVE",
"496 694 OFFCURVE",
"493 698 OFFCURVE",
"492 703 CURVE",
"487 699 OFFCURVE",
"485 697 OFFCURVE",
"483 696 CURVE",
"471 717 OFFCURVE",
"461 737 OFFCURVE",
"450 757 CURVE SMOOTH",
"446 764 OFFCURVE",
"441 773 OFFCURVE",
"435 778 CURVE SMOOTH"
);
},
{
closed = 1;
nodes = (
"-104 730 OFFCURVE",
"-107 725 OFFCURVE",
"-110 720 CURVE SMOOTH",
"-112 717 OFFCURVE",
"-113 715 OFFCURVE",
"-114 711 CURVE SMOOTH",
"-117 701 OFFCURVE",
"-119 691 OFFCURVE",
"-121 680 CURVE SMOOTH",
"-123 668 OFFCURVE",
"-125 657 OFFCURVE",
"-125 645 CURVE SMOOTH",
"-125 640 OFFCURVE",
"-120 636 OFFCURVE",
"-119 635 CURVE",
"-108 636 OFFCURVE",
"-102 637 OFFCURVE",
"-95 637 CURVE",
"-90 636 OFFCURVE",
"-86 635 OFFCURVE",
"-82 634 CURVE",
"-36 634 OFFCURVE",
"10 634 OFFCURVE",
"56 634 CURVE",
"62 819 LINE",
"55 818 OFFCURVE",
"48 818 OFFCURVE",
"41 818 CURVE",
"-18 811 OFFCURVE",
"-69 790 OFFCURVE",
"-101 735 CURVE SMOOTH"
);
},
{
closed = 1;
nodes = (
"119 610 OFFCURVE",
"113 614 OFFCURVE",
"106 614 CURVE SMOOTH",
"32 615 OFFCURVE",
"-40 617 OFFCURVE",
"-114 618 CURVE SMOOTH",
"-118 618 OFFCURVE",
"-124 617 OFFCURVE",
"-128 616 CURVE",
"-131 471 LINE",
"-85 462 OFFCURVE",
"-41 464 OFFCURVE",
"4 463 CURVE SMOOTH",
"49 462 OFFCURVE",
"94 461 OFFCURVE",
"138 460 CURVE SMOOTH",
"164 460 OFFCURVE",
"190 459 OFFCURVE",
"216 459 CURVE",
"218 457 OFFCURVE",
"219 455 OFFCURVE",
"221 453 CURVE SMOOTH",
"239 436 OFFCURVE",
"262 423 OFFCURVE",
"288 418 CURVE SMOOTH",
"327 411 OFFCURVE",
"365 409 OFFCURVE",
"404 419 CURVE SMOOTH",
"434 427 OFFCURVE",
"462 442 OFFCURVE",
"481 466 CURVE SMOOTH",
"503 493 OFFCURVE",
"522 524 OFFCURVE",
"523 562 CURVE SMOOTH",
"523 574 OFFCURVE",
"526 586 OFFCURVE",
"528 601 CURVE",
"455 603 OFFCURVE",
"387 606 OFFCURVE",
"319 608 CURVE SMOOTH",
"285 608 OFFCURVE",
"252 605 OFFCURVE",
"218 607 CURVE SMOOTH",
"210 608 OFFCURVE",
"202 606 OFFCURVE",
"194 605 CURVE SMOOTH",
"189 605 OFFCURVE",
"185 606 OFFCURVE",
"180 606 CURVE SMOOTH",
"177 606 OFFCURVE",
"173 607 OFFCURVE",
"170 609 CURVE SMOOTH",
"165 612 OFFCURVE",
"161 610 OFFCURVE",
"159 606 CURVE",
"153 606 OFFCURVE",
"146 607 OFFCURVE",
"140 607 CURVE SMOOTH",
"135 607 OFFCURVE",
"129 608 OFFCURVE",
"124 609 CURVE SMOOTH"
);
}
);
vertWidth = 519;
width = 1000;
}
);
note = cid08791;
},
{
glyphname = h.rotat;
lastChange = "2020-11-05 19:14:57 +0000";
layers = (
{
layerId = "E107BE24-86B5-4C0E-8944-467415BB13ED";
paths = (
{
closed = 1;
nodes = (
"122 468 OFFCURVE",
"124 403 OFFCURVE",
"125 337 CURVE SMOOTH",
"126 320 OFFCURVE",
"128 316 OFFCURVE",
"146 317 CURVE SMOOTH",
"165 319 OFFCURVE",
"186 321 OFFCURVE",
"204 327 CURVE SMOOTH",
"243 339 OFFCURVE",
"276 361 OFFCURVE",
"300 393 CURVE SMOOTH",
"334 438 OFFCURVE",
"359 487 OFFCURVE",
"352 546 CURVE SMOOTH",
"351 552 OFFCURVE",
"352 559 OFFCURVE",
"351 566 CURVE SMOOTH",
"351 570 OFFCURVE",
"351 573 OFFCURVE",
"349 577 CURVE SMOOTH",
"348 580 OFFCURVE",
"347 582 OFFCURVE",
"345 585 CURVE",
"415 585 OFFCURVE",
"501 585 OFFCURVE",
"501 585 CURVE",
"726 581 LINE",
"723 626 OFFCURVE",
"727 745 OFFCURVE",
"722 761 CURVE",
"27 753 LINE",
"27 582 LINE",
"58 584 OFFCURVE",
"90 585 OFFCURVE",
"120 585 CURVE",
"120 568 OFFCURVE",
"120 551 OFFCURVE",
"121 533 CURVE SMOOTH"
);
},
{
closed = 1;
nodes = (
"115 377 OFFCURVE",
"115 431 OFFCURVE",
"114 486 CURVE SMOOTH",
"114 494 OFFCURVE",
"109 500 OFFCURVE",
"101 501 CURVE SMOOTH",
"87 503 OFFCURVE",
"73 503 OFFCURVE",
"59 504 CURVE SMOOTH",
"49 504 OFFCURVE",
"46 498 OFFCURVE",
"45 488 CURVE SMOOTH",
"45 479 OFFCURVE",
"45 470 OFFCURVE",
"45 461 CURVE SMOOTH",
"45 438 OFFCURVE",
"47 414 OFFCURVE",
"44 391 CURVE SMOOTH",
"40 365 OFFCURVE",
"45 341 OFFCURVE",
"44 315 CURVE",
"115 318 LINE",
"116 321 OFFCURVE",
"116 322 OFFCURVE",
"116 322 CURVE"
);
}
);
vertWidth = 660;
width = 1000;
}
);
note = cid08792;
},
{
glyphname = i.rotat;
lastChange = "2020-11-05 19:14:57 +0000";
layers = (
{
layerId = "E107BE24-86B5-4C0E-8944-467415BB13ED";
paths = (
{
closed = 1;
nodes = (
"548 644 OFFCURVE",
"551 761 OFFCURVE",
"548 777 CURVE",
"48 769 LINE",
"48 601 LINE",
"104 608 OFFCURVE",
"161 602 OFFCURVE",
"219 604 CURVE SMOOTH",
"248 604 OFFCURVE",
"388 604 OFFCURVE",
"388 604 CURVE",
"550 601 LINE"
);
},
{
closed = 1;
nodes = (
"631 589 OFFCURVE",
"636 586 OFFCURVE",
"640 586 CURVE SMOOTH",
"648 585 OFFCURVE",
"656 585 OFFCURVE",
"664 584 CURVE SMOOTH",
"669 583 OFFCURVE",
"672 586 OFFCURVE",
"673 588 CURVE SMOOTH",
"677 593 OFFCURVE",
"681 595 OFFCURVE",
"686 597 CURVE SMOOTH",
"702 601 OFFCURVE",
"713 612 OFFCURVE",
"723 623 CURVE SMOOTH",
"733 633 OFFCURVE",
"741 646 OFFCURVE",
"743 661 CURVE SMOOTH",
"748 684 OFFCURVE",
"749 705 OFFCURVE",
"743 727 CURVE SMOOTH",
"739 745 OFFCURVE",
"730 761 OFFCURVE",
"716 772 CURVE SMOOTH",
"700 784 OFFCURVE",
"683 795 OFFCURVE",
"661 795 CURVE",
"654 796 OFFCURVE",
"647 797 OFFCURVE",
"639 798 CURVE",
"638 757 OFFCURVE",
"636 718 OFFCURVE",
"635 679 CURVE SMOOTH",
"635 659 OFFCURVE",
"637 640 OFFCURVE",
"635 621 CURVE SMOOTH",
"634 612 OFFCURVE",
"639 603 OFFCURVE",
"634 593 CURVE"
);
}
);
vertWidth = 386;
width = 1000;
}
);
note = cid08793;
},
{
glyphname = j.rotat;
lastChange = "2020-11-05 19:14:57 +0000";
layers = (
{
layerId = "E107BE24-86B5-4C0E-8944-467415BB13ED";
paths = (
{
closed = 1;
nodes = (
"570 411 LINE SMOOTH",
"576 411 OFFCURVE",
"581 412 OFFCURVE",
"587 413 CURVE",
"587 582 LINE",
"557 582 LINE SMOOTH",
"492 582 OFFCURVE",
"427 583 OFFCURVE",
"362 582 CURVE SMOOTH",
"309 581 OFFCURVE",
"257 578 OFFCURVE",
"205 577 CURVE SMOOTH",
"129 576 OFFCURVE",
"193 577 OFFCURVE",
"119 577 CURVE SMOOTH",
"109 577 OFFCURVE",
"98 574 OFFCURVE",
"90 573 CURVE",
"88 644 OFFCURVE",
"86 715 OFFCURVE",
"84 789 CURVE",
"68 789 OFFCURVE",
"56 792 OFFCURVE",
"46 788 CURVE SMOOTH",
"15 776 OFFCURVE",
"-18 766 OFFCURVE",
"-44 743 CURVE SMOOTH",
"-77 714 OFFCURVE",
"-102 680 OFFCURVE",
"-100 631 CURVE SMOOTH",
"-99 603 OFFCURVE",
"-97 574 OFFCURVE",
"-99 545 CURVE SMOOTH",
"-100 537 OFFCURVE",
"-98 529 OFFCURVE",
"-95 522 CURVE SMOOTH",
"-77 481 OFFCURVE",
"-44 453 OFFCURVE",
"-7 428 CURVE SMOOTH",
"14 414 OFFCURVE",
"35 409 OFFCURVE",
"60 411 CURVE SMOOTH",
"77 412 OFFCURVE",
"95 411 OFFCURVE",
"114 411 CURVE SMOOTH"
);
},
{
closed = 1;
nodes = (
"716 406 OFFCURVE",
"720 408 OFFCURVE",
"725 409 CURVE SMOOTH",
"741 413 OFFCURVE",
"752 424 OFFCURVE",
"762 435 CURVE SMOOTH",
"772 446 OFFCURVE",
"780 458 OFFCURVE",
"782 473 CURVE SMOOTH",
"787 496 OFFCURVE",
"788 517 OFFCURVE",
"782 540 CURVE SMOOTH",
"778 557 OFFCURVE",
"769 573 OFFCURVE",
"755 584 CURVE SMOOTH",
"739 597 OFFCURVE",
"722 607 OFFCURVE",
"700 608 CURVE SMOOTH",
"693 608 OFFCURVE",
"686 610 OFFCURVE",
"678 611 CURVE",
"677 569 OFFCURVE",
"675 530 OFFCURVE",
"674 491 CURVE SMOOTH",
"674 472 OFFCURVE",
"676 453 OFFCURVE",
"674 434 CURVE SMOOTH",
"673 424 OFFCURVE",
"678 415 OFFCURVE",
"673 406 CURVE SMOOTH",
"670 401 OFFCURVE",
"675 399 OFFCURVE",
"679 398 CURVE",
"687 398 OFFCURVE",
"695 398 OFFCURVE",
"703 397 CURVE SMOOTH",
"708 396 OFFCURVE",
"711 398 OFFCURVE",
"712 401 CURVE"
);
}
);
vertWidth = 565;
width = 1000;
}
);
note = cid08794;
},
{
glyphname = k.rotat;
lastChange = "2020-11-05 19:14:57 +0000";
layers = (
{
layerId = "E107BE24-86B5-4C0E-8944-467415BB13ED";
paths = (
{
closed = 1;
nodes = (
"527 385 OFFCURVE",
"527 406 OFFCURVE",
"526 427 CURVE SMOOTH",
"526 434 OFFCURVE",
"523 446 OFFCURVE",
"519 448 CURVE SMOOTH",
"503 455 OFFCURVE",
"504 469 OFFCURVE",
"498 481 CURVE SMOOTH",
"492 492 OFFCURVE",
"486 504 OFFCURVE",
"479 513 CURVE SMOOTH",
"468 526 OFFCURVE",
"455 538 OFFCURVE",
"444 551 CURVE SMOOTH",
"438 557 OFFCURVE",
"433 564 OFFCURVE",
"425 569 CURVE SMOOTH",
"408 580 OFFCURVE",
"390 589 OFFCURVE",
"371 595 CURVE",
"437 595 OFFCURVE",
"510 595 OFFCURVE",
"510 595 CURVE",
"738 592 LINE",
"735 637 OFFCURVE",
"739 757 OFFCURVE",
"735 774 CURVE",
"30 766 LINE",
"30 592 LINE",
"82 597 OFFCURVE",
"135 596 OFFCURVE",
"188 595 CURVE",
"157 584 OFFCURVE",
"128 571 OFFCURVE",
"106 545 CURVE SMOOTH",
"79 515 OFFCURVE",
"56 483 OFFCURVE",
"47 441 CURVE SMOOTH",
"44 429 OFFCURVE",
"44 417 OFFCURVE",
"39 405 CURVE",
"34 387 OFFCURVE",
"37 369 OFFCURVE",
"37 351 CURVE",
"43 351 OFFCURVE",
"48 350 OFFCURVE",
"51 350 CURVE SMOOTH",
"429 350 LINE SMOOTH",
"439 350 OFFCURVE",
"446 351 OFFCURVE",
"451 360 CURVE",
"455 356 OFFCURVE",
"460 352 OFFCURVE",
"463 350 CURVE",
"482 364 OFFCURVE",
"500 362 OFFCURVE",
"521 348 CURVE",
"523 355 OFFCURVE",
"526 360 OFFCURVE",
"526 364 CURVE SMOOTH"
);
}
);
vertWidth = 644;
width = 1000;
}
);
note = cid08795;
},
{
glyphname = l.rotat;
lastChange = "2020-11-05 19:14:57 +0000";
layers = (
{
layerId = "E107BE24-86B5-4C0E-8944-467415BB13ED";
paths = (
{
closed = 1;
nodes = (
"734 616 OFFCURVE",
"739 736 OFFCURVE",
"734 752 CURVE",
"30 745 LINE",
"30 577 LINE SMOOTH",
"30 562 OFFCURVE",
"30 548 OFFCURVE",
"28 533 CURVE",
"105 533 LINE",
"107 535 OFFCURVE",
"107 536 OFFCURVE",
"107 536 CURVE",
"107 549 OFFCURVE",
"108 561 OFFCURVE",
"108 574 CURVE",
"162 575 OFFCURVE",
"217 573 OFFCURVE",
"272 574 CURVE SMOOTH",
"313 574 OFFCURVE",
"510 574 OFFCURVE",
"510 574 CURVE",
"738 571 LINE"
);
}
);
vertWidth = 500;
width = 1000;
}
);
note = cid08796;
},
{
glyphname = m.rotat;
lastChange = "2020-11-05 19:14:57 +0000";
layers = (
{
layerId = "E107BE24-86B5-4C0E-8944-467415BB13ED";
paths = (
{
closed = 1;
nodes = (
"464 222 OFFCURVE",
"520 246 OFFCURVE",
"556 308 CURVE",
"560 313 OFFCURVE",
"563 319 OFFCURVE",
"567 325 CURVE SMOOTH",
"569 328 OFFCURVE",
"571 331 OFFCURVE",
"572 335 CURVE SMOOTH",
"574 347 OFFCURVE",
"577 358 OFFCURVE",
"579 371 CURVE SMOOTH",
"582 384 OFFCURVE",
"584 397 OFFCURVE",
"584 410 CURVE",
"583 416 OFFCURVE",
"578 421 OFFCURVE",
"577 422 CURVE",
"565 421 OFFCURVE",
"557 420 OFFCURVE",
"549 420 CURVE SMOOTH",
"544 420 OFFCURVE",
"539 422 OFFCURVE",
"534 422 CURVE SMOOTH",
"528 423 OFFCURVE",
"523 423 OFFCURVE",
"517 423 CURVE",
"534 434 OFFCURVE",
"549 450 OFFCURVE",
"561 470 CURVE SMOOTH",
"564 475 OFFCURVE",
"567 480 OFFCURVE",
"570 485 CURVE SMOOTH",
"571 487 OFFCURVE",
"573 490 OFFCURVE",
"574 493 CURVE SMOOTH",
"576 503 OFFCURVE",
"578 513 OFFCURVE",
"580 523 CURVE SMOOTH",
"582 534 OFFCURVE",
"584 545 OFFCURVE",
"584 556 CURVE",
"583 560 OFFCURVE",
"579 564 OFFCURVE",
"578 565 CURVE",
"568 564 OFFCURVE",
"562 564 OFFCURVE",
"555 564 CURVE SMOOTH",
"551 564 OFFCURVE",
"547 565 OFFCURVE",
"543 566 CURVE",
"499 566 OFFCURVE",
"455 566 OFFCURVE",
"412 566 CURVE",
"410 494 LINE",
"343 500 OFFCURVE",
"277 505 OFFCURVE",
"211 510 CURVE SMOOTH",
"198 511 OFFCURVE",
"193 507 OFFCURVE",
"189 493 CURVE SMOOTH",
"179 465 OFFCURVE",
"184 436 OFFCURVE",
"183 405 CURVE",
"211 404 OFFCURVE",
"235 402 OFFCURVE",
"259 401 CURVE SMOOTH",
"285 399 OFFCURVE",
"311 400 OFFCURVE",
"338 396 CURVE SMOOTH",
"350 394 OFFCURVE",
"363 393 OFFCURVE",
"375 393 CURVE",
"374 336 LINE",
"293 343 OFFCURVE",
"214 349 OFFCURVE",
"135 355 CURVE SMOOTH",
"119 357 OFFCURVE",
"113 351 OFFCURVE",
"108 335 CURVE SMOOTH",
"96 301 OFFCURVE",
"102 266 OFFCURVE",
"101 229 CURVE",
"134 227 OFFCURVE",
"163 225 OFFCURVE",
"192 224 CURVE SMOOTH",
"224 222 OFFCURVE",
"255 223 OFFCURVE",
"287 218 CURVE SMOOTH",
"315 213 OFFCURVE",
"342 214 OFFCURVE",
"370 213 CURVE",
"370 212 LINE",
"373 212 OFFCURVE",
"377 213 OFFCURVE",
"380 213 CURVE SMOOTH",
"386 213 OFFCURVE",
"392 213 OFFCURVE",
"399 212 CURVE",
"399 213 OFFCURVE",
"399 214 OFFCURVE",
"399 214 CURVE"
);
},
{
closed = 1;
nodes = (
"591 780 LINE",
"318 780 LINE",
"318 782 OFFCURVE",
"278 782 OFFCURVE",
"232 780 CURVE SMOOTH",
"182 775 OFFCURVE",
"129 770 OFFCURVE",
"78 765 CURVE",
"78 580 LINE",
"136 578 OFFCURVE",
"193 575 OFFCURVE",
"247 575 CURVE SMOOTH",
"349 575 OFFCURVE",
"450 576 OFFCURVE",
"552 578 CURVE SMOOTH",
"564 578 OFFCURVE",
"577 578 OFFCURVE",
"591 580 CURVE",
"591 679 LINE"
);
}
);
vertWidth = 713;
width = 1000;
}
);
note = cid08797;
},
{
glyphname = n.rotat;
lastChange = "2020-11-05 19:14:57 +0000";
layers = (
{
layerId = "E107BE24-86B5-4C0E-8944-467415BB13ED";
paths = (
{
closed = 1;
nodes = (
"459 370 OFFCURVE",
"516 395 OFFCURVE",
"551 456 CURVE",
"555 461 OFFCURVE",
"559 467 OFFCURVE",
"562 473 CURVE SMOOTH",
"564 476 OFFCURVE",
"566 479 OFFCURVE",
"567 483 CURVE SMOOTH",
"570 495 OFFCURVE",
"573 507 OFFCURVE",
"575 519 CURVE SMOOTH",
"577 532 OFFCURVE",
"579 545 OFFCURVE",
"579 559 CURVE SMOOTH",
"579 564 OFFCURVE",
"573 569 OFFCURVE",
"573 570 CURVE",
"560 569 OFFCURVE",
"552 568 OFFCURVE",
"545 568 CURVE SMOOTH",
"540 568 OFFCURVE",
"535 570 OFFCURVE",
"530 571 CURVE",
"477 571 OFFCURVE",
"424 571 OFFCURVE",
"372 572 CURVE",
"369 484 LINE",
"289 491 OFFCURVE",
"209 498 OFFCURVE",
"130 504 CURVE SMOOTH",
"114 505 OFFCURVE",
"109 500 OFFCURVE",
"104 483 CURVE SMOOTH",
"91 449 OFFCURVE",
"98 414 OFFCURVE",
"97 377 CURVE",
"129 375 OFFCURVE",
"159 374 OFFCURVE",
"187 372 CURVE SMOOTH",
"219 370 OFFCURVE",
"251 371 OFFCURVE",
"282 366 CURVE SMOOTH",
"310 361 OFFCURVE",
"337 362 OFFCURVE",
"366 361 CURVE SMOOTH",
"369 361 OFFCURVE",
"372 361 OFFCURVE",
"375 361 CURVE SMOOTH",
"381 361 OFFCURVE",
"388 361 OFFCURVE",
"394 361 CURVE",
"394 361 OFFCURVE",
"394 362 OFFCURVE",
"394 362 CURVE"
);
},
{
closed = 1;
nodes = (
"313 787 OFFCURVE",
"273 787 OFFCURVE",
"227 785 CURVE SMOOTH",
"178 780 OFFCURVE",
"124 775 OFFCURVE",
"74 770 CURVE",
"74 585 LINE",
"131 583 OFFCURVE",
"188 580 OFFCURVE",
"243 580 CURVE SMOOTH",
"344 580 OFFCURVE",
"446 581 OFFCURVE",
"547 583 CURVE SMOOTH",
"559 583 OFFCURVE",
"573 583 OFFCURVE",
"586 585 CURVE",
"586 684 LINE",
"586 785 LINE",
"313 785 LINE"
);
}
);
vertWidth = 603;
width = 1000;
}
);
note = cid08798;
},
{
glyphname = o.rotat;
lastChange = "2020-11-05 19:14:57 +0000";
layers = (
{
layerId = "E107BE24-86B5-4C0E-8944-467415BB13ED";
paths = (
{
closed = 1;
nodes = (
"225 769 OFFCURVE",
"201 758 OFFCURVE",
"177 745 CURVE SMOOTH",
"169 741 OFFCURVE",
"158 736 OFFCURVE",
"153 729 CURVE SMOOTH",
"135 705 OFFCURVE",
"119 679 OFFCURVE",
"104 654 CURVE",
"102 652 OFFCURVE",
"101 648 OFFCURVE",
"101 645 CURVE",
"93 614 OFFCURVE",
"92 583 OFFCURVE",
"94 551 CURVE SMOOTH",
"101 479 OFFCURVE",
"126 416 OFFCURVE",
"192 376 CURVE SMOOTH",
"198 373 OFFCURVE",
"204 369 OFFCURVE",
"210 365 CURVE SMOOTH",
"213 363 OFFCURVE",
"216 361 OFFCURVE",
"220 360 CURVE SMOOTH",
"233 357 OFFCURVE",
"245 353 OFFCURVE",
"259 351 CURVE SMOOTH",
"272 348 OFFCURVE",
"286 346 OFFCURVE",
"300 346 CURVE SMOOTH",
"306 346 OFFCURVE",
"311 352 OFFCURVE",
"312 353 CURVE",
"311 367 OFFCURVE",
"310 375 OFFCURVE",
"311 383 CURVE SMOOTH",
"311 389 OFFCURVE",
"313 394 OFFCURVE",
"313 399 CURVE SMOOTH",
"314 493 OFFCURVE",
"315 586 OFFCURVE",
"316 680 CURVE SMOOTH",
"317 705 OFFCURVE",
"317 730 OFFCURVE",
"318 753 CURVE",
"322 756 OFFCURVE",
"323 756 OFFCURVE",
"324 757 CURVE",
"335 760 OFFCURVE",
"343 765 OFFCURVE",
"340 778 CURVE SMOOTH",
"338 791 OFFCURVE",
"329 791 OFFCURVE",
"319 792 CURVE SMOOTH",
"298 793 OFFCURVE",
"278 795 OFFCURVE",
"258 796 CURVE",
"253 797 OFFCURVE",
"249 795 OFFCURVE",
"242 794 CURVE",
"246 788 OFFCURVE",
"249 784 OFFCURVE",
"250 782 CURVE"
);
},
{
closed = 1;
nodes = (
"395 336 OFFCURVE",
"401 341 OFFCURVE",
"405 346 CURVE SMOOTH",
"412 356 OFFCURVE",
"422 360 OFFCURVE",
"432 362 CURVE SMOOTH",
"464 370 OFFCURVE",
"489 392 OFFCURVE",
"510 414 CURVE SMOOTH",
"530 435 OFFCURVE",
"546 460 OFFCURVE",
"553 491 CURVE SMOOTH",
"563 536 OFFCURVE",
"566 581 OFFCURVE",
"556 627 CURVE SMOOTH",
"548 663 OFFCURVE",
"531 695 OFFCURVE",
"504 718 CURVE SMOOTH",
"472 745 OFFCURVE",
"437 769 OFFCURVE",
"393 770 CURVE SMOOTH",
"379 771 OFFCURVE",
"364 775 OFFCURVE",
"347 778 CURVE",
"342 693 OFFCURVE",
"336 613 OFFCURVE",
"332 533 CURVE SMOOTH",
"330 494 OFFCURVE",
"333 455 OFFCURVE",
"329 416 CURVE SMOOTH",
"327 397 OFFCURVE",
"336 378 OFFCURVE",
"325 359 CURVE SMOOTH",
"320 349 OFFCURVE",
"328 345 OFFCURVE",
"337 344 CURVE SMOOTH",
"353 341 OFFCURVE",
"370 341 OFFCURVE",
"386 339 CURVE"
);
}
);
vertWidth = 621;
width = 1000;
}
);
note = cid08799;
},
{
glyphname = p.rotat;
lastChange = "2020-11-05 19:14:57 +0000";
layers = (
{
layerId = "E107BE24-86B5-4C0E-8944-467415BB13ED";
paths = (
{
closed = 1;
nodes = (
"-114 595 LINE",
"-35 602 OFFCURVE",
"47 596 OFFCURVE",
"128 598 CURVE SMOOTH",
"169 598 OFFCURVE",
"366 598 OFFCURVE",
"366 598 CURVE",
"594 595 LINE",
"591 640 OFFCURVE",
"595 760 OFFCURVE",
"590 776 CURVE",
"-114 769 LINE"
);
},
{
closed = 1;
nodes = (
"396 336 OFFCURVE",
"401 336 OFFCURVE",
"405 337 CURVE SMOOTH",
"454 354 OFFCURVE",
"498 378 OFFCURVE",
"527 422 CURVE SMOOTH",
"544 449 OFFCURVE",
"560 476 OFFCURVE",
"569 507 CURVE SMOOTH",
"574 525 OFFCURVE",
"578 542 OFFCURVE",
"578 560 CURVE SMOOTH",
"577 568 OFFCURVE",
"573 574 OFFCURVE",
"566 572 CURVE SMOOTH",
"552 569 OFFCURVE",
"539 574 OFFCURVE",
"526 573 CURVE SMOOTH",
"521 572 OFFCURVE",
"516 570 OFFCURVE",
"510 569 CURVE",
"505 567 OFFCURVE",
"501 565 OFFCURVE",
"497 566 CURVE SMOOTH",
"475 571 OFFCURVE",
"452 570 OFFCURVE",
"429 569 CURVE SMOOTH",
"405 568 OFFCURVE",
"381 566 OFFCURVE",
"357 566 CURVE SMOOTH",
"335 566 OFFCURVE",
"312 566 OFFCURVE",
"290 566 CURVE SMOOTH",
"265 568 OFFCURVE",
"240 571 OFFCURVE",
"215 571 CURVE SMOOTH",
"189 573 OFFCURVE",
"163 574 OFFCURVE",
"136 575 CURVE SMOOTH",
"128 576 OFFCURVE",
"120 575 OFFCURVE",
"108 575 CURVE",
"108 560 OFFCURVE",
"108 543 OFFCURVE",
"108 527 CURVE SMOOTH",
"108 520 OFFCURVE",
"114 514 OFFCURVE",
"115 507 CURVE",
"133 449 OFFCURVE",
"166 402 OFFCURVE",
"216 368 CURVE SMOOTH",
"246 348 OFFCURVE",
"278 333 OFFCURVE",
"318 335 CURVE SMOOTH",
"342 338 OFFCURVE",
"367 336 OFFCURVE",
"391 336 CURVE SMOOTH"
);
}
);
vertWidth = 631;
width = 1000;
}
);
note = cid08800;
},
{
glyphname = q.rotat;
lastChange = "2020-11-05 19:14:57 +0000";
layers = (
{
layerId = "E107BE24-86B5-4C0E-8944-467415BB13ED";
paths = (
{
closed = 1;
nodes = (
"610 361 LINE",
"615 377 OFFCURVE",
"611 497 OFFCURVE",
"614 542 CURVE",
"386 539 LINE",
"386 539 OFFCURVE",
"189 539 OFFCURVE",
"148 539 CURVE SMOOTH",
"67 541 OFFCURVE",
"-15 535 OFFCURVE",
"-94 542 CURVE",
"-94 368 LINE"
);
},
{
closed = 1;
nodes = (
"186 735 OFFCURVE",
"153 688 OFFCURVE",
"134 630 CURVE",
"133 623 OFFCURVE",
"128 617 OFFCURVE",
"128 610 CURVE SMOOTH",
"127 594 OFFCURVE",
"127 577 OFFCURVE",
"127 562 CURVE",
"139 562 OFFCURVE",
"148 561 OFFCURVE",
"156 562 CURVE SMOOTH",
"183 563 OFFCURVE",
"209 564 OFFCURVE",
"235 566 CURVE SMOOTH",
"260 566 OFFCURVE",
"285 569 OFFCURVE",
"310 571 CURVE SMOOTH",
"332 572 OFFCURVE",
"355 572 OFFCURVE",
"377 572 CURVE SMOOTH",
"401 571 OFFCURVE",
"425 569 OFFCURVE",
"449 568 CURVE SMOOTH",
"472 567 OFFCURVE",
"495 566 OFFCURVE",
"517 572 CURVE",
"521 572 OFFCURVE",
"525 570 OFFCURVE",
"530 568 CURVE",
"536 567 OFFCURVE",
"541 565 OFFCURVE",
"546 564 CURVE SMOOTH",
"559 563 OFFCURVE",
"572 568 OFFCURVE",
"586 565 CURVE SMOOTH",
"593 563 OFFCURVE",
"597 569 OFFCURVE",
"598 577 CURVE SMOOTH",
"598 595 OFFCURVE",
"594 612 OFFCURVE",
"589 630 CURVE SMOOTH",
"580 661 OFFCURVE",
"564 688 OFFCURVE",
"547 715 CURVE SMOOTH",
"518 759 OFFCURVE",
"474 783 OFFCURVE",
"425 800 CURVE SMOOTH",
"421 801 OFFCURVE",
"416 801 OFFCURVE",
"411 801 CURVE SMOOTH",
"387 801 OFFCURVE",
"362 799 OFFCURVE",
"338 802 CURVE SMOOTH",
"298 804 OFFCURVE",
"266 789 OFFCURVE",
"236 769 CURVE SMOOTH"
);
}
);
vertWidth = 624;
width = 1000;
}
);
note = cid08801;
},
{
glyphname = r.rotat;
lastChange = "2020-11-05 19:14:57 +0000";
layers = (
{
layerId = "E107BE24-86B5-4C0E-8944-467415BB13ED";
paths = (
{
closed = 1;
nodes = (
"588 663 OFFCURVE",
"591 780 OFFCURVE",
"588 795 CURVE",
"88 788 LINE",
"88 620 LINE",
"143 626 OFFCURVE",
"202 621 OFFCURVE",
"259 623 CURVE SMOOTH",
"289 623 OFFCURVE",
"429 623 OFFCURVE",
"429 623 CURVE",
"591 620 LINE"
);
},
{
closed = 1;
nodes = (
"511 598 OFFCURVE",
"460 577 OFFCURVE",
"428 522 CURVE SMOOTH",
"425 517 OFFCURVE",
"422 512 OFFCURVE",
"419 507 CURVE SMOOTH",
"417 504 OFFCURVE",
"416 502 OFFCURVE",
"415 498 CURVE SMOOTH",
"412 488 OFFCURVE",
"410 478 OFFCURVE",
"408 467 CURVE SMOOTH",
"406 455 OFFCURVE",
"404 444 OFFCURVE",
"404 432 CURVE SMOOTH",
"404 427 OFFCURVE",
"409 423 OFFCURVE",
"410 422 CURVE",
"421 423 OFFCURVE",
"427 424 OFFCURVE",
"434 424 CURVE",
"438 423 OFFCURVE",
"443 422 OFFCURVE",
"447 421 CURVE",
"493 421 OFFCURVE",
"539 421 OFFCURVE",
"585 421 CURVE",
"591 606 LINE",
"584 605 OFFCURVE",
"577 605 OFFCURVE",
"570 604 CURVE SMOOTH"
);
}
);
vertWidth = 504;
width = 1000;
}
);
note = cid08802;
},
{
glyphname = s.rotat;
lastChange = "2020-11-05 19:14:57 +0000";
layers = (
{
layerId = "E107BE24-86B5-4C0E-8944-467415BB13ED";
paths = (
{
closed = 1;
nodes = (
"346 532 LINE SMOOTH",
"347 534 OFFCURVE",
"349 536 OFFCURVE",
"349 539 CURVE",
"351 548 OFFCURVE",
"354 556 OFFCURVE",
"355 565 CURVE SMOOTH",
"357 574 OFFCURVE",
"359 584 OFFCURVE",
"358 593 CURVE SMOOTH",
"358 597 OFFCURVE",
"354 601 OFFCURVE",
"354 602 CURVE",
"344 601 OFFCURVE",
"339 600 OFFCURVE",
"333 600 CURVE",
"330 601 OFFCURVE",
"326 602 OFFCURVE",
"322 602 CURVE SMOOTH",
"259 603 OFFCURVE",
"195 603 OFFCURVE",
"131 604 CURVE SMOOTH",
"115 605 OFFCURVE",
"98 605 OFFCURVE",
"82 605 CURVE",
"81 608 OFFCURVE",
"80 609 OFFCURVE",
"80 610 CURVE SMOOTH",
"78 617 OFFCURVE",
"74 622 OFFCURVE",
"65 621 CURVE SMOOTH",
"56 619 OFFCURVE",
"56 613 OFFCURVE",
"56 606 CURVE SMOOTH",
"55 592 OFFCURVE",
"53 578 OFFCURVE",
"53 565 CURVE",
"52 561 OFFCURVE",
"54 558 OFFCURVE",
"55 553 CURVE",
"59 557 OFFCURVE",
"61 558 OFFCURVE",
"62 559 CURVE",
"71 542 OFFCURVE",
"79 526 OFFCURVE",
"87 510 CURVE SMOOTH",
"91 504 OFFCURVE",
"94 497 OFFCURVE",
"99 493 CURVE SMOOTH",
"115 480 OFFCURVE",
"132 470 OFFCURVE",
"149 459 CURVE",
"150 457 OFFCURVE",
"153 457 OFFCURVE",
"155 457 CURVE",
"176 451 OFFCURVE",
"197 451 OFFCURVE",
"219 453 CURVE SMOOTH",
"268 457 OFFCURVE",
"311 475 OFFCURVE",
"338 520 CURVE SMOOTH"
);
},
{
closed = 1;
nodes = (
"581 621 OFFCURVE",
"581 633 OFFCURVE",
"583 644 CURVE SMOOTH",
"585 651 OFFCURVE",
"582 655 OFFCURVE",
"578 658 CURVE SMOOTH",
"571 663 OFFCURVE",
"568 670 OFFCURVE",
"566 677 CURVE SMOOTH",
"561 699 OFFCURVE",
"546 716 OFFCURVE",
"530 731 CURVE SMOOTH",
"516 746 OFFCURVE",
"498 757 OFFCURVE",
"476 762 CURVE SMOOTH",
"444 769 OFFCURVE",
"413 771 OFFCURVE",
"381 764 CURVE SMOOTH",
"355 758 OFFCURVE",
"332 747 OFFCURVE",
"316 727 CURVE SMOOTH",
"297 705 OFFCURVE",
"281 680 OFFCURVE",
"279 649 CURVE SMOOTH",
"279 639 OFFCURVE",
"276 629 OFFCURVE",
"274 617 CURVE",
"334 613 OFFCURVE",
"390 609 OFFCURVE",
"446 606 CURVE SMOOTH",
"474 605 OFFCURVE",
"502 607 OFFCURVE",
"529 604 CURVE SMOOTH",
"542 603 OFFCURVE",
"556 609 OFFCURVE",
"569 601 CURVE",
"576 598 OFFCURVE",
"579 604 OFFCURVE",
"580 610 CURVE SMOOTH"
);
},
{
closed = 1;
nodes = (
"109 618 OFFCURVE",
"113 616 OFFCURVE",
"117 616 CURVE SMOOTH",
"159 615 OFFCURVE",
"203 615 OFFCURVE",
"246 615 CURVE",
"251 789 LINE",
"244 789 OFFCURVE",
"238 789 OFFCURVE",
"231 788 CURVE SMOOTH",
"176 782 OFFCURVE",
"128 762 OFFCURVE",
"99 711 CURVE SMOOTH",
"96 706 OFFCURVE",
"93 701 OFFCURVE",
"90 696 CURVE SMOOTH",
"89 694 OFFCURVE",
"87 691 OFFCURVE",
"86 688 CURVE SMOOTH",
"84 678 OFFCURVE",
"82 669 OFFCURVE",
"80 658 CURVE SMOOTH",
"78 648 OFFCURVE",
"76 637 OFFCURVE",
"76 626 CURVE",
"77 621 OFFCURVE",
"81 617 OFFCURVE",
"82 616 CURVE",
"92 617 OFFCURVE",
"98 618 OFFCURVE",
"105 618 CURVE SMOOTH"
);
},
{
closed = 1;
nodes = (
"568 510 OFFCURVE",
"571 515 OFFCURVE",
"573 519 CURVE",
"575 521 OFFCURVE",
"576 524 OFFCURVE",
"577 527 CURVE SMOOTH",
"579 536 OFFCURVE",
"582 545 OFFCURVE",
"583 555 CURVE SMOOTH",
"585 565 OFFCURVE",
"587 575 OFFCURVE",
"586 585 CURVE SMOOTH",
"586 589 OFFCURVE",
"582 593 OFFCURVE",
"582 594 CURVE",
"572 593 OFFCURVE",
"566 592 OFFCURVE",
"560 592 CURVE",
"556 593 OFFCURVE",
"552 594 OFFCURVE",
"549 594 CURVE SMOOTH",
"508 595 OFFCURVE",
"468 595 OFFCURVE",
"427 595 CURVE",
"423 433 LINE",
"429 433 OFFCURVE",
"435 433 OFFCURVE",
"441 434 CURVE SMOOTH",
"493 439 OFFCURVE",
"537 458 OFFCURVE",
"565 506 CURVE SMOOTH"
);
}
);
vertWidth = 532;
width = 1000;
}
);
note = cid08803;
},
{
glyphname = t.rotat;
lastChange = "2020-11-05 19:14:57 +0000";
layers = (
{
layerId = "E107BE24-86B5-4C0E-8944-467415BB13ED";
paths = (
{
closed = 1;
nodes = (
"500 548 OFFCURVE",
"501 548 OFFCURVE",
"501 548 CURVE",
"726 545 LINE",
"722 589 OFFCURVE",
"726 709 OFFCURVE",
"722 724 CURVE",
"510 722 LINE",
"513 748 OFFCURVE",
"515 774 OFFCURVE",
"517 799 CURVE",
"522 812 OFFCURVE",
"476 812 OFFCURVE",
"443 813 CURVE SMOOTH",
"372 813 LINE",
"369 781 OFFCURVE",
"367 751 OFFCURVE",
"364 721 CURVE",
"27 717 LINE",
"27 545 LINE",
"105 552 OFFCURVE",
"185 547 OFFCURVE",
"265 549 CURVE SMOOTH",
"281 549 OFFCURVE",
"320 549 OFFCURVE",
"361 549 CURVE",
"360 519 OFFCURVE",
"359 489 OFFCURVE",
"358 459 CURVE",
"395 452 OFFCURVE",
"473 453 OFFCURVE",
"493 461 CURVE",
"495 490 OFFCURVE",
"497 519 OFFCURVE",
"498 548 CURVE"
);
}
);
vertWidth = 500;
width = 1000;
}
);
note = cid08804;
},
{
glyphname = u.rotat;
lastChange = "2020-11-05 19:14:57 +0000";
layers = (
{
layerId = "E107BE24-86B5-4C0E-8944-467415BB13ED";
paths = (
{
closed = 1;
nodes = (
"567 640 OFFCURVE",
"572 646 OFFCURVE",
"577 662 CURVE SMOOTH",
"590 696 OFFCURVE",
"583 732 OFFCURVE",
"584 769 CURVE",
"551 771 OFFCURVE",
"521 773 OFFCURVE",
"493 774 CURVE SMOOTH",
"461 776 OFFCURVE",
"429 776 OFFCURVE",
"397 781 CURVE SMOOTH",
"370 785 OFFCURVE",
"342 785 OFFCURVE",
"314 785 CURVE",
"314 786 LINE",
"311 786 OFFCURVE",
"307 786 OFFCURVE",
"304 785 CURVE",
"298 785 OFFCURVE",
"292 786 OFFCURVE",
"285 786 CURVE",
"285 785 OFFCURVE",
"285 785 OFFCURVE",
"285 784 CURVE",
"220 776 OFFCURVE",
"163 752 OFFCURVE",
"127 690 CURVE SMOOTH",
"124 684 OFFCURVE",
"120 679 OFFCURVE",
"118 673 CURVE",
"116 670 OFFCURVE",
"114 667 OFFCURVE",
"113 663 CURVE SMOOTH",
"110 651 OFFCURVE",
"107 639 OFFCURVE",
"105 626 CURVE SMOOTH",
"102 613 OFFCURVE",
"100 600 OFFCURVE",
"101 586 CURVE SMOOTH",
"101 581 OFFCURVE",
"106 576 OFFCURVE",
"107 575 CURVE",
"120 576 OFFCURVE",
"126 577 OFFCURVE",
"134 577 CURVE SMOOTH",
"139 577 OFFCURVE",
"144 575 OFFCURVE",
"149 574 CURVE",
"202 574 OFFCURVE",
"255 574 OFFCURVE",
"308 573 CURVE",
"310 661 LINE",
"391 655 OFFCURVE",
"471 648 OFFCURVE",
"550 642 CURVE SMOOTH"
);
},
{
closed = 1;
nodes = (
"608 560 LINE",
"549 562 OFFCURVE",
"492 565 OFFCURVE",
"437 565 CURVE SMOOTH",
"335 565 OFFCURVE",
"234 564 OFFCURVE",
"132 562 CURVE SMOOTH",
"120 562 OFFCURVE",
"107 562 OFFCURVE",
"93 560 CURVE",
"93 460 LINE",
"93 358 LINE",
"366 358 LINE",
"366 357 OFFCURVE",
"407 356 OFFCURVE",
"452 358 CURVE",
"502 364 OFFCURVE",
"556 369 OFFCURVE",
"608 374 CURVE"
);
}
);
vertWidth = 668;
width = 1000;
}
);
note = cid08805;
},
{
glyphname = v.rotat;
lastChange = "2020-11-05 19:14:57 +0000";
layers = (
{
layerId = "E107BE24-86B5-4C0E-8944-467415BB13ED";
paths = (
{
closed = 1;
nodes = (
"352 592 OFFCURVE",
"403 611 OFFCURVE",
"452 631 CURVE SMOOTH",
"488 646 OFFCURVE",
"528 654 OFFCURVE",
"562 677 CURVE SMOOTH",
"582 690 OFFCURVE",
"585 696 OFFCURVE",
"578 715 CURVE SMOOTH",
"569 743 OFFCURVE",
"562 770 OFFCURVE",
"551 798 CURVE SMOOTH",
"547 809 OFFCURVE",
"538 819 OFFCURVE",
"531 831 CURVE",
"512 825 OFFCURVE",
"498 820 OFFCURVE",
"485 816 CURVE SMOOTH",
"359 772 OFFCURVE",
"231 737 OFFCURVE",
"108 686 CURVE SMOOTH",
"76 673 OFFCURVE",
"72 670 OFFCURVE",
"82 641 CURVE SMOOTH",
"88 622 OFFCURVE",
"94 604 OFFCURVE",
"100 585 CURVE",
"100 585 OFFCURVE",
"117 539 OFFCURVE",
"129 525 CURVE",
"127 522 LINE",
"174 502 OFFCURVE",
"218 473 OFFCURVE",
"265 449 CURVE SMOOTH",
"288 436 OFFCURVE",
"399 374 OFFCURVE",
"399 374 CURVE",
"526 300 LINE",
"540 330 OFFCURVE",
"586 407 OFFCURVE",
"589 418 CURVE",
"302 573 LINE"
);
}
);
vertWidth = 628;
width = 1000;
}
);
note = cid08806;
},
{
glyphname = w.rotat;
lastChange = "2020-11-05 19:14:57 +0000";
layers = (
{
layerId = "E107BE24-86B5-4C0E-8944-467415BB13ED";
paths = (
{
closed = 1;
nodes = (
"343 268 OFFCURVE",
"370 268 OFFCURVE",
"398 273 CURVE SMOOTH",
"429 278 OFFCURVE",
"461 277 OFFCURVE",
"493 279 CURVE SMOOTH",
"521 280 OFFCURVE",
"551 282 OFFCURVE",
"584 284 CURVE",
"583 321 OFFCURVE",
"590 356 OFFCURVE",
"577 390 CURVE SMOOTH",
"572 406 OFFCURVE",
"567 412 OFFCURVE",
"550 410 CURVE SMOOTH",
"471 404 OFFCURVE",
"391 398 OFFCURVE",
"311 391 CURVE",
"309 448 LINE",
"322 448 OFFCURVE",
"335 449 OFFCURVE",
"347 451 CURVE SMOOTH",
"373 455 OFFCURVE",
"400 454 OFFCURVE",
"426 456 CURVE SMOOTH",
"450 457 OFFCURVE",
"474 459 OFFCURVE",
"502 460 CURVE",
"501 491 OFFCURVE",
"506 520 OFFCURVE",
"496 548 CURVE SMOOTH",
"492 562 OFFCURVE",
"487 566 OFFCURVE",
"474 565 CURVE SMOOTH",
"408 560 OFFCURVE",
"342 554 OFFCURVE",
"275 549 CURVE",
"273 621 LINE",
"229 621 OFFCURVE",
"186 621 OFFCURVE",
"142 621 CURVE",
"138 620 OFFCURVE",
"134 619 OFFCURVE",
"130 619 CURVE SMOOTH",
"123 619 OFFCURVE",
"118 619 OFFCURVE",
"107 620 CURVE",
"107 619 OFFCURVE",
"102 615 OFFCURVE",
"102 611 CURVE SMOOTH",
"102 600 OFFCURVE",
"103 589 OFFCURVE",
"105 578 CURVE SMOOTH",
"107 568 OFFCURVE",
"110 558 OFFCURVE",
"112 548 CURVE SMOOTH",
"113 545 OFFCURVE",
"114 542 OFFCURVE",
"116 539 CURVE SMOOTH",
"119 535 OFFCURVE",
"121 530 OFFCURVE",
"124 525 CURVE SMOOTH",
"136 505 OFFCURVE",
"151 489 OFFCURVE",
"168 478 CURVE",
"162 477 OFFCURVE",
"156 477 OFFCURVE",
"150 477 CURVE SMOOTH",
"146 477 OFFCURVE",
"140 475 OFFCURVE",
"136 475 CURVE SMOOTH",
"128 475 OFFCURVE",
"120 476 OFFCURVE",
"108 477 CURVE",
"108 476 OFFCURVE",
"102 471 OFFCURVE",
"102 465 CURVE SMOOTH",
"102 452 OFFCURVE",
"104 439 OFFCURVE",
"106 426 CURVE SMOOTH",
"108 413 OFFCURVE",
"111 402 OFFCURVE",
"114 390 CURVE SMOOTH",
"115 386 OFFCURVE",
"117 383 OFFCURVE",
"119 380 CURVE SMOOTH",
"122 374 OFFCURVE",
"125 368 OFFCURVE",
"129 363 CURVE",
"165 301 OFFCURVE",
"221 277 OFFCURVE",
"286 269 CURVE",
"286 269 OFFCURVE",
"286 268 OFFCURVE",
"286 267 CURVE",
"293 268 OFFCURVE",
"299 268 OFFCURVE",
"305 268 CURVE SMOOTH",
"308 268 OFFCURVE",
"311 267 OFFCURVE",
"315 267 CURVE",
"315 268 LINE"
);
},
{
closed = 1;
nodes = (
"556 825 OFFCURVE",
"503 830 OFFCURVE",
"453 835 CURVE SMOOTH",
"407 837 OFFCURVE",
"367 837 OFFCURVE",
"367 835 CURVE",
"95 835 LINE",
"95 734 LINE",
"95 635 LINE",
"108 633 OFFCURVE",
"121 633 OFFCURVE",
"133 633 CURVE SMOOTH",
"235 631 OFFCURVE",
"336 629 OFFCURVE",
"437 629 CURVE SMOOTH",
"492 629 OFFCURVE",
"549 633 OFFCURVE",
"607 635 CURVE",
"607 819 LINE"
);
}
);
vertWidth = 658;
width = 1000;
}
);
note = cid08807;
},
